<svg xmlns="http://www.w3.org/2000/svg" width="44" height="44" viewBox="0 0 44 44" fill="none">
<path d="M14.0044 16.4166L10.7617 13.174L12.1759 11.7598L15.4186 15.0024H30.6603C31.2126 15.0024 31.6603 15.4501 31.6603 16.0024C31.6603 16.0997 31.6461 16.1965 31.6182 16.2897L29.2182 24.2898C29.0913 24.7127 28.7019 25.0024 28.2603 25.0024H16.0044V27.0024H27.0044V29.0024H15.0044C14.4521 29.0024 14.0044 28.5547 14.0044 28.0024V16.4166ZM15.5044 33.0024C14.6759 33.0024 14.0044 32.3308 14.0044 31.5024C14.0044 30.674 14.6759 30.0024 15.5044 30.0024C16.3328 30.0024 17.0044 30.674 17.0044 31.5024C17.0044 32.3308 16.3328 33.0024 15.5044 33.0024ZM27.5044 33.0024C26.6759 33.0024 26.0044 32.3308 26.0044 31.5024C26.0044 30.674 26.6759 30.0024 27.5044 30.0024C28.3328 30.0024 29.0044 30.674 29.0044 31.5024C29.0044 32.3308 28.3328 33.0024 27.5044 33.0024Z" fill="#888D92"/>
</svg>