          <svg
            xmlns="http://www.w3.org/2000/svg"
            width="44"
            height="44"
            viewBox="0 0 44 44"
           
          >
            <path
              d="M16.5494 19.0111H11.6271C10.2647 19.0111 9.16602 17.9124 9.16602 16.55V11.6278C9.16602 10.2654 10.2647 9.16669 11.6271 9.16669H16.5494C17.9118 9.16669 19.0105 10.2654 19.0105 11.6278V16.55C19.0105 17.9124 17.9118 19.0111 16.5494 19.0111Z"
              stroke-width="1.5"
              stroke-linecap="round"
              stroke-linejoin="round"
            />
            <path
              d="M31.1997 19.0111H26.2775C24.9151 19.0111 23.8164 17.9124 23.8164 16.55V11.6278C23.8164 10.2654 24.9151 9.16669 26.2775 9.16669H31.1997C32.5622 9.16669 33.6609 10.2654 33.6609 11.6278V16.55C33.6609 17.9124 32.5622 19.0111 31.1997 19.0111Z"
              stroke-width="1.5"
              stroke-linecap="round"
              stroke-linejoin="round"
            />
            <path
              d="M16.5494 33.6606H11.6271C10.2647 33.6606 9.16602 32.5619 9.16602 31.1995V26.2773C9.16602 24.9149 10.2647 23.8162 11.6271 23.8162H16.5494C17.9118 23.8162 19.0105 24.9149 19.0105 26.2773V31.1995C19.0105 32.5619 17.9118 33.6606 16.5494 33.6606Z"
              stroke-width="1.5"
              stroke-linecap="round"
              stroke-linejoin="round"
            />
            <path
              d="M31.1997 33.6606H26.2775C24.9151 33.6606 23.8164 32.5619 23.8164 31.1995V26.2773C23.8164 24.9149 24.9151 23.8162 26.2775 23.8162H31.1997C32.5622 23.8162 33.6609 24.9149 33.6609 26.2773V31.1995C33.6609 32.5619 32.5622 33.6606 31.1997 33.6606Z"
              stroke-width="1.5"
              stroke-linecap="round"
              stroke-linejoin="round"
            />
          </svg>