<svg xmlns="http://www.w3.org/2000/svg" width="25" height="25" viewBox="0 0 25 25" fill="none">
<path d="M12.5 1.02246L22 6.52246V17.5225L12.5 23.0225L3 17.5225V6.52246L12.5 1.02246ZM12.5 3.33346L5 7.67557V16.3694L12.5 20.7115L20 16.3694V7.67557L12.5 3.33346ZM12.5 16.0225C10.2909 16.0225 8.5 14.2316 8.5 12.0225C8.5 9.81332 10.2909 8.02246 12.5 8.02246C14.7091 8.02246 16.5 9.81332 16.5 12.0225C16.5 14.2316 14.7091 16.0225 12.5 16.0225ZM12.5 14.0225C13.6046 14.0225 14.5 13.1271 14.5 12.0225C14.5 10.9179 13.6046 10.0225 12.5 10.0225C11.3954 10.0225 10.5 10.9179 10.5 12.0225C10.5 13.1271 11.3954 14.0225 12.5 14.0225Z" fill="#1570EF"/>
</svg>