<svg xmlns="http://www.w3.org/2000/svg" width="25" height="24" viewBox="0 0 25 24" fill="none">
  <path d="M15.0357 13.0357L20.6106 8.20412C21.4931 7.43935 22 6.32916 22 5.16145C22 4.52 21.4814 4 20.84 4H12.5H4.16004C3.51859 4 3 4.52 3 5.16145C3 6.32916 3.50695 7.43935 4.38937 8.20412L9.96429 13.0357C10.3045 13.3306 10.5 13.7587 10.5 14.2089V20.0979C10.5 20.4906 10.932 20.73 11.265 20.5219L13.56 19.0875C14.1448 18.722 14.5 18.0811 14.5 17.3915V14.2089C14.5 13.7587 14.6955 13.3306 15.0357 13.0357Z" stroke="white" stroke-width="1.5" stroke-linecap="round" stroke-linejoin="round"/>
</svg>