<svg xmlns="http://www.w3.org/2000/svg" width="24" height="24" viewBox="0 0 24 24" fill="none">
<path d="M14.2038 6.28825C15.0669 6.45664 15.8601 6.87873 16.4818 7.50052C17.1036 8.1223 17.5257 8.91548 17.6941 9.77854M14.2038 2.75378C15.9969 2.95298 17.669 3.75596 18.9455 5.03087C20.222 6.30578 21.0271 7.97685 21.2286 9.7697M20.345 16.821V19.4718C20.346 19.7179 20.2955 19.9615 20.197 20.187C20.0984 20.4124 19.9538 20.6148 19.7724 20.7812C19.5911 20.9476 19.377 21.0742 19.1439 21.1531C18.9108 21.2319 18.6638 21.2612 18.4187 21.239C15.6996 20.9436 13.0878 20.0145 10.7931 18.5263C8.65809 17.1697 6.84801 15.3596 5.49136 13.2246C3.99803 10.9195 3.0687 8.29494 2.77866 5.56368C2.75658 5.31934 2.78561 5.07307 2.86393 4.84055C2.94224 4.60804 3.0681 4.39439 3.23351 4.21318C3.39892 4.03198 3.60025 3.88721 3.82467 3.78808C4.0491 3.68895 4.29171 3.63763 4.53705 3.6374H7.1879C7.61673 3.63318 8.03246 3.78503 8.3576 4.06466C8.68275 4.34428 8.89512 4.7326 8.95514 5.15722C9.06702 6.00555 9.27452 6.8385 9.57367 7.64018C9.69255 7.95645 9.71828 8.30017 9.64781 8.63061C9.57734 8.96105 9.41361 9.26437 9.17604 9.50462L8.05385 10.6268C9.31172 12.839 11.1434 14.6706 13.3555 15.9285L14.4777 14.8063C14.718 14.5687 15.0213 14.405 15.3517 14.3345C15.6822 14.2641 16.0259 14.2898 16.3422 14.4087C17.1439 14.7078 17.9768 14.9153 18.8251 15.0272C19.2544 15.0878 19.6464 15.304 19.9266 15.6347C20.2068 15.9654 20.3557 16.3876 20.345 16.821Z" stroke-width="2" stroke-linecap="round" stroke-linejoin="round"/>
</svg>