<svg xmlns="http://www.w3.org/2000/svg" width="44" height="44" viewBox="0 0 44 44" fill="none">
  <path d="M24.388 15.8226C25.3232 16.0047 26.1827 16.4612 26.8565 17.1337C27.5302 17.8062 27.9876 18.664 28.1701 19.5974M24.388 12C26.331 12.2154 28.1429 13.0839 29.5261 14.4627C30.9093 15.8416 31.7817 17.6489 32 19.5879M31.0425 27.214V30.0809C31.0436 30.3471 30.989 30.6105 30.8821 30.8544C30.7753 31.0983 30.6186 31.3172 30.4221 31.4971C30.2256 31.677 29.9937 31.814 29.7411 31.8993C29.4885 31.9845 29.2208 32.0162 28.9552 31.9922C26.0089 31.6727 23.1787 30.6678 20.6921 29.0584C18.3787 27.5911 16.4173 25.6335 14.9472 23.3245C13.3291 20.8314 12.3221 17.9929 12.0078 15.039C11.9838 14.7747 12.0153 14.5084 12.1002 14.2569C12.185 14.0054 12.3214 13.7743 12.5007 13.5784C12.6799 13.3824 12.898 13.2258 13.1412 13.1186C13.3844 13.0114 13.6473 12.9559 13.9132 12.9557H16.7856C17.2503 12.9511 17.7008 13.1153 18.0531 13.4177C18.4054 13.7202 18.6355 14.1401 18.7006 14.5994C18.8218 15.5169 19.0467 16.4177 19.3708 17.2848C19.4996 17.6268 19.5275 17.9985 19.4511 18.3559C19.3748 18.7133 19.1974 19.0414 18.9399 19.3012L17.7239 20.5149C19.087 22.9074 21.0717 24.8883 23.4688 26.2488L24.6848 25.0351C24.9452 24.7782 25.2738 24.6011 25.6319 24.5249C25.99 24.4486 26.3624 24.4765 26.7051 24.6051C27.5738 24.9286 28.4764 25.153 29.3956 25.274C29.8608 25.3395 30.2855 25.5733 30.5892 25.931C30.8928 26.2887 31.0542 26.7453 31.0425 27.214Z" stroke="white" stroke-width="2" stroke-linecap="round" stroke-linejoin="round"/>
</svg>