<svg xmlns="http://www.w3.org/2000/svg" width="44" height="45" viewBox="0 0 44 45" fill="none">
  <path d="M14.0044 16.6129L10.7617 13.3703L12.1759 11.9561L15.4186 15.1987H30.6603C31.2126 15.1987 31.6603 15.6464 31.6603 16.1987C31.6603 16.296 31.6461 16.3928 31.6182 16.486L29.2182 24.4861C29.0913 24.909 28.7019 25.1987 28.2603 25.1987H16.0044V27.1987H27.0044V29.1987H15.0044C14.4521 29.1987 14.0044 28.751 14.0044 28.1987V16.6129ZM15.5044 33.1987C14.6759 33.1987 14.0044 32.5271 14.0044 31.6987C14.0044 30.8703 14.6759 30.1987 15.5044 30.1987C16.3328 30.1987 17.0044 30.8703 17.0044 31.6987C17.0044 32.5271 16.3328 33.1987 15.5044 33.1987ZM27.5044 33.1987C26.6759 33.1987 26.0044 32.5271 26.0044 31.6987C26.0044 30.8703 26.6759 30.1987 27.5044 30.1987C28.3328 30.1987 29.0044 30.8703 29.0044 31.6987C29.0044 32.5271 28.3328 33.1987 27.5044 33.1987Z" fill="white"/>
</svg>