<svg xmlns="http://www.w3.org/2000/svg" width="24" height="24" viewBox="0 0 24 24" fill="none">
<path d="M9.02728 10.3697H6.34243C5.5993 10.3697 5 9.77039 5 9.02727V6.34242C5 5.59929 5.5993 5 6.34243 5H9.02728C9.77041 5 10.3697 5.59929 10.3697 6.34242V9.02727C10.3697 9.77039 9.77041 10.3697 9.02728 10.3697Z" stroke="white" stroke-width="1.2" stroke-linecap="round" stroke-linejoin="round"/>
<path d="M17.018 10.3697H14.3332C13.59 10.3697 12.9907 9.77039 12.9907 9.02727V6.34242C12.9907 5.59929 13.59 5 14.3332 5H17.018C17.7611 5 18.3604 5.59929 18.3604 6.34242V9.02727C18.3604 9.77039 17.7611 10.3697 17.018 10.3697Z" stroke="white" stroke-width="1.2" stroke-linecap="round" stroke-linejoin="round"/>
<path d="M9.02728 18.3603H6.34243C5.5993 18.3603 5 17.7611 5 17.0179V14.3331C5 13.59 5.5993 12.9907 6.34243 12.9907H9.02728C9.77041 12.9907 10.3697 13.59 10.3697 14.3331V17.0179C10.3697 17.7611 9.77041 18.3603 9.02728 18.3603Z" stroke="white" stroke-width="1.2" stroke-linecap="round" stroke-linejoin="round"/>
<path d="M17.018 18.3603H14.3332C13.59 18.3603 12.9907 17.7611 12.9907 17.0179V14.3331C12.9907 13.59 13.59 12.9907 14.3332 12.9907H17.018C17.7611 12.9907 18.3604 13.59 18.3604 14.3331V17.0179C18.3604 17.7611 17.7611 18.3603 17.018 18.3603Z" stroke="white" stroke-width="1.2" stroke-linecap="round" stroke-linejoin="round"/>
</svg>