<svg xmlns="http://www.w3.org/2000/svg" width="248" height="60" viewBox="0 0 248 60" fill="none">
  <path d="M81 30V27.16H81.54C81.6712 27.0183 81.7884 26.8642 81.89 26.7C81.9949 26.5167 82.0787 26.3221 82.14 26.12C82.2227 25.8481 82.2861 25.5708 82.33 25.29C82.33 24.96 82.42 24.57 82.46 24.1L82.68 21.48H86.83V27.16H87.83V30H86.83V28.1H82V30H81ZM82.68 27.16H85.83V22.43H83.62L83.45 24.1C83.38 24.8 83.29 25.4 83.19 25.92C83.111 26.3651 82.937 26.788 82.68 27.16ZM88.59 28.1V27.16H88.83C89.0014 27.167 89.1712 27.1254 89.32 27.04C89.4658 26.937 89.5745 26.7897 89.63 26.62C89.7346 26.351 89.7987 26.0679 89.82 25.78C89.87 25.43 89.9 24.97 89.92 24.41L90 21.48H94.35V28.1H93.35V22.43H91L90.9 24.79C90.8866 25.2731 90.8364 25.7545 90.75 26.23C90.6917 26.5769 90.5839 26.9137 90.43 27.23C90.2997 27.4903 90.0987 27.7086 89.85 27.86C89.5704 28.0088 89.2565 28.0813 88.94 28.07L88.59 28.1ZM100.16 28.1V22.41H98.43C98.0972 22.3953 97.7693 22.494 97.5 22.69C97.3906 22.783 97.304 22.8999 97.2467 23.0317C97.1895 23.1634 97.1633 23.3065 97.17 23.45C97.1665 23.5873 97.1913 23.7239 97.2429 23.8512C97.2945 23.9786 97.3718 24.0939 97.47 24.19C97.7025 24.3898 98.0041 24.4903 98.31 24.47H100.42V25.41H98.31C97.9145 25.4182 97.522 25.3397 97.16 25.18C96.8538 25.0282 96.5971 24.7923 96.42 24.5C96.2462 24.1779 96.16 23.8158 96.17 23.45C96.1616 23.0818 96.255 22.7185 96.44 22.4C96.6245 22.0991 96.8967 21.8618 97.22 21.72C97.6006 21.5514 98.0139 21.4694 98.43 21.48H101.11V28.1H100.16ZM95.81 28.1L97.66 24.81H98.75L96.9 28.1H95.81ZM108.25 28.26C107.86 28.2657 107.474 28.1837 107.12 28.02C106.792 27.8721 106.514 27.6325 106.32 27.33C106.114 26.9973 106.009 26.6114 106.02 26.22C106.004 25.8986 106.081 25.5795 106.24 25.3C106.385 25.0653 106.588 24.8723 106.83 24.74C107.09 24.6059 107.365 24.5051 107.65 24.44C107.95 24.37 108.25 24.32 108.55 24.28C108.85 24.24 109.27 24.19 109.55 24.16C109.737 24.1457 109.92 24.0983 110.09 24.02C110.15 23.9845 110.199 23.9328 110.23 23.8709C110.262 23.809 110.276 23.7394 110.27 23.67C110.288 23.4857 110.264 23.2998 110.2 23.1259C110.137 22.952 110.035 22.7945 109.903 22.665C109.77 22.5355 109.611 22.4373 109.436 22.3776C109.26 22.3179 109.074 22.2982 108.89 22.32C108.488 22.2981 108.091 22.4107 107.76 22.64C107.518 22.8176 107.323 23.0509 107.19 23.32L106.19 22.98C106.331 22.6126 106.565 22.2885 106.87 22.04C107.143 21.8164 107.46 21.6529 107.8 21.56C108.365 21.41 108.956 21.3895 109.53 21.5C109.811 21.5513 110.079 21.6566 110.32 21.81C110.595 21.982 110.819 22.2235 110.97 22.51C111.154 22.9036 111.24 23.336 111.22 23.77V28.1H110.22V27.21C110.126 27.3767 110.012 27.5312 109.88 27.67C109.694 27.8482 109.477 27.9906 109.24 28.09C108.925 28.2141 108.588 28.272 108.25 28.26ZM108.4 27.34C108.748 27.3555 109.094 27.276 109.4 27.11C109.654 26.9752 109.867 26.7736 110.015 26.5269C110.163 26.2802 110.241 25.9977 110.24 25.71V24.78C110.159 24.8488 110.063 24.8968 109.96 24.92L109.46 25.03L108.92 25.1L108.5 25.16C108.252 25.191 108.008 25.2445 107.77 25.32C107.565 25.3885 107.38 25.5051 107.23 25.66C107.083 25.832 107.008 26.054 107.02 26.28C107.011 26.4356 107.042 26.5908 107.111 26.7309C107.179 26.871 107.282 26.9912 107.41 27.08C107.705 27.2663 108.051 27.3571 108.4 27.34ZM113.07 28.1V21.48H115.74C116.34 21.4459 116.933 21.6189 117.42 21.97C117.618 22.1162 117.777 22.308 117.885 22.5291C117.993 22.7502 118.046 22.9941 118.04 23.24C118.05 23.4123 118.024 23.5849 117.963 23.7466C117.903 23.9084 117.81 24.056 117.69 24.18C117.432 24.4061 117.117 24.5582 116.78 24.62C117.029 24.6584 117.267 24.7469 117.48 24.88C117.712 25.0225 117.908 25.2178 118.05 25.45C118.209 25.7153 118.289 26.0207 118.28 26.33C118.283 26.6521 118.193 26.9681 118.02 27.24C117.841 27.5146 117.588 27.733 117.29 27.87C116.933 28.0345 116.543 28.1133 116.15 28.1H113.07ZM114.07 27.17H116.19C116.482 27.1908 116.771 27.1016 117 26.92C117.099 26.8378 117.178 26.7335 117.23 26.6154C117.282 26.4974 117.306 26.3689 117.3 26.24C117.316 26.0907 117.298 25.9398 117.248 25.7984C117.198 25.6569 117.116 25.5286 117.01 25.423C116.903 25.3173 116.774 25.237 116.632 25.188C116.49 25.139 116.339 25.1226 116.19 25.14H114L114.07 27.17ZM114.07 24.26H115.78C116.018 24.2632 116.255 24.226 116.48 24.15C116.655 24.0833 116.807 23.969 116.92 23.82C117.026 23.6713 117.082 23.4927 117.08 23.31C117.084 23.1805 117.053 23.0523 116.992 22.9382C116.93 22.8242 116.84 22.7282 116.73 22.66C116.435 22.4658 116.082 22.3776 115.73 22.41H114L114.07 24.26ZM119.46 22.43V21.48H124.77V22.43H122.63V28.1H121.63V22.43H119.46ZM128.55 28.24C128.002 28.2537 127.463 28.104 127 27.81C126.561 27.5152 126.215 27.1028 126 26.62C125.74 26.0599 125.614 25.4472 125.63 24.83C125.615 24.2064 125.741 23.5875 126 23.02C126.217 22.5361 126.563 22.121 127 21.82C127.47 21.5449 128.005 21.4 128.55 21.4C129.095 21.4 129.63 21.5449 130.1 21.82C130.538 22.1202 130.884 22.5355 131.1 23.02C131.362 23.5867 131.492 24.2057 131.48 24.83C131.493 25.448 131.363 26.0607 131.1 26.62C130.877 27.1142 130.514 27.5317 130.055 27.8199C129.596 28.1081 129.062 28.2543 128.52 28.24H128.55ZM128.55 27.33C128.946 27.3452 129.335 27.2214 129.65 26.98C129.948 26.7397 130.173 26.4211 130.3 26.06C130.439 25.6651 130.507 25.2486 130.5 24.83C130.507 24.4081 130.439 23.9883 130.3 23.59C130.171 23.2274 129.946 22.9062 129.65 22.66C129.335 22.4186 128.946 22.2948 128.55 22.31C128.151 22.295 127.758 22.4186 127.44 22.66C127.147 22.9068 126.926 23.2281 126.8 23.59C126.658 23.9877 126.586 24.4075 126.59 24.83C126.586 25.2492 126.658 25.6657 126.8 26.06C126.921 26.4214 127.143 26.7406 127.44 26.98C127.748 27.2127 128.124 27.3359 128.51 27.33H128.55ZM136.41 28.1V21.48H137.41V28.1H136.41ZM136.92 20.38C136.73 20.3821 136.548 20.3103 136.41 20.18C136.341 20.1163 136.286 20.039 136.248 19.9529C136.21 19.8669 136.191 19.774 136.191 19.68C136.191 19.586 136.21 19.4931 136.248 19.407C136.286 19.321 136.341 19.2437 136.41 19.18C136.546 19.0549 136.725 18.9855 136.91 18.9855C137.095 18.9855 137.274 19.0549 137.41 19.18C137.479 19.2437 137.534 19.321 137.572 19.407C137.61 19.4931 137.629 19.586 137.629 19.68C137.629 19.774 137.61 19.8669 137.572 19.9529C137.534 20.039 137.479 20.1163 137.41 20.18C137.34 20.2474 137.257 20.2999 137.165 20.3343C137.074 20.3687 136.977 20.3842 136.88 20.38H136.92ZM145.27 28.24C144.711 28.2531 144.161 28.1 143.69 27.8C143.251 27.4966 142.905 27.0779 142.69 26.59C142.441 26.0372 142.318 25.4361 142.33 24.83C142.315 24.2161 142.442 23.6071 142.7 23.05C142.913 22.561 143.26 22.1418 143.7 21.84C144.156 21.538 144.694 21.3843 145.24 21.4C145.671 21.3903 146.099 21.4792 146.49 21.66C146.845 21.8219 147.154 22.0693 147.39 22.38C147.631 22.6979 147.783 23.0741 147.83 23.47H146.83C146.744 23.1553 146.567 22.8733 146.32 22.66C146.021 22.4174 145.644 22.2929 145.26 22.31C144.903 22.3082 144.554 22.4164 144.26 22.62C143.954 22.838 143.718 23.1402 143.58 23.49C143.408 23.9015 143.323 24.3441 143.33 24.79C143.32 25.2482 143.402 25.7037 143.57 26.13C143.709 26.4817 143.945 26.7868 144.25 27.01C144.543 27.2159 144.892 27.3276 145.25 27.33C145.494 27.3319 145.735 27.2842 145.96 27.19C146.17 27.1021 146.355 26.9649 146.5 26.79C146.651 26.6096 146.761 26.3978 146.82 26.17H147.82C147.765 26.5513 147.621 26.9144 147.4 27.23C147.172 27.5454 146.87 27.7996 146.52 27.97C146.117 28.1592 145.675 28.2516 145.23 28.24H145.27ZM149.27 28.1V21.48H150.27V28.1H149.27ZM149.78 20.38C149.59 20.3821 149.408 20.3103 149.27 20.18C149.201 20.1163 149.146 20.039 149.108 19.9529C149.07 19.8669 149.051 19.774 149.051 19.68C149.051 19.586 149.07 19.4931 149.108 19.407C149.146 19.321 149.201 19.2437 149.27 19.18C149.406 19.0549 149.585 18.9855 149.77 18.9855C149.955 18.9855 150.134 19.0549 150.27 19.18C150.339 19.2437 150.394 19.321 150.432 19.407C150.47 19.4931 150.489 19.586 150.489 19.68C150.489 19.774 150.47 19.8669 150.432 19.9529C150.394 20.039 150.339 20.1163 150.27 20.18C150.138 20.3064 149.963 20.3779 149.78 20.38ZM151.53 28.1V27.16H151.77C151.941 27.1654 152.111 27.1239 152.26 27.04C152.406 26.937 152.515 26.7897 152.57 26.62C152.67 26.3495 152.734 26.0671 152.76 25.78C152.76 25.43 152.84 24.97 152.86 24.41L152.98 21.48H157.33V28.1H156.33V22.43H153.93L153.83 24.79C153.812 25.2728 153.762 25.7538 153.68 26.23C153.623 26.5786 153.512 26.916 153.35 27.23C153.227 27.4919 153.028 27.7111 152.78 27.86C152.5 28.0088 152.187 28.0813 151.87 28.07L151.53 28.1ZM160 23.88H161.87C162.511 23.8382 163.143 24.0501 163.63 24.47C163.829 24.6645 163.985 24.8984 164.088 25.1567C164.192 25.415 164.24 25.692 164.23 25.97C164.233 26.3471 164.14 26.7188 163.96 27.05C163.771 27.377 163.494 27.644 163.16 27.82C162.76 28.0198 162.317 28.1161 161.87 28.1H159.13V21.48H160.13V27.16H161.86C162.221 27.1773 162.576 27.0636 162.86 26.84C162.983 26.7427 163.082 26.6178 163.148 26.4754C163.214 26.3329 163.245 26.1769 163.24 26.02C163.244 25.8575 163.212 25.696 163.147 25.5473C163.081 25.3986 162.983 25.2664 162.86 25.16C162.58 24.9286 162.223 24.8108 161.86 24.83H160V23.88ZM169.79 21.48V22.43H166.79V28.1H165.79V21.48H169.79ZM173.57 28.24C173.022 28.2525 172.483 28.1029 172.02 27.81C171.584 27.5125 171.238 27.1008 171.02 26.62C170.766 26.058 170.639 25.4467 170.65 24.83C170.631 24.2017 170.75 23.5768 171 23C171.222 22.5187 171.567 22.1047 172 21.8C172.47 21.5249 173.005 21.38 173.55 21.38C174.095 21.38 174.63 21.5249 175.1 21.8C175.537 22.101 175.883 22.5161 176.1 23C176.359 23.5675 176.485 24.1864 176.47 24.81C176.486 25.4272 176.36 26.0399 176.1 26.6C175.885 27.0828 175.539 27.4952 175.1 27.79C174.657 28.0798 174.14 28.236 173.61 28.24H173.57ZM173.57 27.33C173.969 27.345 174.362 27.2214 174.68 26.98C174.977 26.7406 175.199 26.4214 175.32 26.06C175.462 25.6657 175.534 25.2492 175.53 24.83C175.534 24.4075 175.462 23.9877 175.32 23.59C175.194 23.2281 174.973 22.9068 174.68 22.66C174.362 22.4186 173.969 22.295 173.57 22.31C173.174 22.2948 172.785 22.4186 172.47 22.66C172.174 22.904 171.952 23.2262 171.83 23.59C171.688 23.9877 171.616 24.4075 171.62 24.83C171.616 25.2492 171.688 25.6657 171.83 26.06C171.951 26.4214 172.173 26.7406 172.47 26.98C172.795 27.2305 173.2 27.3548 173.61 27.33H173.57ZM180.72 28.24C180.17 28.2564 179.628 28.1081 179.163 27.8141C178.698 27.5201 178.331 27.0938 178.11 26.59C177.869 26.0349 177.75 25.4349 177.76 24.83C177.747 24.2174 177.87 23.6096 178.12 23.05C178.337 22.5629 178.682 22.1445 179.12 21.84C179.58 21.5384 180.121 21.3848 180.67 21.4C181.098 21.3901 181.522 21.479 181.91 21.66C182.268 21.8216 182.58 22.0689 182.82 22.38C183.057 22.7002 183.208 23.0753 183.26 23.47H182.26C182.175 23.1258 181.972 22.822 181.688 22.6104C181.403 22.3988 181.054 22.2926 180.7 22.31C180.343 22.3069 179.993 22.4153 179.7 22.62C179.392 22.8391 179.153 23.1407 179.01 23.49C178.841 23.9022 178.76 24.3448 178.77 24.79C178.76 25.2482 178.842 25.7037 179.01 26.13C179.149 26.4817 179.385 26.7868 179.69 27.01C179.982 27.2171 180.332 27.3288 180.69 27.33C180.934 27.3319 181.175 27.2842 181.4 27.19C181.61 27.1021 181.795 26.9649 181.94 26.79C182.088 26.6088 182.194 26.3971 182.25 26.17H183.25C183.196 26.5532 183.048 26.9173 182.82 27.23C182.615 27.5511 182.333 27.8158 182 28C181.611 28.1741 181.186 28.2562 180.76 28.24H180.72ZM184.72 28.1V21.48H189.86V28.1H188.86V22.43H185.8V28.1H184.72ZM194.72 22.43V21.48H200.02V22.43H197.88V28.1H196.88V22.43H194.72ZM203.89 28.24C203.318 28.2546 202.754 28.1091 202.26 27.82C201.804 27.5316 201.439 27.1187 201.21 26.63C200.95 26.0699 200.824 25.4572 200.84 24.84C200.827 24.2231 200.953 23.6111 201.21 23.05C201.424 22.561 201.77 22.1418 202.21 21.84C202.666 21.5398 203.204 21.3863 203.75 21.4C204.091 21.3983 204.429 21.4558 204.75 21.57C205.091 21.6865 205.402 21.8779 205.66 22.13C205.949 22.4103 206.171 22.7521 206.31 23.13C206.483 23.6313 206.564 24.1598 206.55 24.69V25.12H201.55V24.24H205.55C205.558 23.8938 205.482 23.5509 205.33 23.24C205.191 22.9547 204.976 22.7128 204.71 22.54C204.408 22.362 204.06 22.2752 203.71 22.29C203.354 22.2878 203.006 22.3923 202.71 22.59C202.423 22.7872 202.192 23.056 202.04 23.37C201.887 23.681 201.808 24.0234 201.81 24.37V25C201.796 25.4368 201.881 25.8711 202.06 26.27C202.214 26.6005 202.465 26.8761 202.78 27.06C203.106 27.2452 203.475 27.3385 203.85 27.33C204.091 27.3316 204.331 27.2945 204.56 27.22C204.769 27.1433 204.96 27.0241 205.12 26.87C205.282 26.7058 205.405 26.5077 205.48 26.29L206.48 26.57C206.383 26.902 206.204 27.2045 205.96 27.45C205.71 27.7071 205.406 27.9053 205.07 28.03C204.706 28.169 204.32 28.2402 203.93 28.24H203.89ZM208.69 21.48L210.26 24.19L211.82 21.48H213L210.89 24.79L213 28.1H211.84L210.28 25.53L208.71 28.1H207.55L209.63 24.79L207.55 21.48H208.69ZM218.78 24.33V25.33H215.17V24.33H218.78ZM215.41 21.48V28.1H214.41V21.48H215.41ZM219.55 21.48V28.1H218.55V21.48H219.55ZM221.38 28.1V21.48H222.38V28.1H221.38ZM221.89 20.38C221.701 20.381 221.518 20.3094 221.38 20.18C221.311 20.1163 221.256 20.039 221.218 19.9529C221.18 19.8669 221.161 19.774 221.161 19.68C221.161 19.586 221.18 19.4931 221.218 19.407C221.256 19.321 221.311 19.2437 221.38 19.18C221.518 19.0505 221.701 18.979 221.89 18.98C222.076 18.9795 222.255 19.0512 222.39 19.18C222.459 19.2437 222.514 19.321 222.552 19.407C222.59 19.4931 222.609 19.586 222.609 19.68C222.609 19.774 222.59 19.8669 222.552 19.9529C222.514 20.039 222.459 20.1163 222.39 20.18C222.266 20.2996 222.102 20.3706 221.93 20.38H221.89ZM224.22 28.1V21.48H225.22V24.36H225.89L228.23 21.48H229.53L226.89 24.67L229.56 28.1H228.27L226.13 25.31H225.22V28.1H224.22ZM231.66 26.6L234.8 21.48H236V28.1H235V23L231.87 28.12H230.69V21.48H231.69L231.66 26.6Z" fill="#41464C"/>
  <path d="M87.3362 51.9999C86.2182 52.0233 85.1076 51.8121 84.0763 51.3799C83.1919 51.0077 82.4199 50.4114 81.8362 49.6499C81.2891 48.9048 80.9948 48.0043 80.9963 47.0799H84.5562C84.5684 47.4708 84.709 47.8469 84.9562 48.1499C85.224 48.4652 85.5684 48.7062 85.9562 48.8499C86.4022 49.0235 86.8778 49.1084 87.3563 49.0999C87.8475 49.1107 88.3353 49.0152 88.7863 48.8199C89.1828 48.653 89.5278 48.3838 89.7863 48.0399C90.0201 47.6987 90.1423 47.2934 90.1362 46.8799C90.1406 46.4589 90.0071 46.048 89.7563 45.7099C89.4866 45.3451 89.119 45.0643 88.6962 44.8999C88.1557 44.6867 87.5769 44.5879 86.9963 44.6099H85.4663V42.0499H86.9963C87.4811 42.0607 87.9623 41.9651 88.4063 41.7699C88.8066 41.6196 89.1543 41.3554 89.4063 41.0099C89.6326 40.6732 89.7512 40.2756 89.7463 39.8699C89.7587 39.4811 89.6574 39.0971 89.455 38.765C89.2525 38.4328 88.9575 38.167 88.6063 37.9999C88.2206 37.8115 87.7953 37.7189 87.3663 37.7299C86.916 37.7213 86.4691 37.81 86.0562 37.9899C85.6584 38.1245 85.3101 38.3753 85.0562 38.7099C84.8142 39.0228 84.6777 39.4045 84.6662 39.7999H81.3263C81.3331 38.8938 81.6233 38.0127 82.1563 37.2799C82.7141 36.5371 83.4548 35.9514 84.3062 35.5799C85.28 35.1698 86.33 34.972 87.3862 34.9999C88.4198 34.9825 89.4443 35.1943 90.3862 35.6199C91.1882 35.9956 91.8778 36.5748 92.3862 37.2999C92.8727 37.9892 93.1251 38.8164 93.1063 39.6599C93.1336 40.0858 93.0742 40.5129 92.9315 40.9151C92.7888 41.3174 92.5659 41.6864 92.2762 41.9999C91.6655 42.6263 90.8631 43.031 89.9963 43.1499V43.2799C91.0537 43.3574 92.0494 43.8074 92.8062 44.5499C93.1373 44.8889 93.3966 45.2913 93.5684 45.7329C93.7402 46.1745 93.8211 46.6463 93.8062 47.1199C93.8278 48.0241 93.5423 48.9089 92.9963 49.6299C92.4003 50.3933 91.614 50.9865 90.7163 51.3499C89.6473 51.8001 88.4959 52.0215 87.3362 51.9999ZM99.9162 51.9999C99.1824 52.0109 98.4541 51.8714 97.7762 51.5899C97.1759 51.329 96.6625 50.9023 96.2963 50.3599C95.9177 49.7412 95.7299 49.0247 95.7563 48.2999C95.7394 47.7008 95.8699 47.1067 96.1362 46.5699C96.3679 46.1142 96.7121 45.7252 97.1362 45.4399C97.598 45.1438 98.1045 44.9243 98.6362 44.7899C99.2214 44.6462 99.8163 44.5459 100.416 44.4899L102.176 44.2799C102.527 44.2468 102.868 44.1413 103.176 43.9699C103.275 43.9051 103.354 43.8155 103.407 43.7101C103.459 43.6048 103.483 43.4874 103.476 43.3699C103.489 43.1489 103.452 42.9279 103.367 42.7234C103.282 42.519 103.152 42.3366 102.986 42.1899C102.597 41.8855 102.109 41.7359 101.616 41.7699C101.089 41.7444 100.567 41.888 100.126 42.1799C99.7749 42.4213 99.5144 42.7733 99.3862 43.1799L96.1763 42.9199C96.3251 42.1759 96.6704 41.4853 97.1763 40.9199C97.6739 40.3585 98.2976 39.9232 98.9963 39.6499C99.8438 39.336 100.743 39.1834 101.646 39.1999C102.32 39.1978 102.992 39.2784 103.646 39.4399C104.254 39.5848 104.83 39.8389 105.346 40.1899C105.842 40.5251 106.25 40.9743 106.536 41.4999C106.834 42.0881 106.982 42.7408 106.966 43.3999V51.7599H103.666V49.9999H103.566C103.364 50.3802 103.093 50.7194 102.766 50.9999C102.404 51.3013 101.991 51.535 101.546 51.6899C101.023 51.8815 100.473 51.9862 99.9162 51.9999ZM100.916 49.6299C101.384 49.6394 101.847 49.5365 102.266 49.3299C102.64 49.1425 102.957 48.8596 103.186 48.5099C103.414 48.1626 103.532 47.7551 103.526 47.3399V45.9999C103.387 46.0859 103.235 46.15 103.076 46.1899C102.886 46.2499 102.676 46.2999 102.446 46.3499L101.746 46.4699L101.106 46.5599C100.739 46.6077 100.38 46.7018 100.036 46.8399C99.7592 46.9499 99.5148 47.1289 99.3263 47.3599C99.1533 47.5937 99.0652 47.8793 99.0763 48.1699C99.0653 48.378 99.1061 48.5857 99.1952 48.7742C99.2842 48.9626 99.4185 49.1261 99.5862 49.2499C99.981 49.5071 100.445 49.6363 100.916 49.6199V49.6299ZM109.676 51.7699V39.3599H120.676V51.7599H117.356V42.0599H112.996V51.7599L109.676 51.7699ZM134.286 39.3699V51.7699H130.996V39.3599L134.286 39.3699ZM132.676 44.8099V47.5199C132.351 47.6566 132.017 47.7702 131.676 47.8599C131.264 47.9653 130.847 48.0488 130.426 48.1099C130.02 48.1756 129.608 48.209 129.196 48.2099C127.716 48.2766 126.25 47.8893 124.996 47.0999C124.461 46.6897 124.039 46.1511 123.768 45.534C123.497 44.9168 123.386 44.2412 123.446 43.5699V39.3399H126.726V43.5699C126.705 43.9655 126.791 44.3595 126.976 44.7099C127.161 45.0028 127.445 45.2194 127.776 45.3199C128.256 45.4452 128.751 45.5024 129.246 45.4899C129.814 45.4893 130.38 45.4324 130.936 45.3199C131.526 45.1824 132.107 45.0088 132.676 44.7999V44.8099ZM140.556 51.9999C139.826 52.0118 139.1 51.8722 138.426 51.5899C137.821 51.3321 137.304 50.905 136.936 50.3599C136.558 49.7412 136.37 49.0247 136.396 48.2999C136.377 47.6995 136.512 47.1041 136.786 46.5699C137.018 46.1142 137.362 45.7252 137.786 45.4399C138.248 45.1438 138.754 44.9243 139.286 44.7899C139.872 44.647 140.466 44.5468 141.066 44.4899L142.826 44.2799C143.177 44.2468 143.518 44.1413 143.826 43.9699C143.928 43.9079 144.011 43.8191 144.065 43.7133C144.12 43.6075 144.145 43.4887 144.136 43.3699C144.147 43.1492 144.109 42.9288 144.024 42.7247C143.939 42.5206 143.81 42.3379 143.646 42.1899C143.257 41.8855 142.769 41.7359 142.276 41.7699C141.745 41.7429 141.22 41.8866 140.776 42.1799C140.428 42.4218 140.17 42.774 140.046 43.1799L136.826 42.9199C136.984 42.179 137.328 41.4906 137.826 40.9199C138.334 40.3521 138.972 39.9162 139.686 39.6499C140.53 39.3352 141.426 39.1825 142.326 39.1999C143 39.1972 143.672 39.2778 144.326 39.4399C144.936 39.5867 145.515 39.8407 146.036 40.1899C146.529 40.5254 146.934 40.9747 147.216 41.4999C147.518 42.0865 147.666 42.7403 147.646 43.3999V51.7599H144.356V49.9999H144.256C144.054 50.3829 143.779 50.7226 143.446 50.9999C143.086 51.3034 142.672 51.5373 142.226 51.6899C141.691 51.8858 141.126 51.9906 140.556 51.9999ZM141.556 49.6299C142.024 49.6394 142.487 49.5365 142.906 49.3299C143.283 49.1427 143.603 48.86 143.836 48.5099C144.057 48.1598 144.171 47.7535 144.166 47.3399V45.9999C144.027 46.0859 143.875 46.15 143.716 46.1899C143.509 46.2551 143.299 46.3085 143.086 46.3499L142.386 46.4699L141.756 46.5599C141.389 46.6064 141.029 46.7006 140.686 46.8399C140.408 46.9475 140.163 47.1269 139.976 47.3599C139.8 47.5927 139.709 47.8783 139.716 48.1699C139.705 48.3792 139.746 48.588 139.837 48.7769C139.928 48.9658 140.065 49.1285 140.236 49.2499C140.628 49.5057 141.089 49.6349 141.556 49.6199V49.6299ZM155.996 51.9999C154.84 52.0305 153.697 51.7508 152.686 51.1899C151.773 50.6608 151.036 49.8748 150.566 48.9299C150.076 47.8865 149.822 46.7478 149.822 45.5949C149.822 44.442 150.076 43.3033 150.566 42.2599C151.042 41.3189 151.778 40.5345 152.686 39.9999C153.696 39.4373 154.841 39.1607 155.996 39.1999C156.985 39.1749 157.967 39.3767 158.866 39.7899C159.654 40.1524 160.328 40.7228 160.816 41.4399C161.305 42.1847 161.578 43.0497 161.606 43.9399H158.296C158.227 43.3755 157.97 42.8508 157.566 42.4499C157.359 42.2565 157.115 42.1064 156.849 42.0086C156.583 41.9107 156.3 41.8669 156.016 41.8799C155.512 41.869 155.018 42.0197 154.606 42.3099C154.187 42.6332 153.866 43.0657 153.676 43.5599C153.441 44.1998 153.329 44.8784 153.346 45.5599C153.334 46.2402 153.442 46.9174 153.666 47.5599C153.856 48.0592 154.182 48.4956 154.606 48.8199C155.017 49.1136 155.511 49.2679 156.016 49.2599C156.387 49.2669 156.754 49.1846 157.086 49.0199C157.408 48.8615 157.68 48.6198 157.876 48.3199C158.104 47.982 158.248 47.5946 158.296 47.1899H161.576C161.545 48.0811 161.275 48.9478 160.796 49.6999C160.323 50.4232 159.658 51.0012 158.876 51.3699C157.979 51.8026 156.992 52.0184 155.996 51.9999ZM162.996 42.0599V39.3599H174.356V42.0599H170.356V51.7599H166.996V42.0599H162.996ZM183.396 44.2599V46.9999H176.596V44.2599H183.396ZM179.286 39.3599V51.7599H175.816V39.3599H179.286ZM187.096 51.9999C185.971 52.0332 184.858 51.7491 183.886 51.1799C182.988 50.6333 182.263 49.8426 181.796 48.8999C181.297 47.8617 181.047 46.7215 181.066 45.5699C181.045 44.4212 181.295 43.2838 181.796 42.2499C182.264 41.3157 182.989 40.5349 183.886 39.9999C184.876 39.4746 185.98 39.1999 187.101 39.1999C188.222 39.1999 189.326 39.4746 190.316 39.9999C191.213 40.5324 191.936 41.3141 192.396 42.2499C192.902 43.2822 193.152 44.4207 193.126 45.5699C193.15 46.722 192.9 47.8633 192.396 48.8999C191.937 49.8441 191.214 50.6357 190.316 51.1799C189.342 51.7509 188.225 52.0351 187.096 51.9999ZM187.096 49.2199C187.657 49.2486 188.21 49.0864 188.666 48.7599C189.077 48.4207 189.379 47.9688 189.536 47.4599C189.732 46.8494 189.827 46.211 189.816 45.5699C189.828 44.932 189.734 44.2966 189.536 43.6899C189.384 43.1814 189.081 42.7314 188.666 42.3999C188.202 42.0933 187.658 41.9298 187.101 41.9298C186.545 41.9298 186.001 42.0933 185.536 42.3999C185.116 42.7259 184.806 43.1725 184.646 43.6799C184.447 44.2896 184.353 44.9286 184.366 45.5699C184.354 46.2111 184.449 46.8498 184.646 47.4599C184.81 47.9705 185.12 48.4222 185.536 48.7599C185.989 49.0849 186.539 49.2471 187.096 49.2199ZM194.756 51.7599V48.9999H195.166C195.435 49.0083 195.7 48.9351 195.926 48.7899C196.169 48.6127 196.357 48.3699 196.466 48.0899C196.63 47.6754 196.741 47.242 196.796 46.7999C196.894 46.1374 196.951 45.4694 196.966 44.7999L197.166 39.3099H206.706V51.7099H203.386V42.0099H200.296L200.096 45.7999C200.064 46.7041 199.937 47.6024 199.716 48.4799C199.556 49.1413 199.271 49.7659 198.876 50.3199C198.538 50.7735 198.091 51.1346 197.576 51.3699C197.02 51.6042 196.42 51.72 195.816 51.7099L194.756 51.7599ZM211.566 43.1699H215.316C216.709 43.0853 218.086 43.5041 219.196 44.3499C219.654 44.7295 220.018 45.2091 220.261 45.7519C220.503 46.2946 220.618 46.8858 220.596 47.4799C220.608 48.2719 220.389 49.0502 219.966 49.7199C219.513 50.3842 218.883 50.9075 218.146 51.2299C217.251 51.6033 216.286 51.7839 215.316 51.7599H209.386V39.3599H212.706V49.0499H215.316C215.828 49.0735 216.332 48.9218 216.746 48.6199C216.926 48.494 217.071 48.3261 217.171 48.1309C217.27 47.9356 217.32 47.719 217.316 47.4999C217.321 47.2736 217.272 47.0493 217.173 46.8457C217.074 46.6422 216.928 46.4654 216.746 46.3299C216.338 46.0143 215.832 45.8516 215.316 45.8699H211.566V43.1699ZM222.896 51.7599V39.3599H226.376V44.1699H227.376L230.786 39.3599H234.866L230.436 45.5099L234.916 51.7599H230.786L227.696 47.3599H226.396V51.7599H222.896ZM239.896 51.9899C239.162 52.0009 238.434 51.8614 237.756 51.5799C237.156 51.319 236.643 50.8923 236.276 50.3499C235.898 49.7312 235.71 49.0147 235.736 48.2899C235.719 47.6908 235.85 47.0968 236.116 46.5599C236.365 46.1005 236.726 45.7117 237.166 45.4299C237.628 45.1338 238.134 44.9143 238.666 44.7799C239.251 44.6362 239.846 44.5359 240.446 44.4799L242.206 44.2699C242.557 44.2368 242.898 44.1313 243.206 43.9599C243.305 43.8951 243.384 43.8055 243.437 43.7001C243.489 43.5948 243.513 43.4774 243.506 43.3599C243.519 43.1389 243.482 42.9179 243.397 42.7134C243.312 42.509 243.182 42.3266 243.016 42.1799C242.627 41.8755 242.139 41.7259 241.646 41.7599C241.119 41.7344 240.597 41.878 240.156 42.1699C239.805 42.4113 239.544 42.7633 239.416 43.1699L236.206 42.9099C236.355 42.1659 236.7 41.4753 237.206 40.9099C237.695 40.3549 238.309 39.9232 238.996 39.6499C239.84 39.3352 240.736 39.1825 241.636 39.1999C242.31 39.1972 242.982 39.2778 243.636 39.4399C244.244 39.5848 244.82 39.8389 245.336 40.1899C245.832 40.5251 246.24 40.9743 246.526 41.4999C246.828 42.0865 246.976 42.7403 246.956 43.3999V51.7599H243.656V49.9999H243.556C243.354 50.3802 243.083 50.7194 242.756 50.9999C242.394 51.3013 241.981 51.535 241.536 51.6899C241.023 51.8783 240.483 51.983 239.936 51.9999L239.896 51.9899ZM240.896 49.6199C241.364 49.6294 241.827 49.5265 242.246 49.3199C242.62 49.1325 242.937 48.8496 243.166 48.4999C243.394 48.1526 243.512 47.7451 243.506 47.3299V45.9999C243.367 46.0859 243.215 46.15 243.056 46.1899C242.849 46.2539 242.639 46.3073 242.426 46.3499L241.726 46.4699L241.086 46.5599C240.719 46.6077 240.36 46.7018 240.016 46.8399C239.739 46.9499 239.495 47.1289 239.306 47.3599C239.133 47.5937 239.045 47.8793 239.056 48.1699C239.045 48.378 239.086 48.5857 239.175 48.7742C239.264 48.9626 239.399 49.1261 239.566 49.2499C239.972 49.5152 240.452 49.6447 240.936 49.6199H240.896ZM70.7163 21.3599C70.1263 20.0672 69.4584 18.8116 68.7163 17.5999C68.4678 17.1523 68.0772 16.8004 67.6063 16.5999C67.1378 16.4012 66.6153 16.3694 66.1262 16.5099C64.9255 16.8418 63.7437 17.2391 62.5863 17.6999C62.1011 17.8924 61.6951 18.243 61.4338 18.6948C61.1725 19.1466 61.0712 19.6734 61.1463 20.1899C61.3163 21.7799 61.5763 23.9399 61.6263 24.3899C60.7163 24.7799 59.8162 25.1899 58.9362 25.6699L56.2562 22.6699C55.9374 22.2739 55.4929 21.9987 54.9963 21.8899C54.4986 21.8015 53.9857 21.8788 53.5363 22.1099C52.4163 22.6999 51.3562 23.3999 50.2962 24.0399C49.8713 24.3244 49.5543 24.7435 49.3963 25.2299C49.2263 25.7223 49.2263 26.2575 49.3963 26.7499C49.9163 28.3199 50.6462 30.4899 50.7262 30.7499C50.1862 31.1699 49.6462 31.5999 49.1162 32.0399L45.9963 29.7099C45.5982 29.3935 45.1047 29.2213 44.5962 29.2213C44.0878 29.2213 43.5943 29.3935 43.1963 29.7099C42.2254 30.5139 41.3006 31.3719 40.4263 32.2799C40.063 32.6434 39.8339 33.1193 39.7762 33.6299C39.7091 34.1397 39.8148 34.6572 40.0763 35.0999L42.1662 38.7699C40.8188 40.3253 39.5633 41.9581 38.4062 43.6599L38.6362 44.2599L39.0163 45.2599C39.1663 45.6299 39.3063 45.9999 39.4463 46.3699C39.5863 46.7399 39.6862 46.9999 39.7962 47.3699L40.1862 48.5199C40.3062 48.8999 40.3963 49.1599 40.5163 49.4599L40.8763 50.6399L41.1562 51.5799C41.2762 51.9899 41.3763 52.3899 41.4863 52.8599C41.5963 53.3299 41.6563 53.4799 41.7463 53.7899C41.8363 54.0999 41.8263 54.1899 41.8763 54.3799C44.6643 48.5242 48.6542 43.3214 53.5863 39.1099C58.477 34.9736 64.1944 31.9291 70.3563 30.1799C70.6659 28.2508 70.8463 26.3031 70.8963 24.3499V22.4899C70.8963 22.4899 70.7663 21.5899 70.7163 21.3599ZM70.2463 33.1699L69.8062 33.2899C69.3396 33.4232 68.8796 33.5632 68.4263 33.7099L67.1662 34.1199L66.7463 34.2999L65.9763 34.5999C65.814 34.6485 65.6567 34.7121 65.5063 34.7899L64.8062 35.0699L64.3162 35.2899C64.0874 35.3808 63.8637 35.4843 63.6463 35.5999L63.1562 35.8299L62.5163 36.1399L62.0262 36.4099L61.3963 36.7299L60.9062 37.0099L60.2962 37.3599L59.8162 37.6399L59.2163 38.0099L58.7463 38.3099L58.1463 38.6999L57.7062 38.9999L57.0763 39.4299L56.6662 39.7299L56.0363 40.2199L55.6763 40.4899L54.9562 41.0599L54.6963 41.2699L53.6963 42.0999L52.8162 42.9099L52.5363 43.1799L51.9162 43.7799L51.5863 44.1199L51.0262 44.6799L50.6862 45.0499C50.5062 45.2299 50.3463 45.4299 50.1763 45.6099L49.8162 45.9999C49.6696 46.1944 49.5092 46.3782 49.3363 46.5499L48.9963 46.9999L48.5363 47.5599L48.2062 47.9899L47.7663 48.5599L47.4463 48.9999L47.0262 49.5899L46.7163 50.0399L46.2962 50.6499L46.0062 51.0899C45.8762 51.3099 45.7363 51.5099 45.6063 51.7299C45.4763 51.9499 45.4262 52.0199 45.3462 52.1699L44.9263 52.8599L44.7062 53.2599L44.2562 54.0899L44.0863 54.3799C43.8963 54.7499 43.6962 55.1299 43.5262 55.5199L43.4062 55.7399C43.2762 56.0399 43.1263 56.3499 42.9863 56.6699C42.8463 56.9899 42.8562 56.9499 42.7962 57.0899L42.4762 57.8399C42.3762 58.0999 42.3462 58.1599 42.2762 58.3299L41.9963 58.9999L41.8063 59.5299C41.7463 59.6799 41.6963 59.8499 41.6263 59.9999C42.2663 59.8499 42.8862 59.6799 43.5262 59.4899L45.1862 58.9999C45.4262 58.9099 45.6762 58.8399 45.9162 58.7299L46.9162 58.3399L47.6463 58.0399L48.2663 57.7699L49.1263 57.3899L49.7363 57.0999L50.3963 56.7699H50.4663L50.8162 56.5899L51.5163 56.2199L52.3862 55.7199L53.2663 55.2099C53.9763 54.7599 54.7162 54.2699 55.4562 53.7599L56.1662 53.2299L56.5262 52.9699L57.3063 52.3699L57.9963 51.7999C57.8446 51.5738 57.7044 51.3401 57.5763 51.0999C57.3104 50.5233 57.1512 49.9033 57.1063 49.2699V48.6599C57.1937 47.3866 57.7537 46.1918 58.6763 45.3099C59.1349 44.8845 59.6668 44.5457 60.2463 44.3099C61.4055 43.8495 62.697 43.8495 63.8563 44.3099C64.1625 44.4371 64.457 44.5911 64.7362 44.7699L64.9862 44.4399L65.4663 43.7799L65.8563 43.2299C66.0363 42.9999 66.1862 42.7599 66.3462 42.5099L66.4363 42.3699L66.5562 42.1799L67.1962 41.1799C67.3701 40.9218 67.5303 40.6548 67.6763 40.3799C67.8263 40.0899 68.2262 39.3799 68.4862 38.9099C68.5862 38.7299 68.6862 38.5499 68.7662 38.3699C68.9962 37.9199 69.2263 37.4599 69.4363 36.9999C69.6463 36.5399 69.6762 36.4999 69.7762 36.2599L70.1563 35.3699L70.5063 34.4599C70.5404 34.3069 70.5942 34.1591 70.6662 34.0199C70.7162 33.8699 70.8062 33.6299 70.8762 33.4499L70.9562 33.1999L70.2463 33.1699Z" fill="#1570EF"/>
  <path fill-rule="evenodd" clip-rule="evenodd" d="M27.33 56.1101C27.2 55.6501 27.07 55.1801 26.92 54.7001C26.77 54.2201 26.65 53.8801 26.51 53.4201C26.4705 53.2798 26.4204 53.1428 26.36 53.0101L26.07 52.2601C26.0381 52.0908 25.9699 51.9305 25.87 51.7901C25.8 51.6401 25.7 51.3101 25.6 51.0701C25.5 50.8301 25.46 50.7401 25.38 50.5801C25.3 50.4201 25.19 50.1201 25.08 49.8901C24.97 49.6601 24.93 49.5601 24.86 49.3901L24.55 48.7401L24.29 48.2401L24 47.5901L23.38 46.5201L23.08 46.0001L22.72 45.3701L22.43 44.9101L22 44.3101L21.71 43.8701C21.58 43.6601 21.42 43.4501 21.29 43.2401L21 42.8201L20.53 42.1701C20.4334 42.0483 20.3433 41.9214 20.26 41.7901L19.69 41.0601L19.49 40.7201C19.21 40.3801 18.95 40.0501 18.67 39.7201L17.9 38.8201L17.62 38.5401L17.03 37.9001L16.7 37.5601C16.53 37.3701 16.34 37.1801 16.15 37.0001L15.79 36.6501L15.25 36.1301L14.86 35.7701L14.34 35.2401L14 34.9101C13.82 34.7401 13.63 34.5801 13.44 34.4301L13 34.0801L12.43 33.6401L12 33.3101L11.42 32.8801C11.27 32.7801 11.13 32.6601 10.98 32.5701C10.83 32.4801 10.58 32.2801 10.38 32.1501L10 31.8401L9.37 31.4401L8.94 31.1601L7.81 30.4501L7 30.0001L6.72 29.8501C6.36 29.6401 5.98 29.4501 5.6 29.2601L5.39 29.1801L4.47 28.7301L4 28.5401L3.27 28.2101L2.81 28.0001L2.14 27.7301L1.62 27.5301L1.16 27.3601C1.31 28.0001 1.47 28.6401 1.66 29.2901C1.73 29.5701 1.81 29.8001 1.88 30.0401L2.16 30.9401C2.25 31.2401 2.32 31.4401 2.42 31.6901C2.52 31.9401 2.69 32.4201 2.81 32.7801L3.1 33.5201L3.37 34.1501L3.74 35.0201C3.83 35.2401 3.93 35.4401 4.02 35.6501L4.35 36.3201C4.4 36.4401 4.46 36.5601 4.52 36.6801C4.66 36.9501 4.76 37.1601 4.89 37.3901L5.38 38.2901C5.54 38.6001 5.71 38.9001 5.88 39.1801C6.32 39.9201 6.79 40.6801 7.31 41.4201L7.81 42.1501L8.06 42.5301L8.65 43.3101L9.19 44.0001C9.40475 43.8446 9.63222 43.7074 9.87 43.5901C10.4608 43.3679 11.0891 43.2626 11.72 43.2801H12.32C12.9396 43.326 13.5442 43.4924 14.1 43.7701C14.6698 44.0396 15.1798 44.4204 15.6 44.8901C16.0323 45.351 16.3719 45.8908 16.6 46.4801C17.0336 47.665 17.0336 48.9652 16.6 50.1501C16.4782 50.457 16.3275 50.7517 16.15 51.0301L16.48 51.3001L17.12 51.7801L17.66 52.1901L18.36 52.6701L18.5 52.7801L18.69 52.9101L19.69 53.5601L20.48 54.0501C20.95 54.3301 21.48 54.6101 21.92 54.8701L22.44 55.1601L23.79 55.8401L24.52 56.1901H24.59L25.45 56.5701L26.34 56.9501L26.76 57.1101L27.33 57.3301L27.57 57.4201L27.34 56.5101L27.33 56.1101ZM40.12 59.0001C40.131 58.863 40.1069 58.7253 40.05 58.6001C40.0224 58.188 39.9555 57.7795 39.85 57.3801C39 52.7013 37.5445 48.153 35.52 43.8501L35.61 43.9901L38.61 40.9101C38.9583 40.5426 39.1792 40.0728 39.24 39.5701C39.3019 39.065 39.2003 38.5533 38.95 38.1101C38.2967 37.038 37.5891 36 36.83 35.0001C36.5271 34.5911 36.0986 34.2926 35.61 34.1501C35.1249 34.0112 34.6072 34.0394 34.14 34.2301L30.71 35.6101C30.5748 35.3955 30.4279 35.1885 30.27 34.9901L29.93 34.5201C29.78 34.3101 29.63 34.1001 29.47 33.9101C29.31 33.7201 29.23 33.5901 29.1 33.4401L28.65 32.8601L30.86 29.3101C31.1326 28.8709 31.2554 28.3551 31.21 27.8401C31.1674 27.3266 30.9565 26.8415 30.61 26.4601C29.7612 25.5263 28.8633 24.6384 27.92 23.8001C27.544 23.4621 27.0647 23.2612 26.56 23.2301C26.0527 23.1916 25.5476 23.3294 25.13 23.6201L21.92 25.8701L21.74 25.7101L21.21 25.2701L20.74 24.8501L20.2 24.4201L20 24.2701C20.27 23.6001 20.93 21.8701 21.43 20.5401C21.634 20.0519 21.6657 19.5088 21.52 19.0001C21.3728 18.5084 21.0713 18.0771 20.66 17.7701C19.66 17.0301 18.59 16.3301 17.51 15.6901C17.0708 15.4392 16.561 15.3408 16.06 15.4101C15.5584 15.4732 15.0948 15.7103 14.75 16.0801L12 19.0001L11.52 18.7401L10.83 18.3901L10.3 18.1301L9.65 17.8101L9.25 17.6501C9.32 17.1301 9.63 15.0901 9.84 13.5101C9.91005 12.9874 9.80453 12.4563 9.54 12.0001C9.29981 11.5498 8.91114 11.1964 8.44 11.0001C7.29095 10.5065 6.11588 10.0759 4.92 9.71011C4.44478 9.53992 3.92522 9.53992 3.45 9.71011C2.96529 9.90077 2.56218 10.2544 2.31 10.7101C1.39 12.2201 0.14 14.3301 0.1 14.3901C0.1 15.3901 0 16.3901 0 17.3901C8.87297e-05 19.3466 0.130377 21.3009 0.39 23.2401H0.51L1.14 23.4401L1.87 23.6901L2.49 23.9201L3.2 24.1701L3.82 24.4201L4.51 24.7101C4.72 24.7901 4.91 24.8801 5.11 24.9701L5.79 25.2601L6.39 25.5601L7.07 25.8801L7.65 26.1701L8.31 26.5201L8.89 26.8401L9.53 27.2001L10.1 27.5301L10.74 27.9201L11.29 28.2701L11.91 28.6601L13.06 29.4601L13.59 29.8401L14.18 30.2801L14.69 30.6801L15.27 31.1401L15.79 31.5501C15.98 31.7001 16.15 31.8701 16.35 32.0201L16.84 32.4601L17.38 32.9501L17.87 33.4001L18.4 33.9101C18.56 34.0501 18.71 34.2101 18.86 34.3601L19.39 34.8901L19.84 35.3601L20.35 35.9101L20.77 36.3901L21.26 36.9501L21.69 37.4501L22.16 38.0301L22.57 38.5401L23.02 39.1501L23.41 39.6601L23.85 40.2701L24.23 40.8001C24.37 41.0101 24.5 41.2201 24.65 41.4301C24.7789 41.6123 24.8958 41.8027 25 42.0001C25.11 42.1901 25.27 42.4201 25.4 42.6401C25.5039 42.8313 25.6208 43.015 25.75 43.1901L26.13 43.8601L26.45 44.4101C26.58 44.6401 26.7 44.8701 26.82 45.1001C26.94 45.3301 27.03 45.4801 27.12 45.6701C27.21 45.8601 27.37 46.1301 27.48 46.3601C27.59 46.5901 27.67 46.7501 27.76 46.9401C27.85 47.1301 28 47.4301 28.11 47.6701C28.22 47.9101 28.29 48.0401 28.36 48.2401C28.43 48.4401 28.59 48.7401 28.69 48.9901L28.94 49.5601C29.04 49.8301 29.14 50.1001 29.25 50.3701L29.46 50.9001C29.58 51.2001 29.68 51.5101 29.78 51.8101C29.8422 51.9568 29.8957 52.1071 29.94 52.2601C30.11 52.7301 30.26 53.1901 30.4 53.6501C30.54 54.1101 30.67 54.6501 30.8 55.0701C30.8151 55.2257 30.8557 55.3777 30.92 55.5201C30.97 55.6801 31.09 56.1901 31.16 56.5201C31.23 56.8501 31.25 56.8601 31.29 57.0201C31.33 57.1801 31.43 57.6801 31.49 58.0201C31.55 58.3601 31.57 58.3401 31.59 58.5001V58.7101L33.17 59.0701L33.75 59.1901H33.86L34.6 59.3301L35.22 59.4201L35.91 59.5201L36.6 59.6101L37.3 59.6901C37.535 59.6785 37.7704 59.6987 38 59.7501H38.57L40.24 59.9701V59.8701C40.2 59.5801 40.15 59.3101 40.12 59.0001ZM44.32 1.83011C43.631 1.1454 42.8502 0.559792 42 0.0901089C41.9235 0.0363848 41.8334 0.00520422 41.74 0.000108882C41.6484 -0.00184155 41.5582 0.0224476 41.48 0.0701089C41.3993 0.121026 41.3309 0.189361 41.28 0.270109C41.2371 0.353868 41.2132 0.446057 41.21 0.540109V8.54011C41.2009 8.83506 41.0834 9.11631 40.88 9.33011C40.6804 9.53776 40.4079 9.65968 40.12 9.67011H34.55C34.2594 9.65915 33.9839 9.53752 33.78 9.33011C33.5771 9.12406 33.4593 8.84914 33.45 8.56011V0.540109C33.4413 0.444348 33.4105 0.351913 33.36 0.270109C33.3117 0.189925 33.2426 0.124281 33.16 0.0801089C33.0824 0.0299257 32.9924 0.00223411 32.9 0.000108882C32.8067 -0.000138105 32.7144 0.0203557 32.63 0.0601089C31.7692 0.568531 30.9734 1.17968 30.26 1.88011C29.2634 2.88974 28.493 4.09986 28 5.43011C27.5046 6.75813 27.2934 8.17534 27.38 9.59011C27.4529 11.0027 27.8217 12.3842 28.4626 13.6452C29.1034 14.9062 30.0019 16.0185 31.1 16.9101C31.705 17.4262 32.378 17.8569 33.1 18.1901H41.53C42.263 17.8487 42.9515 17.4188 43.58 16.9101C44.6734 16.0163 45.5661 14.9021 46.2 13.6401C46.8304 12.3682 47.1913 10.9798 47.2601 9.56186C47.3289 8.14396 47.1042 6.72712 46.6 5.40011C46.0964 4.07633 45.3196 2.87353 44.32 1.87011V1.83011ZM39.09 20.0001H35.54C35.2951 20.0054 35.0621 20.107 34.8918 20.283C34.7214 20.459 34.6273 20.6952 34.63 20.9401V25.5301C34.6273 25.7751 34.7214 26.0112 34.8918 26.1872C35.0621 26.3632 35.2951 26.4649 35.54 26.4701H39.09C39.3349 26.4649 39.5679 26.3632 39.7382 26.1872C39.9086 26.0112 40.0027 25.7751 40 25.5301V21.0001C40.0095 20.8739 39.9932 20.747 39.952 20.6274C39.9109 20.5077 39.8457 20.3976 39.7605 20.304C39.6753 20.2104 39.5719 20.1352 39.4566 20.0829C39.3413 20.0306 39.2166 20.0025 39.09 20.0001Z" fill="#2E90FA"/>
</svg>