<svg xmlns="http://www.w3.org/2000/svg" width="248" height="60" viewBox="0 0 248 60" fill="none">
  <path d="M81 30V27.16H81.54C81.6712 27.0183 81.7884 26.8642 81.89 26.7C81.9949 26.5167 82.0787 26.3221 82.14 26.12C82.2227 25.8481 82.2861 25.5708 82.33 25.29C82.33 24.96 82.42 24.57 82.46 24.1L82.68 21.48H86.83V27.16H87.83V30H86.83V28.1H82V30H81ZM82.68 27.16H85.83V22.43H83.62L83.45 24.1C83.38 24.8 83.29 25.4 83.19 25.92C83.111 26.3651 82.937 26.7881 82.68 27.16ZM88.59 28.1V27.16H88.83C89.0014 27.167 89.1712 27.1254 89.32 27.04C89.4658 26.937 89.5745 26.7897 89.63 26.62C89.7346 26.351 89.7987 26.0679 89.82 25.78C89.87 25.43 89.9 24.97 89.92 24.41L90 21.48H94.35V28.1H93.35V22.43H91L90.9 24.79C90.8866 25.2731 90.8364 25.7545 90.75 26.23C90.6917 26.5769 90.5839 26.9137 90.43 27.23C90.2997 27.4903 90.0987 27.7086 89.85 27.86C89.5704 28.0088 89.2565 28.0813 88.94 28.07L88.59 28.1ZM100.16 28.1V22.41H98.43C98.0972 22.3953 97.7693 22.494 97.5 22.69C97.3906 22.783 97.304 22.8999 97.2467 23.0317C97.1895 23.1634 97.1633 23.3065 97.17 23.45C97.1665 23.5873 97.1913 23.7239 97.2429 23.8512C97.2945 23.9786 97.3718 24.0939 97.47 24.19C97.7025 24.3898 98.0041 24.4903 98.31 24.47H100.42V25.41H98.31C97.9145 25.4182 97.522 25.3397 97.16 25.18C96.8538 25.0282 96.5971 24.7923 96.42 24.5C96.2462 24.1779 96.16 23.8159 96.17 23.45C96.1616 23.0818 96.255 22.7185 96.44 22.4C96.6245 22.0991 96.8967 21.8618 97.22 21.72C97.6006 21.5514 98.0139 21.4694 98.43 21.48H101.11V28.1H100.16ZM95.81 28.1L97.66 24.81H98.75L96.9 28.1H95.81ZM108.25 28.26C107.86 28.2657 107.474 28.1837 107.12 28.02C106.792 27.8722 106.514 27.6325 106.32 27.33C106.114 26.9973 106.009 26.6114 106.02 26.22C106.004 25.8986 106.081 25.5795 106.24 25.3C106.385 25.0653 106.588 24.8723 106.83 24.74C107.09 24.6059 107.365 24.5051 107.65 24.44C107.95 24.37 108.25 24.32 108.55 24.28C108.85 24.24 109.27 24.19 109.55 24.16C109.737 24.1457 109.92 24.0983 110.09 24.02C110.15 23.9845 110.199 23.9328 110.23 23.8709C110.262 23.809 110.276 23.7394 110.27 23.67C110.288 23.4857 110.264 23.2998 110.2 23.1259C110.137 22.952 110.035 22.7945 109.903 22.665C109.77 22.5355 109.611 22.4374 109.436 22.3776C109.26 22.3179 109.074 22.2982 108.89 22.32C108.488 22.2981 108.091 22.4107 107.76 22.64C107.518 22.8177 107.323 23.0509 107.19 23.32L106.19 22.98C106.331 22.6126 106.565 22.2885 106.87 22.04C107.143 21.8164 107.46 21.6529 107.8 21.56C108.365 21.41 108.956 21.3895 109.53 21.5C109.811 21.5513 110.079 21.6566 110.32 21.81C110.595 21.982 110.819 22.2235 110.97 22.51C111.154 22.9036 111.24 23.336 111.22 23.77V28.1H110.22V27.21C110.126 27.3767 110.012 27.5312 109.88 27.67C109.694 27.8482 109.477 27.9906 109.24 28.09C108.925 28.2142 108.588 28.272 108.25 28.26ZM108.4 27.34C108.748 27.3555 109.094 27.276 109.4 27.11C109.654 26.9752 109.867 26.7736 110.015 26.5269C110.163 26.2802 110.241 25.9977 110.24 25.71V24.78C110.159 24.8488 110.063 24.8968 109.96 24.92L109.46 25.03L108.92 25.1L108.5 25.16C108.252 25.191 108.008 25.2446 107.77 25.32C107.565 25.3886 107.38 25.5051 107.23 25.66C107.083 25.832 107.008 26.054 107.02 26.28C107.011 26.4356 107.042 26.5909 107.111 26.7309C107.179 26.871 107.282 26.9912 107.41 27.08C107.705 27.2663 108.051 27.3571 108.4 27.34ZM113.07 28.1V21.48H115.74C116.34 21.446 116.933 21.6189 117.42 21.97C117.618 22.1162 117.777 22.308 117.885 22.5291C117.993 22.7502 118.046 22.9941 118.04 23.24C118.05 23.4124 118.024 23.5849 117.963 23.7466C117.903 23.9084 117.81 24.056 117.69 24.18C117.432 24.4061 117.117 24.5582 116.78 24.62C117.029 24.6585 117.267 24.7469 117.48 24.88C117.712 25.0225 117.908 25.2178 118.05 25.45C118.209 25.7154 118.289 26.0207 118.28 26.33C118.283 26.6521 118.193 26.9681 118.02 27.24C117.841 27.5146 117.588 27.733 117.29 27.87C116.933 28.0345 116.543 28.1133 116.15 28.1H113.07ZM114.07 27.17H116.19C116.482 27.1908 116.771 27.1017 117 26.92C117.099 26.8378 117.178 26.7335 117.23 26.6155C117.282 26.4974 117.306 26.3689 117.3 26.24C117.316 26.0908 117.298 25.9398 117.248 25.7984C117.198 25.6569 117.116 25.5286 117.01 25.423C116.903 25.3173 116.774 25.237 116.632 25.188C116.49 25.139 116.339 25.1226 116.19 25.14H114L114.07 27.17ZM114.07 24.26H115.78C116.018 24.2632 116.255 24.2261 116.48 24.15C116.655 24.0833 116.807 23.969 116.92 23.82C117.026 23.6713 117.082 23.4927 117.08 23.31C117.084 23.1805 117.053 23.0523 116.992 22.9382C116.93 22.8242 116.84 22.7282 116.73 22.66C116.435 22.4658 116.082 22.3776 115.73 22.41H114L114.07 24.26ZM119.46 22.43V21.48H124.77V22.43H122.63V28.1H121.63V22.43H119.46ZM128.55 28.24C128.002 28.2537 127.463 28.104 127 27.81C126.561 27.5153 126.215 27.1028 126 26.62C125.74 26.0599 125.614 25.4472 125.63 24.83C125.615 24.2064 125.741 23.5875 126 23.02C126.217 22.5361 126.563 22.121 127 21.82C127.47 21.5449 128.005 21.4 128.55 21.4C129.095 21.4 129.63 21.5449 130.1 21.82C130.538 22.1202 130.884 22.5355 131.1 23.02C131.362 23.5867 131.492 24.2057 131.48 24.83C131.493 25.448 131.363 26.0607 131.1 26.62C130.877 27.1142 130.514 27.5317 130.055 27.8199C129.596 28.1081 129.062 28.2543 128.52 28.24H128.55ZM128.55 27.33C128.946 27.3452 129.335 27.2214 129.65 26.98C129.948 26.7397 130.173 26.4211 130.3 26.06C130.439 25.6651 130.507 25.2486 130.5 24.83C130.507 24.4081 130.439 23.9883 130.3 23.59C130.171 23.2274 129.946 22.9062 129.65 22.66C129.335 22.4186 128.946 22.2948 128.55 22.31C128.151 22.295 127.758 22.4186 127.44 22.66C127.147 22.9068 126.926 23.2281 126.8 23.59C126.658 23.9878 126.586 24.4075 126.59 24.83C126.586 25.2492 126.658 25.6657 126.8 26.06C126.921 26.4214 127.143 26.7406 127.44 26.98C127.748 27.2127 128.124 27.3359 128.51 27.33H128.55ZM136.41 28.1V21.48H137.41V28.1H136.41ZM136.92 20.38C136.73 20.3821 136.548 20.3103 136.41 20.18C136.341 20.1163 136.286 20.039 136.248 19.953C136.21 19.8669 136.191 19.774 136.191 19.68C136.191 19.586 136.21 19.4931 136.248 19.407C136.286 19.321 136.341 19.2437 136.41 19.18C136.546 19.0549 136.725 18.9855 136.91 18.9855C137.095 18.9855 137.274 19.0549 137.41 19.18C137.479 19.2437 137.534 19.321 137.572 19.407C137.61 19.4931 137.629 19.586 137.629 19.68C137.629 19.774 137.61 19.8669 137.572 19.953C137.534 20.039 137.479 20.1163 137.41 20.18C137.34 20.2474 137.257 20.2999 137.165 20.3343C137.074 20.3687 136.977 20.3842 136.88 20.38H136.92ZM145.27 28.24C144.711 28.2531 144.161 28.1 143.69 27.8C143.251 27.4967 142.905 27.0779 142.69 26.59C142.441 26.0372 142.318 25.4361 142.33 24.83C142.315 24.2161 142.442 23.6071 142.7 23.05C142.913 22.561 143.26 22.1418 143.7 21.84C144.156 21.538 144.694 21.3843 145.24 21.4C145.671 21.3903 146.099 21.4792 146.49 21.66C146.845 21.8219 147.154 22.0693 147.39 22.38C147.631 22.6979 147.783 23.0741 147.83 23.47H146.83C146.744 23.1553 146.567 22.8733 146.32 22.66C146.021 22.4174 145.644 22.2929 145.26 22.31C144.903 22.3082 144.554 22.4165 144.26 22.62C143.954 22.838 143.718 23.1403 143.58 23.49C143.408 23.9015 143.323 24.3441 143.33 24.79C143.32 25.2482 143.402 25.7037 143.57 26.13C143.709 26.4817 143.945 26.7869 144.25 27.01C144.543 27.2159 144.892 27.3276 145.25 27.33C145.494 27.3319 145.735 27.2843 145.96 27.19C146.17 27.1021 146.355 26.9649 146.5 26.79C146.651 26.6096 146.761 26.3978 146.82 26.17H147.82C147.765 26.5513 147.621 26.9144 147.4 27.23C147.172 27.5454 146.87 27.7997 146.52 27.97C146.117 28.1592 145.675 28.2517 145.23 28.24H145.27ZM149.27 28.1V21.48H150.27V28.1H149.27ZM149.78 20.38C149.59 20.3821 149.408 20.3103 149.27 20.18C149.201 20.1163 149.146 20.039 149.108 19.953C149.07 19.8669 149.051 19.774 149.051 19.68C149.051 19.586 149.07 19.4931 149.108 19.407C149.146 19.321 149.201 19.2437 149.27 19.18C149.406 19.0549 149.585 18.9855 149.77 18.9855C149.955 18.9855 150.134 19.0549 150.27 19.18C150.339 19.2437 150.394 19.321 150.432 19.407C150.47 19.4931 150.489 19.586 150.489 19.68C150.489 19.774 150.47 19.8669 150.432 19.953C150.394 20.039 150.339 20.1163 150.27 20.18C150.138 20.3065 149.963 20.378 149.78 20.38ZM151.53 28.1V27.16H151.77C151.941 27.1654 152.111 27.1239 152.26 27.04C152.406 26.937 152.515 26.7897 152.57 26.62C152.67 26.3495 152.734 26.0671 152.76 25.78C152.76 25.43 152.84 24.97 152.86 24.41L152.98 21.48H157.33V28.1H156.33V22.43H153.93L153.83 24.79C153.812 25.2728 153.762 25.7538 153.68 26.23C153.623 26.5786 153.512 26.916 153.35 27.23C153.227 27.4919 153.028 27.7111 152.78 27.86C152.5 28.0088 152.187 28.0813 151.87 28.07L151.53 28.1ZM160 23.88H161.87C162.511 23.8382 163.143 24.0501 163.63 24.47C163.829 24.6646 163.985 24.8984 164.088 25.1567C164.192 25.415 164.24 25.692 164.23 25.97C164.233 26.3471 164.14 26.7188 163.96 27.05C163.771 27.377 163.494 27.644 163.16 27.82C162.76 28.0198 162.317 28.1161 161.87 28.1H159.13V21.48H160.13V27.16H161.86C162.221 27.1773 162.576 27.0637 162.86 26.84C162.983 26.7427 163.082 26.6178 163.148 26.4754C163.214 26.3329 163.245 26.1769 163.24 26.02C163.244 25.8575 163.212 25.6961 163.147 25.5474C163.081 25.3986 162.983 25.2664 162.86 25.16C162.58 24.9286 162.223 24.8108 161.86 24.83H160V23.88ZM169.79 21.48V22.43H166.79V28.1H165.79V21.48H169.79ZM173.57 28.24C173.022 28.2525 172.483 28.1029 172.02 27.81C171.584 27.5125 171.238 27.1008 171.02 26.62C170.766 26.058 170.639 25.4467 170.65 24.83C170.631 24.2017 170.75 23.5768 171 23C171.222 22.5187 171.567 22.1047 172 21.8C172.47 21.5249 173.005 21.38 173.55 21.38C174.095 21.38 174.63 21.5249 175.1 21.8C175.537 22.101 175.883 22.5161 176.1 23C176.359 23.5675 176.485 24.1864 176.47 24.81C176.486 25.4272 176.36 26.0399 176.1 26.6C175.885 27.0828 175.539 27.4953 175.1 27.79C174.657 28.0798 174.14 28.236 173.61 28.24H173.57ZM173.57 27.33C173.969 27.345 174.362 27.2214 174.68 26.98C174.977 26.7406 175.199 26.4214 175.32 26.06C175.462 25.6657 175.534 25.2492 175.53 24.83C175.534 24.4075 175.462 23.9878 175.32 23.59C175.194 23.2281 174.973 22.9068 174.68 22.66C174.362 22.4186 173.969 22.295 173.57 22.31C173.174 22.2948 172.785 22.4186 172.47 22.66C172.174 22.904 171.952 23.2262 171.83 23.59C171.688 23.9878 171.616 24.4075 171.62 24.83C171.616 25.2492 171.688 25.6657 171.83 26.06C171.951 26.4214 172.173 26.7406 172.47 26.98C172.795 27.2305 173.2 27.3548 173.61 27.33H173.57ZM180.72 28.24C180.17 28.2564 179.628 28.1081 179.163 27.8141C178.698 27.5201 178.331 27.0939 178.11 26.59C177.869 26.0349 177.75 25.4349 177.76 24.83C177.747 24.2174 177.87 23.6096 178.12 23.05C178.337 22.5629 178.682 22.1445 179.12 21.84C179.58 21.5384 180.121 21.3849 180.67 21.4C181.098 21.3901 181.522 21.479 181.91 21.66C182.268 21.8216 182.58 22.0689 182.82 22.38C183.057 22.7002 183.208 23.0753 183.26 23.47H182.26C182.175 23.1258 181.972 22.822 181.688 22.6104C181.403 22.3988 181.054 22.2926 180.7 22.31C180.343 22.3069 179.993 22.4153 179.7 22.62C179.392 22.8391 179.153 23.1407 179.01 23.49C178.841 23.9022 178.76 24.3448 178.77 24.79C178.76 25.2482 178.842 25.7037 179.01 26.13C179.149 26.4817 179.385 26.7869 179.69 27.01C179.982 27.2171 180.332 27.3288 180.69 27.33C180.934 27.3319 181.175 27.2843 181.4 27.19C181.61 27.1021 181.795 26.9649 181.94 26.79C182.088 26.6088 182.194 26.3971 182.25 26.17H183.25C183.196 26.5532 183.048 26.9173 182.82 27.23C182.615 27.5511 182.333 27.8158 182 28C181.611 28.1741 181.186 28.2562 180.76 28.24H180.72ZM184.72 28.1V21.48H189.86V28.1H188.86V22.43H185.8V28.1H184.72ZM194.72 22.43V21.48H200.02V22.43H197.88V28.1H196.88V22.43H194.72ZM203.89 28.24C203.318 28.2546 202.754 28.1091 202.26 27.82C201.804 27.5316 201.439 27.1187 201.21 26.63C200.95 26.0699 200.824 25.4572 200.84 24.84C200.827 24.2231 200.953 23.6111 201.21 23.05C201.424 22.561 201.77 22.1418 202.21 21.84C202.666 21.5398 203.204 21.3863 203.75 21.4C204.091 21.3983 204.429 21.4558 204.75 21.57C205.091 21.6865 205.402 21.8779 205.66 22.13C205.949 22.4103 206.171 22.7521 206.31 23.13C206.483 23.6313 206.564 24.1598 206.55 24.69V25.12H201.55V24.24H205.55C205.558 23.8939 205.482 23.5509 205.33 23.24C205.191 22.9547 204.976 22.7128 204.71 22.54C204.408 22.362 204.06 22.2752 203.71 22.29C203.354 22.2878 203.006 22.3923 202.71 22.59C202.423 22.7872 202.192 23.0561 202.04 23.37C201.887 23.681 201.808 24.0234 201.81 24.37V25C201.796 25.4368 201.881 25.8711 202.06 26.27C202.214 26.6005 202.465 26.8761 202.78 27.06C203.106 27.2452 203.475 27.3385 203.85 27.33C204.091 27.3316 204.331 27.2945 204.56 27.22C204.769 27.1433 204.96 27.0241 205.12 26.87C205.282 26.7058 205.405 26.5077 205.48 26.29L206.48 26.57C206.383 26.902 206.204 27.2045 205.96 27.45C205.71 27.7071 205.406 27.9053 205.07 28.03C204.706 28.169 204.32 28.2402 203.93 28.24H203.89ZM208.69 21.48L210.26 24.19L211.82 21.48H213L210.89 24.79L213 28.1H211.84L210.28 25.53L208.71 28.1H207.55L209.63 24.79L207.55 21.48H208.69ZM218.78 24.33V25.33H215.17V24.33H218.78ZM215.41 21.48V28.1H214.41V21.48H215.41ZM219.55 21.48V28.1H218.55V21.48H219.55ZM221.38 28.1V21.48H222.38V28.1H221.38ZM221.89 20.38C221.701 20.381 221.518 20.3095 221.38 20.18C221.311 20.1163 221.256 20.039 221.218 19.953C221.18 19.8669 221.161 19.774 221.161 19.68C221.161 19.586 221.18 19.4931 221.218 19.407C221.256 19.321 221.311 19.2437 221.38 19.18C221.518 19.0505 221.701 18.979 221.89 18.98C222.076 18.9795 222.255 19.0512 222.39 19.18C222.459 19.2437 222.514 19.321 222.552 19.407C222.59 19.4931 222.609 19.586 222.609 19.68C222.609 19.774 222.59 19.8669 222.552 19.953C222.514 20.039 222.459 20.1163 222.39 20.18C222.266 20.2996 222.102 20.3706 221.93 20.38H221.89ZM224.22 28.1V21.48H225.22V24.36H225.89L228.23 21.48H229.53L226.89 24.67L229.56 28.1H228.27L226.13 25.31H225.22V28.1H224.22ZM231.66 26.6L234.8 21.48H236V28.1H235V23L231.87 28.12H230.69V21.48H231.69L231.66 26.6Z" fill="#6B7075"/>
  <path d="M87.34 52C86.2219 52.0235 85.1114 51.8122 84.08 51.38C83.1957 51.0078 82.4236 50.4115 81.84 49.65C81.2929 48.905 80.9985 48.0044 81 47.08H84.56C84.5722 47.4709 84.7127 47.847 84.96 48.15C85.2277 48.4653 85.5721 48.7063 85.96 48.85C86.406 49.0236 86.8815 49.1085 87.36 49.1C87.8513 49.1108 88.3391 49.0153 88.79 48.82C89.1865 48.6531 89.5316 48.3839 89.79 48.04C90.0238 47.6988 90.1461 47.2936 90.14 46.88C90.1443 46.459 90.0109 46.0481 89.76 45.71C89.4903 45.3452 89.1228 45.0644 88.7 44.9C88.1595 44.6868 87.5806 44.588 87 44.61H85.47V42.05H87C87.4848 42.0608 87.9661 41.9652 88.41 41.77C88.8104 41.6197 89.158 41.3555 89.41 41.01C89.6363 40.6733 89.7549 40.2757 89.75 39.87C89.7624 39.4812 89.6612 39.0972 89.4587 38.7651C89.2562 38.433 88.9613 38.1671 88.61 38C88.2244 37.8116 87.799 37.719 87.37 37.73C86.9197 37.7214 86.4729 37.8101 86.06 37.99C85.6622 38.1246 85.3138 38.3754 85.06 38.71C84.818 39.0229 84.6814 39.4046 84.67 39.8H81.33C81.3368 38.894 81.6271 38.0128 82.16 37.28C82.7179 36.5372 83.4586 35.9515 84.31 35.58C85.2837 35.1699 86.3338 34.9721 87.39 35C88.4235 34.9826 89.448 35.1944 90.39 35.62C91.192 35.9957 91.8815 36.5749 92.39 37.3C92.8765 37.9893 93.1289 38.8165 93.11 39.66C93.1374 40.0859 93.078 40.513 92.9353 40.9152C92.7926 41.3175 92.5697 41.6865 92.28 42C91.6692 42.6264 90.8668 43.0312 90 43.15V43.28C91.0574 43.3575 92.0531 43.8075 92.81 44.55C93.1411 44.889 93.4003 45.2914 93.5722 45.733C93.744 46.1746 93.8249 46.6464 93.81 47.12C93.8315 48.0242 93.546 48.909 93 49.63C92.4041 50.3934 91.6177 50.9866 90.72 51.35C89.651 51.8002 88.4997 52.0216 87.34 52ZM99.92 52C99.1861 52.011 98.4578 51.8715 97.78 51.59C97.1797 51.3291 96.6663 50.9024 96.3 50.36C95.9215 49.7413 95.7336 49.0248 95.76 48.3C95.7431 47.7009 95.8736 47.1069 96.14 46.57C96.3716 46.1143 96.7158 45.7253 97.14 45.44C97.6017 45.1439 98.1082 44.9244 98.64 44.79C99.2251 44.6463 99.8201 44.5461 100.42 44.49L102.18 44.28C102.531 44.2469 102.872 44.1414 103.18 43.97C103.278 43.9052 103.358 43.8156 103.411 43.7102C103.463 43.6049 103.487 43.4876 103.48 43.37C103.493 43.149 103.456 42.928 103.371 42.7236C103.286 42.5191 103.156 42.3367 102.99 42.19C102.601 41.8856 102.113 41.736 101.62 41.77C101.092 41.7445 100.57 41.8881 100.13 42.18C99.7787 42.4214 99.5182 42.7734 99.39 43.18L96.18 42.92C96.3288 42.176 96.6741 41.4855 97.18 40.92C97.6776 40.3586 98.3014 39.9233 99 39.65C99.8476 39.3361 100.746 39.1835 101.65 39.2C102.324 39.1979 102.996 39.2785 103.65 39.44C104.257 39.5849 104.833 39.839 105.35 40.19C105.846 40.5252 106.254 40.9744 106.54 41.5C106.838 42.0882 106.985 42.7409 106.97 43.4V51.76H103.67V50H103.57C103.368 50.3803 103.097 50.7195 102.77 51C102.408 51.3014 101.995 51.5352 101.55 51.69C101.027 51.8816 100.477 51.9863 99.92 52ZM100.92 49.63C101.388 49.6395 101.851 49.5367 102.27 49.33C102.644 49.1426 102.961 48.8597 103.19 48.51C103.418 48.1627 103.536 47.7552 103.53 47.34V46C103.391 46.086 103.239 46.1501 103.08 46.19C102.89 46.25 102.68 46.3 102.45 46.35L101.75 46.47L101.11 46.56C100.743 46.6079 100.383 46.7019 100.04 46.84C99.7629 46.95 99.5185 47.129 99.33 47.36C99.1571 47.5938 99.0689 47.8794 99.08 48.17C99.069 48.3782 99.1099 48.5858 99.1989 48.7743C99.2879 48.9628 99.4223 49.1262 99.59 49.25C99.9847 49.5072 100.449 49.6364 100.92 49.62V49.63ZM109.68 51.77V39.36H120.68V51.76H117.36V42.06H113V51.76L109.68 51.77ZM134.29 39.37V51.77H131V39.36L134.29 39.37ZM132.68 44.81V47.52C132.355 47.6567 132.021 47.7703 131.68 47.86C131.268 47.9654 130.851 48.0489 130.43 48.11C130.023 48.1757 129.612 48.2091 129.2 48.21C127.72 48.2767 126.254 47.8894 125 47.1C124.465 46.6898 124.043 46.1512 123.772 45.5341C123.501 44.9169 123.39 44.2413 123.45 43.57V39.34H126.73V43.57C126.709 43.9656 126.795 44.3596 126.98 44.71C127.165 45.0029 127.449 45.2195 127.78 45.32C128.26 45.4453 128.754 45.5025 129.25 45.49C129.818 45.4894 130.384 45.4325 130.94 45.32C131.53 45.1825 132.111 45.0089 132.68 44.8V44.81ZM140.56 52C139.829 52.0119 139.104 51.8723 138.43 51.59C137.825 51.3322 137.308 50.9051 136.94 50.36C136.561 49.7413 136.374 49.0248 136.4 48.3C136.381 47.6996 136.515 47.1042 136.79 46.57C137.022 46.1143 137.366 45.7253 137.79 45.44C138.252 45.1439 138.758 44.9244 139.29 44.79C139.875 44.6471 140.47 44.5469 141.07 44.49L142.83 44.28C143.181 44.2469 143.522 44.1414 143.83 43.97C143.932 43.908 144.014 43.8192 144.069 43.7134C144.124 43.6076 144.148 43.4888 144.14 43.37C144.151 43.1493 144.113 42.9289 144.028 42.7248C143.943 42.5207 143.814 42.338 143.65 42.19C143.261 41.8856 142.773 41.736 142.28 41.77C141.749 41.743 141.223 41.8867 140.78 42.18C140.431 42.4219 140.174 42.7742 140.05 43.18L136.83 42.92C136.988 42.1791 137.332 41.4907 137.83 40.92C138.338 40.3522 138.976 39.9163 139.69 39.65C140.534 39.3353 141.43 39.1826 142.33 39.2C143.004 39.1973 143.676 39.2779 144.33 39.44C144.94 39.5868 145.519 39.8408 146.04 40.19C146.533 40.5255 146.938 40.9749 147.22 41.5C147.522 42.0866 147.67 42.7404 147.65 43.4V51.76H144.36V50H144.26C144.058 50.383 143.783 50.7227 143.45 51C143.09 51.3035 142.676 51.5374 142.23 51.69C141.695 51.886 141.13 51.9907 140.56 52ZM141.56 49.63C142.028 49.6395 142.491 49.5367 142.91 49.33C143.286 49.1428 143.607 48.8601 143.84 48.51C144.06 48.1599 144.175 47.7536 144.17 47.34V46C144.031 46.086 143.879 46.1501 143.72 46.19C143.513 46.2552 143.303 46.3086 143.09 46.35L142.39 46.47L141.76 46.56C141.393 46.6066 141.033 46.7007 140.69 46.84C140.412 46.9476 140.167 47.127 139.98 47.36C139.804 47.5928 139.713 47.8784 139.72 48.17C139.708 48.3793 139.75 48.5881 139.841 48.777C139.932 48.9659 140.069 49.1286 140.24 49.25C140.632 49.5058 141.092 49.635 141.56 49.62V49.63ZM156 52C154.844 52.0306 153.701 51.7509 152.69 51.19C151.777 50.6609 151.04 49.8749 150.57 48.93C150.08 47.8866 149.825 46.7479 149.825 45.595C149.825 44.4421 150.08 43.3034 150.57 42.26C151.045 41.319 151.781 40.5346 152.69 40C153.7 39.4374 154.844 39.1608 156 39.2C156.989 39.175 157.971 39.3768 158.87 39.79C159.658 40.1525 160.332 40.7229 160.82 41.44C161.308 42.1848 161.582 43.0499 161.61 43.94H158.3C158.23 43.3756 157.973 42.8509 157.57 42.45C157.363 42.2566 157.119 42.1065 156.852 42.0087C156.586 41.9108 156.303 41.867 156.02 41.88C155.516 41.8691 155.022 42.0198 154.61 42.31C154.191 42.6333 153.869 43.0658 153.68 43.56C153.445 44.1999 153.333 44.8785 153.35 45.56C153.337 46.2403 153.446 46.9175 153.67 47.56C153.86 48.0593 154.186 48.4957 154.61 48.82C155.021 49.1138 155.515 49.268 156.02 49.26C156.391 49.267 156.758 49.1847 157.09 49.02C157.411 48.8616 157.684 48.6199 157.88 48.32C158.108 47.9821 158.252 47.5947 158.3 47.19H161.58C161.549 48.0813 161.279 48.9479 160.8 49.7C160.327 50.4233 159.662 51.0013 158.88 51.37C157.983 51.8027 156.996 52.0185 156 52ZM163 42.06V39.36H174.36V42.06H170.36V51.76H167V42.06H163ZM183.4 44.26V47H176.6V44.26H183.4ZM179.29 39.36V51.76H175.82V39.36H179.29ZM187.1 52C185.974 52.0334 184.862 51.7492 183.89 51.18C182.991 50.6334 182.267 49.8427 181.8 48.9C181.301 47.8618 181.051 46.7216 181.07 45.57C181.049 44.4213 181.299 43.2839 181.8 42.25C182.268 41.3158 182.993 40.535 183.89 40C184.88 39.4747 185.984 39.2 187.105 39.2C188.226 39.2 189.33 39.4747 190.32 40C191.217 40.5325 191.939 41.3142 192.4 42.25C192.906 43.2823 193.156 44.4209 193.13 45.57C193.154 46.7221 192.903 47.8634 192.4 48.9C191.94 49.8442 191.218 50.6358 190.32 51.18C189.345 51.751 188.229 52.0352 187.1 52ZM187.1 49.22C187.66 49.2487 188.214 49.0865 188.67 48.76C189.081 48.4208 189.383 47.9689 189.54 47.46C189.736 46.8495 189.831 46.2111 189.82 45.57C189.832 44.9321 189.738 44.2967 189.54 43.69C189.388 43.1815 189.084 42.7315 188.67 42.4C188.206 42.0934 187.661 41.9299 187.105 41.9299C186.549 41.9299 186.004 42.0934 185.54 42.4C185.12 42.726 184.809 43.1726 184.65 43.68C184.451 44.2898 184.356 44.9287 184.37 45.57C184.358 46.2112 184.452 46.8499 184.65 47.46C184.814 47.9706 185.123 48.4223 185.54 48.76C185.993 49.085 186.543 49.2472 187.1 49.22ZM194.76 51.76V49H195.17C195.439 49.0084 195.704 48.9352 195.93 48.79C196.173 48.6128 196.36 48.37 196.47 48.09C196.634 47.6755 196.744 47.2421 196.8 46.8C196.898 46.1375 196.955 45.4696 196.97 44.8L197.17 39.31H206.71V51.71H203.39V42.01H200.3L200.1 45.8C200.068 46.7042 199.941 47.6025 199.72 48.48C199.56 49.1414 199.275 49.766 198.88 50.32C198.542 50.7736 198.095 51.1347 197.58 51.37C197.023 51.6043 196.424 51.7201 195.82 51.71L194.76 51.76ZM211.57 43.17H215.32C216.713 43.0854 218.09 43.5042 219.2 44.35C219.658 44.7296 220.022 45.2093 220.265 45.752C220.507 46.2947 220.622 46.8859 220.6 47.48C220.612 48.272 220.393 49.0503 219.97 49.72C219.517 50.3843 218.886 50.9076 218.15 51.23C217.254 51.6034 216.29 51.784 215.32 51.76H209.39V39.36H212.71V49.05H215.32C215.832 49.0736 216.336 48.9219 216.75 48.62C216.929 48.4941 217.075 48.3262 217.174 48.131C217.274 47.9357 217.324 47.7191 217.32 47.5C217.325 47.2737 217.276 47.0494 217.177 46.8459C217.078 46.6423 216.931 46.4655 216.75 46.33C216.342 46.0144 215.836 45.8517 215.32 45.87H211.57V43.17ZM222.9 51.76V39.36H226.38V44.17H227.38L230.79 39.36H234.87L230.44 45.51L234.92 51.76H230.79L227.7 47.36H226.4V51.76H222.9ZM239.9 51.99C239.166 52.001 238.438 51.8615 237.76 51.58C237.16 51.3191 236.646 50.8924 236.28 50.35C235.901 49.7313 235.714 49.0148 235.74 48.29C235.723 47.6909 235.854 47.0969 236.12 46.56C236.369 46.1006 236.73 45.7118 237.17 45.43C237.632 45.1339 238.138 44.9144 238.67 44.78C239.255 44.6363 239.85 44.5361 240.45 44.48L242.21 44.27C242.561 44.2369 242.902 44.1314 243.21 43.96C243.308 43.8952 243.388 43.8056 243.441 43.7002C243.493 43.5949 243.517 43.4776 243.51 43.36C243.523 43.139 243.486 42.918 243.401 42.7136C243.316 42.5091 243.186 42.3267 243.02 42.18C242.631 41.8756 242.143 41.726 241.65 41.76C241.122 41.7345 240.6 41.8781 240.16 42.17C239.809 42.4114 239.548 42.7634 239.42 43.17L236.21 42.91C236.359 42.166 236.704 41.4755 237.21 40.91C237.699 40.355 238.312 39.9233 239 39.65C239.844 39.3353 240.74 39.1826 241.64 39.2C242.314 39.1973 242.986 39.2779 243.64 39.44C244.247 39.5849 244.823 39.839 245.34 40.19C245.836 40.5252 246.244 40.9744 246.53 41.5C246.832 42.0866 246.98 42.7404 246.96 43.4V51.76H243.66V50H243.56C243.358 50.3803 243.087 50.7195 242.76 51C242.398 51.3014 241.985 51.5352 241.54 51.69C241.027 51.8784 240.487 51.9831 239.94 52L239.9 51.99ZM240.9 49.62C241.368 49.6295 241.831 49.5267 242.25 49.32C242.624 49.1326 242.941 48.8497 243.17 48.5C243.398 48.1527 243.516 47.7452 243.51 47.33V46C243.371 46.086 243.219 46.1501 243.06 46.19C242.853 46.254 242.643 46.3074 242.43 46.35L241.73 46.47L241.09 46.56C240.723 46.6079 240.363 46.7019 240.02 46.84C239.743 46.95 239.499 47.129 239.31 47.36C239.137 47.5938 239.049 47.8794 239.06 48.17C239.049 48.3782 239.09 48.5858 239.179 48.7743C239.268 48.9628 239.402 49.1262 239.57 49.25C239.976 49.5153 240.456 49.6448 240.94 49.62H240.9ZM70.72 21.36C70.13 20.0673 69.4621 18.8117 68.72 17.6C68.4716 17.1524 68.081 16.8005 67.61 16.6C67.1416 16.4013 66.6191 16.3695 66.13 16.51C64.9292 16.8419 63.7475 17.2392 62.59 17.7C62.1049 17.8926 61.6988 18.2431 61.4375 18.6949C61.1762 19.1467 61.0749 19.6735 61.15 20.19C61.32 21.78 61.58 23.94 61.63 24.39C60.72 24.78 59.82 25.19 58.94 25.67L56.26 22.67C55.9412 22.274 55.4966 21.9988 55 21.89C54.5024 21.8016 53.9895 21.8789 53.54 22.11C52.42 22.7 51.36 23.4 50.3 24.04C49.875 24.3245 49.5581 24.7436 49.4 25.23C49.2301 25.7224 49.2301 26.2576 49.4 26.75C49.92 28.32 50.65 30.49 50.73 30.75C50.19 31.17 49.65 31.6 49.12 32.04L46 29.71C45.602 29.3936 45.1085 29.2214 44.6 29.2214C44.0915 29.2214 43.5981 29.3936 43.2 29.71C42.2292 30.514 41.3044 31.372 40.43 32.28C40.0668 32.6435 39.8376 33.1194 39.78 33.63C39.7129 34.1398 39.8185 34.6573 40.08 35.1L42.17 38.77C40.8225 40.3254 39.567 41.9582 38.41 43.66L38.64 44.26L39.02 45.26C39.17 45.63 39.31 46 39.45 46.37C39.59 46.74 39.69 47 39.8 47.37L40.19 48.52C40.31 48.9 40.4 49.16 40.52 49.46L40.88 50.64L41.16 51.58C41.28 51.99 41.38 52.39 41.49 52.86C41.6 53.33 41.66 53.48 41.75 53.79C41.84 54.1 41.83 54.19 41.88 54.38C44.668 48.5243 48.6579 43.3215 53.59 39.11C58.4807 34.9737 64.1982 31.9292 70.36 30.18C70.6696 28.2509 70.85 26.3032 70.9 24.35V22.49C70.9 22.49 70.77 21.59 70.72 21.36ZM70.25 33.17L69.81 33.29C69.3433 33.4233 68.8833 33.5633 68.43 33.71L67.17 34.12L66.75 34.3L65.98 34.6C65.8178 34.6486 65.6604 34.7122 65.51 34.79L64.81 35.07L64.32 35.29C64.0911 35.3809 63.8675 35.4844 63.65 35.6L63.16 35.83L62.52 36.14L62.03 36.41L61.4 36.73L60.91 37.01L60.3 37.36L59.82 37.64L59.22 38.01L58.75 38.31L58.15 38.7L57.71 39L57.08 39.43L56.67 39.73L56.04 40.22L55.68 40.49L54.96 41.06L54.7 41.27L53.7 42.1L52.82 42.91L52.54 43.18L51.92 43.78L51.59 44.12L51.03 44.68L50.69 45.05C50.51 45.23 50.35 45.43 50.18 45.61L49.82 46C49.6733 46.1945 49.5129 46.3783 49.34 46.55L49 47L48.54 47.56L48.21 47.99L47.77 48.56L47.45 49L47.03 49.59L46.72 50.04L46.3 50.65L46.01 51.09C45.88 51.31 45.74 51.51 45.61 51.73C45.48 51.95 45.43 52.02 45.35 52.17L44.93 52.86L44.71 53.26L44.26 54.09L44.09 54.38C43.9 54.75 43.7 55.13 43.53 55.52L43.41 55.74C43.28 56.04 43.13 56.35 42.99 56.67C42.85 56.99 42.86 56.95 42.8 57.09L42.48 57.84C42.38 58.1 42.35 58.16 42.28 58.33L42 59L41.81 59.53C41.75 59.68 41.7 59.85 41.63 60C42.27 59.85 42.89 59.68 43.53 59.49L45.19 59C45.43 58.91 45.68 58.84 45.92 58.73L46.92 58.34L47.65 58.04L48.27 57.77L49.13 57.39L49.74 57.1L50.4 56.77H50.47L50.82 56.59L51.52 56.22L52.39 55.72L53.27 55.21C53.98 54.76 54.72 54.27 55.46 53.76L56.17 53.23L56.53 52.97L57.31 52.37L58 51.8C57.8483 51.5739 57.7082 51.3402 57.58 51.1C57.3142 50.5234 57.1549 49.9034 57.11 49.27V48.66C57.1975 47.3867 57.7574 46.1919 58.68 45.31C59.1387 44.8846 59.6706 44.5458 60.25 44.31C61.4093 43.8496 62.7007 43.8496 63.86 44.31C64.1662 44.4373 64.4607 44.5912 64.74 44.77L64.99 44.44L65.47 43.78L65.86 43.23C66.04 43 66.19 42.76 66.35 42.51L66.44 42.37L66.56 42.18L67.2 41.18C67.3739 40.9219 67.5341 40.6549 67.68 40.38C67.83 40.09 68.23 39.38 68.49 38.91C68.59 38.73 68.69 38.55 68.77 38.37C69 37.92 69.23 37.46 69.44 37C69.65 36.54 69.68 36.5 69.78 36.26L70.16 35.37L70.51 34.46C70.5442 34.3071 70.5979 34.1592 70.67 34.02C70.72 33.87 70.81 33.63 70.88 33.45L70.96 33.2L70.25 33.17Z" fill="#1570EF"/>
  <path fill-rule="evenodd" clip-rule="evenodd" d="M27.33 56.1101C27.2 55.6501 27.07 55.1801 26.92 54.7001C26.77 54.2201 26.65 53.8801 26.51 53.4201C26.4705 53.2798 26.4204 53.1428 26.36 53.0101L26.07 52.2601C26.0381 52.0908 25.9699 51.9305 25.87 51.7901C25.8 51.6401 25.7 51.3101 25.6 51.0701C25.5 50.8301 25.46 50.7401 25.38 50.5801C25.3 50.4201 25.19 50.1201 25.08 49.8901C24.97 49.6601 24.93 49.5601 24.86 49.3901L24.55 48.7401L24.29 48.2401L24 47.5901L23.38 46.5201L23.08 46.0001L22.72 45.3701L22.43 44.9101L22 44.3101L21.71 43.8701C21.58 43.6601 21.42 43.4501 21.29 43.2401L21 42.8201L20.53 42.1701C20.4334 42.0483 20.3433 41.9214 20.26 41.7901L19.69 41.0601L19.49 40.7201C19.21 40.3801 18.95 40.0501 18.67 39.7201L17.9 38.8201L17.62 38.5401L17.03 37.9001L16.7 37.5601C16.53 37.3701 16.34 37.1801 16.15 37.0001L15.79 36.6501L15.25 36.1301L14.86 35.7701L14.34 35.2401L14 34.9101C13.82 34.7401 13.63 34.5801 13.44 34.4301L13 34.0801L12.43 33.6401L12 33.3101L11.42 32.8801C11.27 32.7801 11.13 32.6601 10.98 32.5701C10.83 32.4801 10.58 32.2801 10.38 32.1501L10 31.8401L9.37 31.4401L8.94 31.1601L7.81 30.4501L7 30.0001L6.72 29.8501C6.36 29.6401 5.98 29.4501 5.6 29.2601L5.39 29.1801L4.47 28.7301L4 28.5401L3.27 28.2101L2.81 28.0001L2.14 27.7301L1.62 27.5301L1.16 27.3601C1.31 28.0001 1.47 28.6401 1.66 29.2901C1.73 29.5701 1.81 29.8001 1.88 30.0401L2.16 30.9401C2.25 31.2401 2.32 31.4401 2.42 31.6901C2.52 31.9401 2.69 32.4201 2.81 32.7801L3.1 33.5201L3.37 34.1501L3.74 35.0201C3.83 35.2401 3.93 35.4401 4.02 35.6501L4.35 36.3201C4.4 36.4401 4.46 36.5601 4.52 36.6801C4.66 36.9501 4.76 37.1601 4.89 37.3901L5.38 38.2901C5.54 38.6001 5.71 38.9001 5.88 39.1801C6.32 39.9201 6.79 40.6801 7.31 41.4201L7.81 42.1501L8.06 42.5301L8.65 43.3101L9.19 44.0001C9.40475 43.8446 9.63222 43.7074 9.87 43.5901C10.4608 43.3679 11.0891 43.2626 11.72 43.2801H12.32C12.9396 43.326 13.5442 43.4924 14.1 43.7701C14.6698 44.0396 15.1798 44.4204 15.6 44.8901C16.0323 45.351 16.3719 45.8908 16.6 46.4801C17.0336 47.665 17.0336 48.9652 16.6 50.1501C16.4782 50.457 16.3275 50.7517 16.15 51.0301L16.48 51.3001L17.12 51.7801L17.66 52.1901L18.36 52.6701L18.5 52.7801L18.69 52.9101L19.69 53.5601L20.48 54.0501C20.95 54.3301 21.48 54.6101 21.92 54.8701L22.44 55.1601L23.79 55.8401L24.52 56.1901H24.59L25.45 56.5701L26.34 56.9501L26.76 57.1101L27.33 57.3301L27.57 57.4201L27.34 56.5101L27.33 56.1101ZM40.12 59.0001C40.131 58.863 40.1069 58.7253 40.05 58.6001C40.0224 58.188 39.9555 57.7795 39.85 57.3801C39 52.7013 37.5445 48.153 35.52 43.8501L35.61 43.9901L38.61 40.9101C38.9583 40.5426 39.1792 40.0728 39.24 39.5701C39.3019 39.065 39.2003 38.5533 38.95 38.1101C38.2967 37.038 37.5891 36 36.83 35.0001C36.5271 34.5911 36.0986 34.2926 35.61 34.1501C35.1249 34.0112 34.6072 34.0394 34.14 34.2301L30.71 35.6101C30.5748 35.3955 30.4279 35.1885 30.27 34.9901L29.93 34.5201C29.78 34.3101 29.63 34.1001 29.47 33.9101C29.31 33.7201 29.23 33.5901 29.1 33.4401L28.65 32.8601L30.86 29.3101C31.1326 28.8709 31.2554 28.3551 31.21 27.8401C31.1674 27.3266 30.9565 26.8415 30.61 26.4601C29.7612 25.5263 28.8633 24.6384 27.92 23.8001C27.544 23.4621 27.0647 23.2612 26.56 23.2301C26.0527 23.1916 25.5476 23.3294 25.13 23.6201L21.92 25.8701L21.74 25.7101L21.21 25.2701L20.74 24.8501L20.2 24.4201L20 24.2701C20.27 23.6001 20.93 21.8701 21.43 20.5401C21.634 20.0519 21.6657 19.5088 21.52 19.0001C21.3728 18.5084 21.0713 18.0771 20.66 17.7701C19.66 17.0301 18.59 16.3301 17.51 15.6901C17.0708 15.4392 16.561 15.3408 16.06 15.4101C15.5584 15.4732 15.0948 15.7103 14.75 16.0801L12 19.0001L11.52 18.7401L10.83 18.3901L10.3 18.1301L9.65 17.8101L9.25 17.6501C9.32 17.1301 9.63 15.0901 9.84 13.5101C9.91005 12.9874 9.80453 12.4563 9.54 12.0001C9.29981 11.5498 8.91114 11.1964 8.44 11.0001C7.29095 10.5065 6.11588 10.0759 4.92 9.71011C4.44478 9.53992 3.92522 9.53992 3.45 9.71011C2.96529 9.90077 2.56218 10.2544 2.31 10.7101C1.39 12.2201 0.14 14.3301 0.1 14.3901C0.1 15.3901 0 16.3901 0 17.3901C8.87297e-05 19.3466 0.130377 21.3009 0.39 23.2401H0.51L1.14 23.4401L1.87 23.6901L2.49 23.9201L3.2 24.1701L3.82 24.4201L4.51 24.7101C4.72 24.7901 4.91 24.8801 5.11 24.9701L5.79 25.2601L6.39 25.5601L7.07 25.8801L7.65 26.1701L8.31 26.5201L8.89 26.8401L9.53 27.2001L10.1 27.5301L10.74 27.9201L11.29 28.2701L11.91 28.6601L13.06 29.4601L13.59 29.8401L14.18 30.2801L14.69 30.6801L15.27 31.1401L15.79 31.5501C15.98 31.7001 16.15 31.8701 16.35 32.0201L16.84 32.4601L17.38 32.9501L17.87 33.4001L18.4 33.9101C18.56 34.0501 18.71 34.2101 18.86 34.3601L19.39 34.8901L19.84 35.3601L20.35 35.9101L20.77 36.3901L21.26 36.9501L21.69 37.4501L22.16 38.0301L22.57 38.5401L23.02 39.1501L23.41 39.6601L23.85 40.2701L24.23 40.8001C24.37 41.0101 24.5 41.2201 24.65 41.4301C24.7789 41.6123 24.8958 41.8027 25 42.0001C25.11 42.1901 25.27 42.4201 25.4 42.6401C25.5039 42.8313 25.6208 43.015 25.75 43.1901L26.13 43.8601L26.45 44.4101C26.58 44.6401 26.7 44.8701 26.82 45.1001C26.94 45.3301 27.03 45.4801 27.12 45.6701C27.21 45.8601 27.37 46.1301 27.48 46.3601C27.59 46.5901 27.67 46.7501 27.76 46.9401C27.85 47.1301 28 47.4301 28.11 47.6701C28.22 47.9101 28.29 48.0401 28.36 48.2401C28.43 48.4401 28.59 48.7401 28.69 48.9901L28.94 49.5601C29.04 49.8301 29.14 50.1001 29.25 50.3701L29.46 50.9001C29.58 51.2001 29.68 51.5101 29.78 51.8101C29.8422 51.9568 29.8957 52.1071 29.94 52.2601C30.11 52.7301 30.26 53.1901 30.4 53.6501C30.54 54.1101 30.67 54.6501 30.8 55.0701C30.8151 55.2257 30.8557 55.3777 30.92 55.5201C30.97 55.6801 31.09 56.1901 31.16 56.5201C31.23 56.8501 31.25 56.8601 31.29 57.0201C31.33 57.1801 31.43 57.6801 31.49 58.0201C31.55 58.3601 31.57 58.3401 31.59 58.5001V58.7101L33.17 59.0701L33.75 59.1901H33.86L34.6 59.3301L35.22 59.4201L35.91 59.5201L36.6 59.6101L37.3 59.6901C37.535 59.6785 37.7704 59.6987 38 59.7501H38.57L40.24 59.9701V59.8701C40.2 59.5801 40.15 59.3101 40.12 59.0001ZM44.32 1.83011C43.631 1.1454 42.8502 0.559792 42 0.0901089C41.9235 0.0363848 41.8334 0.00520422 41.74 0.000108882C41.6484 -0.00184155 41.5582 0.0224476 41.48 0.0701089C41.3993 0.121026 41.3309 0.189361 41.28 0.270109C41.2371 0.353868 41.2132 0.446057 41.21 0.540109V8.54011C41.2009 8.83506 41.0834 9.11631 40.88 9.33011C40.6804 9.53776 40.4079 9.65968 40.12 9.67011H34.55C34.2594 9.65915 33.9839 9.53752 33.78 9.33011C33.5771 9.12406 33.4593 8.84914 33.45 8.56011V0.540109C33.4413 0.444348 33.4105 0.351913 33.36 0.270109C33.3117 0.189925 33.2426 0.124281 33.16 0.0801089C33.0824 0.0299257 32.9924 0.00223411 32.9 0.000108882C32.8067 -0.000138105 32.7144 0.0203557 32.63 0.0601089C31.7692 0.568531 30.9734 1.17968 30.26 1.88011C29.2634 2.88974 28.493 4.09986 28 5.43011C27.5046 6.75813 27.2934 8.17534 27.38 9.59011C27.4529 11.0027 27.8217 12.3842 28.4626 13.6452C29.1034 14.9062 30.0019 16.0185 31.1 16.9101C31.705 17.4262 32.378 17.8569 33.1 18.1901H41.53C42.263 17.8487 42.9515 17.4188 43.58 16.9101C44.6734 16.0163 45.5661 14.9021 46.2 13.6401C46.8304 12.3682 47.1913 10.9798 47.2601 9.56186C47.3289 8.14396 47.1042 6.72712 46.6 5.40011C46.0964 4.07633 45.3196 2.87353 44.32 1.87011V1.83011ZM39.09 20.0001H35.54C35.2951 20.0054 35.0621 20.107 34.8918 20.283C34.7214 20.459 34.6273 20.6952 34.63 20.9401V25.5301C34.6273 25.7751 34.7214 26.0112 34.8918 26.1872C35.0621 26.3632 35.2951 26.4649 35.54 26.4701H39.09C39.3349 26.4649 39.5679 26.3632 39.7382 26.1872C39.9086 26.0112 40.0027 25.7751 40 25.5301V21.0001C40.0095 20.8739 39.9932 20.747 39.952 20.6274C39.9109 20.5077 39.8457 20.3976 39.7605 20.304C39.6753 20.2104 39.5719 20.1352 39.4566 20.0829C39.3413 20.0306 39.2166 20.0025 39.09 20.0001Z" fill="#2E90FA"/>
</svg>