<svg xmlns="http://www.w3.org/2000/svg" width="44" height="44" viewBox="0 0 44 44" fill="none">
  <path fill-rule="evenodd" clip-rule="evenodd" d="M17.4725 34.1859C17.4106 33.9704 17.3425 33.7489 17.2682 33.5273C17.2063 33.3358 17.1382 33.1442 17.0701 32.9286C17.0491 32.8635 17.0243 32.7995 16.9958 32.737L16.8534 32.3898C16.8534 32.318 16.7915 32.2401 16.7543 32.1683C16.7172 32.0964 16.6676 31.9468 16.6181 31.833C16.5686 31.7192 16.55 31.6773 16.5128 31.6055C16.4757 31.5336 16.42 31.39 16.3642 31.2822C16.3085 31.1744 16.2899 31.1265 16.2528 31.0487L16.1042 30.7434L15.9742 30.5099L15.8194 30.2105L15.516 29.7076L15.3798 29.4801L15.2003 29.1867C15.1569 29.1149 15.1074 29.043 15.0579 28.9712L14.8659 28.6778L14.7235 28.4743C14.6554 28.3725 14.5811 28.2767 14.513 28.1809L14.3706 27.9833L14.1415 27.678C14.092 27.6241 14.0487 27.5582 14.0053 27.5044L13.7267 27.1631L13.6276 27.0014C13.4914 26.8458 13.3614 26.6901 13.2252 26.5404L12.8413 26.1213L12.7051 25.9896L12.4141 25.6903L12.2532 25.5346C12.1665 25.4448 12.0736 25.355 11.9807 25.2712L11.8012 25.1095L11.535 24.8641L11.343 24.6964L11.0892 24.4509L10.8849 24.2893C10.7982 24.2115 10.7053 24.1396 10.6124 24.0678L10.4081 23.9061L10.1295 23.6966L9.919 23.5469L9.63419 23.3433C9.5599 23.2954 9.49179 23.2416 9.41749 23.1997C9.32193 23.129 9.22274 23.0631 9.12031 23.0021L8.9098 22.8584L8.60023 22.6728L8.38972 22.5411L7.8325 22.2118L7.43006 21.9963L7.29384 21.9244C7.11429 21.8286 6.92855 21.7388 6.74281 21.649L6.63756 21.6131L6.18558 21.4035L5.98127 21.3197L5.62217 21.164L5.38689 21.0683L5.05256 20.9425L4.79871 20.8467L4.56963 20.7689C4.64393 21.0683 4.72441 21.3676 4.81729 21.667C4.85443 21.7987 4.89158 21.9064 4.92873 22.0202C4.96588 22.134 5.0216 22.3016 5.06494 22.4393C5.10828 22.577 5.14543 22.6728 5.19496 22.7865C5.24449 22.9003 5.32498 23.1278 5.38689 23.2954L5.5293 23.6427L5.65932 23.9361L5.84506 24.3432C5.8884 24.445 5.93793 24.5408 5.98127 24.6365L6.14224 24.9479C6.1674 25.0055 6.19635 25.0615 6.22892 25.1155C6.29703 25.2412 6.34656 25.343 6.40847 25.4508L6.64994 25.8699C6.73043 26.0136 6.81711 26.1513 6.89759 26.283C7.11429 26.6302 7.34957 26.9835 7.60342 27.3307L7.85107 27.672C7.88822 27.7319 7.93156 27.7857 7.9749 27.8456L8.26589 28.2108C8.35257 28.3246 8.44545 28.4323 8.53212 28.5341C8.63681 28.4598 8.74879 28.3957 8.86646 28.3425C9.15723 28.2377 9.46643 28.1888 9.7766 28.1989H10.0738C10.3791 28.22 10.6775 28.2972 10.953 28.4264C11.2316 28.5514 11.482 28.7284 11.6897 28.9472C11.8986 29.1623 12.0626 29.4144 12.1727 29.6896C12.2771 29.9616 12.3295 30.2497 12.3275 30.5398C12.3283 30.8348 12.2715 31.1273 12.1603 31.4019C12.0984 31.5456 12.0238 31.6838 11.9374 31.815L12.0984 31.9408L12.4141 32.1623L12.6804 32.3539L13.0271 32.5814L13.0952 32.6293L13.1881 32.6892L13.6834 32.9945L14.0734 33.222C14.3025 33.3537 14.544 33.4854 14.7792 33.6052L15.0393 33.7429L15.7018 34.0602L16.0609 34.2218H16.098L16.519 34.4015L16.9586 34.5751L17.1691 34.6529L17.4477 34.7547L17.5654 34.7966L17.4539 34.3715L17.4725 34.1859Z" fill="white"/>
  <path fill-rule="evenodd" clip-rule="evenodd" d="M23.7754 35.551C23.7754 35.4911 23.7753 35.4252 23.7444 35.3654C23.7444 35.1738 23.6825 34.9882 23.6453 34.7966C23.223 32.6096 22.5048 30.486 21.5093 28.4802L21.5526 28.5461L23.02 27.1092C23.1902 26.9385 23.2985 26.7189 23.3286 26.4836C23.3588 26.2482 23.3091 26.0098 23.1872 25.804C22.8683 25.2947 22.5233 24.8011 22.1532 24.3252C22.0051 24.1314 21.7944 23.9909 21.5545 23.9258C21.3145 23.8607 21.059 23.8749 20.8282 23.966L19.138 24.6066C19.0708 24.5074 18.9985 24.4115 18.9213 24.3192L18.7541 24.0977C18.6798 24.0019 18.6055 23.9061 18.525 23.8163C18.4446 23.7265 18.4074 23.6666 18.3455 23.5948L18.1226 23.3254L19.2123 21.667C19.348 21.4638 19.4095 21.2226 19.3871 20.9818C19.3646 20.7409 19.2595 20.5143 19.0885 20.3378C18.67 19.9022 18.2277 19.4885 17.7635 19.0985C17.5762 18.9395 17.3397 18.8451 17.091 18.8299C16.8423 18.8147 16.5955 18.8797 16.389 19.0147L14.804 20.0624L14.7173 19.9906L14.4573 19.781L14.222 19.5894L13.9558 19.3859L13.8753 19.326C14.0053 19.0147 14.3335 18.2064 14.5811 17.5838C14.6706 17.3579 14.6803 17.1097 14.6086 16.8779C14.5369 16.6462 14.3879 16.4438 14.1849 16.3025C13.6834 15.9553 13.1633 15.632 12.6308 15.3326C12.4151 15.2131 12.1645 15.1658 11.9182 15.1983C11.6718 15.2308 11.4435 15.3412 11.2687 15.5123L9.90042 16.8534L9.66515 16.7336L9.32462 16.566L9.06458 16.4462L8.74263 16.2966L8.54451 16.2247C8.58166 15.9792 8.73025 15.0273 8.8355 14.2909C8.87283 14.0523 8.82671 13.8084 8.70446 13.598C8.58221 13.3876 8.39082 13.2227 8.16064 13.1294C7.59103 12.9019 7.01523 12.6983 6.42705 12.5307C6.18858 12.4596 5.9324 12.4676 5.69911 12.5532C5.46583 12.6389 5.2688 12.7974 5.13924 13.0037C4.68727 13.7042 4.06813 14.686 4.04955 14.716C4.04955 15.183 4.00002 15.65 4.00002 16.1229C3.99867 17.0362 4.0628 17.9484 4.19195 18.853H4.25387L4.56344 18.9488L4.92254 19.0626L5.22592 19.1704L5.57883 19.2901L5.88221 19.4038L6.22273 19.5416C6.32799 19.5775 6.42086 19.6194 6.51992 19.6613L6.85426 19.799L7.15144 19.9367L7.48578 20.0864L7.77058 20.2241L8.09873 20.3857L8.38353 20.5354L8.69929 20.703L8.97791 20.8587L9.29367 21.0383L9.56609 21.2L9.86947 21.3856L10.4391 21.7568L10.6991 21.9364C10.7982 22.0022 10.8972 22.0681 10.9901 22.1399L11.244 22.3255L11.5288 22.5411L11.7826 22.7327C11.8755 22.8045 11.9622 22.8823 12.0612 22.9542L12.3027 23.1577L12.5689 23.3852L12.8104 23.5948L13.0704 23.8343C13.1509 23.9001 13.2252 23.972 13.2995 24.0438L13.5595 24.2893L13.7824 24.5108L14.0301 24.7683L14.2406 24.9898L14.4821 25.2532L14.6926 25.4867L14.9216 25.7561L15.126 25.9956L15.3489 26.277L15.5408 26.5165L15.7575 26.8039L15.9432 27.0493C16.0113 27.1451 16.0794 27.2469 16.1537 27.3427C16.228 27.4385 16.2714 27.5103 16.3271 27.6001C16.3828 27.69 16.4633 27.7977 16.5252 27.8995C16.5871 28.0013 16.6367 28.0731 16.6986 28.1569L16.8843 28.4683L17.0453 28.7257C17.1072 28.8335 17.1691 28.9412 17.2248 29.049C17.2806 29.1568 17.3301 29.2226 17.3734 29.3124C17.4168 29.4023 17.4973 29.528 17.553 29.6357C17.6087 29.7435 17.6459 29.8154 17.6892 29.9052C17.7325 29.995 17.8068 30.1327 17.8626 30.2464C17.9183 30.3602 17.9492 30.4201 17.9864 30.5099C18.0235 30.5997 18.0978 30.7434 18.1474 30.8631L18.2712 31.1265C18.3207 31.2523 18.3703 31.378 18.426 31.5037L18.525 31.7552C18.587 31.8929 18.6365 32.0366 18.686 32.1803C18.7166 32.2487 18.7434 32.3187 18.7665 32.3898C18.8491 32.6053 18.9234 32.8209 18.9894 33.0364C19.0575 33.2579 19.1256 33.4794 19.1875 33.701C19.1875 33.7728 19.2247 33.8387 19.2494 33.9105C19.2742 33.9824 19.3299 34.2218 19.3671 34.3775C19.4042 34.5332 19.4104 34.5332 19.429 34.611C19.4476 34.6888 19.4971 34.9163 19.5281 35.072C19.559 35.2277 19.5652 35.2217 19.5776 35.2935V35.3953L20.3577 35.5629L20.6425 35.6168H20.6982L21.0635 35.6827L21.3669 35.7246L21.7074 35.7725L22.0479 35.8144L22.3947 35.8503C22.5185 35.8503 22.6299 35.8503 22.7352 35.8803H23.02L23.8435 35.982C23.8435 35.982 23.8435 35.9521 23.8435 35.9341C23.8187 35.8024 23.7939 35.6767 23.7754 35.551Z" fill="white"/>
  <path fill-rule="evenodd" clip-rule="evenodd" d="M38.8638 17.967C38.8638 17.8652 38.3189 16.9312 37.8917 16.2127C37.7683 16.0025 37.5757 15.8382 37.3446 15.746C37.1135 15.6538 36.8571 15.6389 36.6163 15.7038C36.0246 15.8596 35.4418 16.0455 34.8703 16.2606C34.6332 16.3478 34.4337 16.5101 34.3044 16.721C34.1751 16.932 34.1236 17.1792 34.1583 17.4221C34.245 18.1645 34.3688 19.1704 34.3936 19.3799C33.9478 19.5655 33.502 19.7571 33.0686 19.9786L31.7499 18.5597C31.5831 18.3803 31.3596 18.2594 31.1142 18.2161C30.8688 18.1727 30.6155 18.2094 30.394 18.3202C29.8429 18.5956 29.3166 18.9189 28.7966 19.2183C28.5879 19.3512 28.4309 19.5475 28.3502 19.7762C28.2695 20.0048 28.2697 20.253 28.3508 20.4815C28.6108 21.2179 28.9699 22.2297 29.0071 22.3615C28.7408 22.553 28.4746 22.7566 28.2146 22.9602L26.6729 21.8645C26.4749 21.7174 26.2323 21.6377 25.9826 21.6377C25.7329 21.6377 25.4902 21.7174 25.2922 21.8645C24.8144 22.2398 24.3576 22.6395 23.9239 23.0619C23.7481 23.2318 23.6356 23.4534 23.6042 23.6918C23.5728 23.9303 23.6243 24.1721 23.7506 24.3791L24.7845 26.0914C24.121 26.8169 23.5008 27.5785 22.9271 28.3725C22.9643 28.4623 23.0014 28.5581 23.0448 28.6539L23.2305 29.0969C23.3048 29.2705 23.3729 29.4442 23.441 29.6178C23.5091 29.7914 23.5587 29.9112 23.6144 30.0608C23.6701 30.2105 23.7444 30.4141 23.8063 30.5937C23.8682 30.7733 23.9116 30.893 23.9673 31.0367L24.1468 31.5875L24.283 32.0246C24.345 32.2162 24.3945 32.4018 24.4502 32.6233C24.5059 32.8448 24.5307 32.9107 24.574 33.0544C24.6174 33.1981 24.6174 33.24 24.6421 33.3298C26.029 30.6031 27.9974 28.1914 30.4177 26.2534C32.838 24.3155 35.6553 22.8952 38.6842 22.0861C38.8385 21.1851 38.9274 20.2749 38.9505 19.3619C38.9505 19.1404 38.9505 18.9249 38.9505 18.7034V18.4938C38.9505 18.4938 38.8886 18.0747 38.8638 17.967Z" fill="white"/>
  <path fill-rule="evenodd" clip-rule="evenodd" d="M38.6285 23.481L38.4118 23.5349C38.1827 23.5948 37.9537 23.6607 37.7308 23.7325L37.1116 23.9241L36.9073 24.0079L36.5234 24.1456C36.4446 24.1693 36.368 24.1994 36.2944 24.2354L35.9476 24.3671L35.7062 24.4689C35.5947 24.5108 35.4895 24.5587 35.378 24.6126C35.2666 24.6665 35.2171 24.6844 35.1366 24.7204L34.8208 24.8641L34.5793 24.9898L34.2698 25.1395L34.0283 25.2712L33.7249 25.4328L33.4897 25.5645L33.1925 25.7382L32.9634 25.8759L32.6662 26.0615L32.4495 26.1992L32.1399 26.4027L31.9356 26.5404L31.626 26.7679L31.4465 26.8937L31.0936 27.1631L30.9636 27.2589L30.4868 27.648L30.0534 28.0252L29.9172 28.151L29.6076 28.4323L29.4467 28.588L29.1681 28.8514L29.0009 29.0251C28.9142 29.1089 28.8337 29.1987 28.7532 29.2825L28.5737 29.4681C28.4994 29.5579 28.4189 29.6417 28.3384 29.7256L28.1712 29.9231L27.9422 30.1866L27.7812 30.3841L27.5645 30.6535L27.4035 30.8571C27.3354 30.9469 27.2611 31.0427 27.1992 31.1325L27.0444 31.3421L26.8401 31.6294L26.6977 31.833C26.6296 31.9348 26.5615 32.0306 26.4996 32.1324C26.4526 32.198 26.4092 32.2659 26.3695 32.3359L26.1652 32.6592L26.0538 32.8448L25.8309 33.234L25.7504 33.3657C25.6575 33.5393 25.5585 33.7189 25.4718 33.8985L25.4161 34.0003C25.348 34.144 25.2737 34.2877 25.2056 34.4374C25.1375 34.5871 25.1436 34.5691 25.1127 34.635C25.0817 34.7008 25.0074 34.8625 24.9579 34.9822C24.9084 35.1019 24.8898 35.1319 24.8588 35.2097L24.7226 35.533L24.6298 35.7785C24.5988 35.8503 24.574 35.9282 24.5431 36C24.8588 35.9282 25.1622 35.8503 25.478 35.7605L26.2767 35.521C26.3943 35.4791 26.5181 35.4432 26.6358 35.3953L27.1559 35.2097L27.515 35.072L27.8183 34.9463L28.2455 34.7667L28.5427 34.635L28.8709 34.4793H28.9018L29.0752 34.3955L29.4219 34.2218L29.8491 33.9883C30.0039 33.9105 30.1401 33.8267 30.2825 33.7489C30.6354 33.5393 31.0007 33.3118 31.366 33.0723L31.7127 32.8269L31.8923 32.7071L32.2761 32.4257L32.6105 32.1743C32.5351 32.0688 32.4669 31.9589 32.4062 31.845C32.2741 31.5781 32.1943 31.2898 32.1709 30.9948V30.7074C32.2181 30.1114 32.4942 29.554 32.9448 29.1448C33.1721 28.946 33.4341 28.7878 33.7187 28.6778C34.2925 28.4637 34.9281 28.4637 35.5019 28.6778C35.653 28.7364 35.7981 28.8085 35.9353 28.8934L36.0591 28.7377L36.2944 28.4323L36.4863 28.1749C36.573 28.0671 36.6473 27.9534 36.7278 27.8396L36.7711 27.7738C36.7896 27.7425 36.8102 27.7125 36.833 27.684L37.1488 27.205C37.2293 27.0853 37.3097 26.9595 37.384 26.8278C37.4583 26.6961 37.6565 26.3728 37.7803 26.1453C37.8298 26.0615 37.8794 25.9777 37.9227 25.8938C38.0341 25.6843 38.1456 25.4688 38.2508 25.2532C38.3561 25.0377 38.3685 25.0197 38.418 24.906L38.6038 24.4929C38.6657 24.3492 38.7214 24.2115 38.7771 24.0678C38.7771 24.0019 38.8328 23.9361 38.8576 23.8642C38.8824 23.7924 38.9257 23.6786 38.9628 23.5948L39 23.481H38.6285Z" fill="white"/>
  <path d="M25.8495 8.8726C25.5092 8.54803 25.1261 8.26822 24.7102 8.0404C24.67 8.01859 24.6245 8.00729 24.5784 8.0076C24.5322 8.00791 24.4869 8.01982 24.447 8.04216C24.407 8.0645 24.3737 8.09651 24.3504 8.13503C24.3271 8.17356 24.3146 8.21729 24.314 8.26192V12.0098C24.3095 12.1471 24.2514 12.2777 24.1515 12.3754C24.0517 12.4731 23.9173 12.5307 23.7753 12.5367H21.0326C20.8906 12.5323 20.7555 12.4762 20.6545 12.3796C20.5535 12.283 20.4939 12.1531 20.4877 12.0158V8.24994C20.4844 8.20579 20.4699 8.1631 20.4455 8.12566C20.421 8.08822 20.3874 8.05718 20.3477 8.03528C20.3079 8.01338 20.2631 8.00129 20.2174 8.0001C20.1716 7.9989 20.1262 8.00863 20.0853 8.02842C19.6613 8.26531 19.2684 8.55076 18.9151 8.87859C18.4311 9.34837 18.0553 9.91175 17.8123 10.5318C17.5692 11.1519 17.4644 11.8146 17.5048 12.4765C17.5451 13.1385 17.7297 13.7847 18.0463 14.3729C18.363 14.9611 18.8046 15.4779 19.3423 15.8894C19.6343 16.131 19.9593 16.3325 20.3082 16.4881H24.4626C24.8235 16.3301 25.1626 16.129 25.4718 15.8894C26.0088 15.4755 26.4488 14.956 26.7628 14.3654C27.0768 13.7747 27.2577 13.1264 27.2934 12.4632C27.3291 11.8 27.2188 11.137 26.9699 10.5181C26.721 9.8991 26.3391 9.33826 25.8495 8.8726Z" fill="white"/>
  <path d="M23.2677 17.3383H21.5217C21.2721 17.3383 21.0697 17.534 21.0697 17.7754V19.9187C21.0697 20.1601 21.2721 20.3558 21.5217 20.3558H23.2677C23.5173 20.3558 23.7196 20.1601 23.7196 19.9187V17.7754C23.7196 17.534 23.5173 17.3383 23.2677 17.3383Z" fill="white"/>
</svg>