<svg width="248" height="60" viewBox="0 0 248 60" fill="none" xmlns="http://www.w3.org/2000/svg">
<path d="M86.8006 51.9222C85.6857 51.9432 84.5786 51.7301 83.5492 51.2962C82.6672 50.9204 81.8972 50.3183 81.3151 49.5494C80.7701 48.7968 80.4766 47.8876 80.4774 46.9544H84.0279C84.0378 47.3496 84.1783 47.73 84.4269 48.0348C84.6917 48.3556 85.0359 48.5995 85.4242 48.7416C85.8694 48.9156 86.3434 49.0013 86.8205 48.994C87.3107 49.0069 87.7976 48.9103 88.2467 48.7113C88.641 48.5407 88.9847 48.2693 89.2441 47.9237C89.4773 47.5792 89.5992 47.17 89.5932 46.7524C89.5926 46.3281 89.46 45.9148 89.2142 45.5711C88.9444 45.2035 88.5781 44.9201 88.157 44.7532C87.6172 44.5404 87.0404 44.4408 86.4615 44.4604H84.9355V41.8755H86.4615C86.9452 41.8883 87.4256 41.7918 87.8678 41.5928C88.2682 41.4432 88.6155 41.176 88.8651 40.8254C89.0704 40.4848 89.179 40.0935 89.179 39.6945C89.179 39.2955 89.0704 38.9042 88.8651 38.5636C88.6636 38.2262 88.3688 37.9559 88.0174 37.7861C87.6327 37.5959 87.2085 37.5024 86.7806 37.5135C86.3315 37.5038 85.8856 37.5934 85.4741 37.776C85.0765 37.9102 84.7286 38.1638 84.4767 38.503C84.2348 38.8186 84.0985 39.2042 84.0878 39.6036H80.8065C80.8153 38.6891 81.1046 37.7999 81.6343 37.0591C82.1917 36.3101 82.9301 35.7189 83.7786 35.3426C84.7493 34.9269 85.7969 34.7272 86.8504 34.7569C87.8815 34.736 88.9041 34.9499 89.8425 35.383C90.6418 35.7631 91.3294 36.3478 91.8372 37.0793C92.3237 37.7746 92.5756 38.6104 92.5553 39.4622C92.584 39.8936 92.5263 40.3263 92.3858 40.7345C92.2393 41.1383 92.0156 41.5088 91.7275 41.825C91.1197 42.4594 90.3188 42.8684 89.4535 42.9862V43.1174C90.5075 43.1982 91.4998 43.6522 92.2561 44.3998C92.5852 44.7414 92.843 45.1466 93.0141 45.5913C93.1828 46.039 93.2641 46.5157 93.2535 46.9948C93.2749 47.9077 92.9902 48.8011 92.4456 49.5292C91.8509 50.2997 91.0668 50.8986 90.1716 51.2659C89.1053 51.7196 87.9571 51.9431 86.8006 51.9222ZM99.3473 51.9222C98.6155 51.9316 97.8895 51.7908 97.213 51.5082C96.6151 51.2434 96.1034 50.8129 95.7369 50.2663C95.3577 49.6423 95.1702 48.9183 95.1983 48.1862C95.1786 47.5811 95.3088 46.9805 95.5773 46.4394C95.8083 45.9793 96.1516 45.5865 96.5747 45.2984C97.0333 44.9961 97.5391 44.7742 98.0707 44.6421C98.6551 44.5012 99.2482 44.4 99.846 44.3392L101.601 44.1272C101.952 44.0941 102.291 43.9875 102.599 43.8141C102.7 43.7524 102.78 43.6608 102.828 43.5516C102.881 43.4454 102.905 43.327 102.898 43.2083C102.911 42.9839 102.874 42.7594 102.788 42.552C102.705 42.3461 102.575 42.1628 102.409 42.0168C102.021 41.7095 101.534 41.5584 101.043 41.5928C100.516 41.5656 99.9953 41.7107 99.5568 42.0067C99.2063 42.2505 98.9465 42.6059 98.8187 43.0165L95.6172 42.7539C95.7661 42.0029 96.1104 41.3057 96.6146 40.7345C97.1106 40.1673 97.7328 39.7278 98.4297 39.4521C99.2752 39.1359 100.172 38.9818 101.073 38.9978C101.745 38.9974 102.415 39.0788 103.067 39.2401C103.674 39.3848 104.249 39.6416 104.763 39.9974C105.257 40.3358 105.664 40.7894 105.95 41.3201C106.25 41.9129 106.397 42.5728 106.379 43.2386V51.6799H103.087V49.9028H102.988C102.788 50.288 102.517 50.6308 102.19 50.9125C101.831 51.2195 101.418 51.4558 100.973 51.6092C100.452 51.8045 99.9026 51.9103 99.3473 51.9222ZM100.345 49.5292C100.811 49.5408 101.273 49.4368 101.691 49.2263C102.062 49.0351 102.379 48.7498 102.609 48.3983C102.84 48.0498 102.959 47.6368 102.948 47.2169V45.8639C102.81 45.9524 102.658 46.0172 102.499 46.0557C102.309 46.1163 102.1 46.1668 101.871 46.2173L101.172 46.3385L100.534 46.4293C100.168 46.477 99.8093 46.572 99.467 46.712C99.1906 46.8231 98.9469 47.0039 98.7589 47.2371C98.5878 47.4739 98.5 47.7618 98.5095 48.055C98.5004 48.2649 98.5419 48.474 98.6305 48.664C98.7192 48.854 98.8522 49.0193 99.0182 49.1455C99.4105 49.4083 99.8747 49.539 100.345 49.5191V49.5292ZM109.081 51.69V39.1593H120.052V51.6799H116.741V41.8856H112.393V51.6799L109.081 51.69ZM133.626 39.1694V51.69H130.345V39.1593L133.626 39.1694ZM132.021 44.6623V47.3987C131.697 47.5371 131.363 47.6519 131.023 47.742C130.613 47.8513 130.197 47.9356 129.777 47.9944C127.91 48.2942 125.999 47.9378 124.361 46.9847C123.825 46.5715 123.402 46.0256 123.134 45.3994C122.858 44.7651 122.749 44.0697 122.815 43.38V39.1391H126.086V43.4103C126.063 43.8099 126.149 44.2084 126.336 44.5613C126.522 44.8553 126.804 45.0734 127.134 45.1773C127.612 45.3051 128.105 45.3629 128.6 45.3489C129.166 45.3473 129.73 45.2898 130.285 45.1773C130.874 45.0376 131.453 44.8623 132.021 44.6522V44.6623ZM139.88 51.9222C139.151 51.9325 138.428 51.7916 137.755 51.5082C137.151 51.2494 136.635 50.8178 136.269 50.2663C135.89 49.6423 135.703 48.9183 135.731 48.1862C135.708 47.5796 135.842 46.9776 136.12 46.4394C136.351 45.9793 136.694 45.5865 137.117 45.2984C137.576 44.9961 138.082 44.7742 138.613 44.6421C139.198 44.5012 139.791 44.4 140.388 44.3392L142.144 44.1272C142.494 44.0941 142.834 43.9875 143.141 43.8141C143.243 43.7499 143.325 43.6593 143.381 43.5516C143.434 43.4457 143.458 43.327 143.45 43.2083C143.459 42.9842 143.421 42.7608 143.341 42.552C143.25 42.35 143.122 42.1681 142.962 42.0168C142.574 41.7095 142.087 41.5584 141.595 41.5928C141.066 41.5655 140.541 41.7106 140.099 42.0067C139.749 42.2481 139.491 42.6048 139.371 43.0165L136.16 42.7539C136.317 42.006 136.661 41.311 137.157 40.7345C137.665 40.163 138.301 39.7232 139.012 39.4521C139.854 39.1351 140.747 38.9809 141.645 38.9978C142.317 38.9974 142.987 39.0788 143.64 39.2401C144.248 39.3892 144.825 39.6455 145.345 39.9974C145.837 40.3362 146.241 40.7899 146.522 41.3201C146.822 41.9129 146.97 42.5728 146.951 43.2386V51.6799H143.67V49.9028H143.57C143.367 50.2883 143.092 50.6311 142.762 50.9125C142.403 51.2195 141.99 51.4558 141.545 51.6092C141.012 51.8089 140.449 51.9148 139.88 51.9222ZM140.877 49.5292C141.344 49.5408 141.806 49.4368 142.224 49.2263C142.6 49.0381 142.92 48.7524 143.151 48.3983C143.372 48.0455 143.487 47.6348 143.48 47.2169V45.8639C143.342 45.9524 143.19 46.0172 143.031 46.0557C142.826 46.1237 142.616 46.1777 142.403 46.2173L141.705 46.3385L141.077 46.4293C140.71 46.477 140.352 46.572 140.009 46.712C139.733 46.8231 139.489 47.0039 139.301 47.2371C139.123 47.4707 139.031 47.76 139.042 48.055C139.031 48.2671 139.072 48.4787 139.162 48.6709C139.252 48.8613 139.389 49.0249 139.561 49.1455C139.951 49.4038 140.411 49.5342 140.877 49.5191V49.5292ZM155.279 51.9222C154.126 51.9531 152.986 51.6707 151.978 51.1043C151.069 50.5677 150.334 49.7748 149.863 48.8224C149.371 47.7698 149.115 46.6196 149.115 45.4549C149.115 44.2902 149.371 43.1401 149.863 42.0875C150.334 41.1351 151.069 40.3421 151.978 39.8055C152.985 39.238 154.127 38.9587 155.279 38.9978C156.266 38.9718 157.245 39.1756 158.141 39.5935C158.928 39.9578 159.601 40.5341 160.086 41.2595C160.574 42.0113 160.846 42.885 160.874 43.7838H157.573C157.501 43.2147 157.245 42.6856 156.845 42.2794C156.636 42.0862 156.392 41.9353 156.127 41.8351C155.862 41.7361 155.581 41.6915 155.299 41.7038C154.797 41.6935 154.304 41.8456 153.893 42.138C153.475 42.4645 153.154 42.9012 152.965 43.4002C152.732 44.0466 152.62 44.7316 152.636 45.4196C152.627 46.1063 152.735 46.7896 152.955 47.439C153.145 47.9429 153.47 48.3834 153.893 48.7113C154.302 49.0079 154.795 49.1636 155.299 49.1556C155.669 49.1619 156.034 49.0788 156.366 48.9132C156.687 48.7533 156.959 48.5092 157.154 48.2064C157.38 47.8648 157.524 47.4738 157.573 47.0654H160.844C160.813 47.9654 160.544 48.8404 160.066 49.5999C159.593 50.3295 158.931 50.913 158.151 51.2861C157.256 51.7226 156.272 51.9405 155.279 51.9222ZM162.26 41.8856V39.1593H173.59V41.8856H169.601V51.6799H166.25V41.8856H162.26ZM182.606 44.107V46.8736H175.824V44.107H182.606ZM178.507 39.1593V51.6799H175.047V39.1593H178.507ZM186.297 51.9222C185.174 51.9559 184.064 51.669 183.095 51.0942C182.201 50.5402 181.478 49.7424 181.011 48.7921C180.531 47.7394 180.283 46.594 180.283 45.4347C180.283 44.2755 180.531 43.1301 181.011 42.0774C181.477 41.1338 182.2 40.3453 183.095 39.8055C184.083 39.2751 185.184 38.9977 186.302 38.9977C187.42 38.9977 188.521 39.2751 189.508 39.8055C190.405 40.3405 191.126 41.1305 191.583 42.0774C192.091 43.1183 192.341 44.269 192.311 45.4297C192.33 46.5926 192.081 47.744 191.583 48.7921C191.125 49.7458 190.404 50.5452 189.508 51.0942C188.536 51.6708 187.423 51.9578 186.297 51.9222ZM186.297 49.1152C186.856 49.1458 187.408 48.9819 187.863 48.6507C188.271 48.3074 188.573 47.8514 188.73 47.3381C188.927 46.722 189.022 46.0771 189.01 45.4297C189.022 44.7856 188.927 44.144 188.73 43.5314C188.579 43.018 188.276 42.5636 187.863 42.2289C187.399 41.9193 186.857 41.7542 186.302 41.7542C185.747 41.7542 185.204 41.9193 184.741 42.2289C184.322 42.5585 184.013 43.0093 183.853 43.5213C183.481 44.7657 183.481 46.0937 183.853 47.3381C184.015 47.8547 184.324 48.3114 184.741 48.6507C185.193 48.9789 185.741 49.1426 186.297 49.1152ZM193.936 51.6799V48.893H194.345C194.614 48.9042 194.879 48.83 195.103 48.681C195.344 48.5005 195.531 48.2558 195.642 47.9742C195.802 47.5546 195.912 47.1174 195.971 46.6717C196.073 46.0032 196.129 45.3285 196.141 44.6522L196.34 39.1088H205.855V51.6294H202.544V41.825H199.462L199.262 45.6518C199.231 46.5649 199.104 47.4719 198.883 48.3579C198.722 49.0251 198.438 49.6554 198.046 50.2158C197.701 50.6538 197.256 51.0004 196.749 51.2255C196.193 51.4593 195.596 51.5761 194.994 51.5688L193.936 51.6799ZM210.702 43.0064H214.442C215.831 42.9219 217.204 43.3446 218.312 44.1978C218.766 44.5826 219.128 45.0672 219.37 45.6148C219.612 46.1625 219.728 46.7587 219.708 47.3583C219.717 48.1576 219.499 48.9427 219.08 49.62C218.629 50.2915 218 50.8201 217.265 51.1447C216.371 51.5192 215.409 51.7014 214.442 51.6799H208.528V39.1593H211.839V48.9435H214.442C214.952 48.965 215.455 48.8121 215.868 48.5094C216.046 48.3817 216.19 48.2118 216.287 48.0146C216.387 47.8178 216.438 47.5996 216.437 47.3785C216.443 47.1498 216.394 46.923 216.295 46.7174C216.196 46.5118 216.05 46.3333 215.868 46.1971C215.463 45.8753 214.957 45.7106 214.442 45.7326H210.702V43.0064ZM222.002 51.6799V39.1593H225.473V44.0161H226.47L229.871 39.1593H233.94L229.522 45.3691L233.99 51.6799H229.871L226.789 47.2371H225.493V51.6799H222.002ZM238.957 51.9121C238.225 51.9215 237.499 51.7807 236.823 51.4981C236.225 51.2333 235.713 50.8028 235.347 50.2562C234.967 49.6322 234.78 48.9082 234.808 48.1761C234.788 47.571 234.919 46.9704 235.187 46.4293C235.421 45.9712 235.764 45.5791 236.184 45.2883C236.643 44.986 237.149 44.7641 237.68 44.632C238.265 44.4911 238.858 44.3899 239.456 44.3291L241.211 44.1171C241.561 44.084 241.901 43.9774 242.208 43.804C242.31 43.7423 242.39 43.6507 242.438 43.5415C242.49 43.4353 242.515 43.3169 242.508 43.1982C242.521 42.9738 242.483 42.7493 242.398 42.5419C242.315 42.336 242.185 42.1527 242.019 42.0067C241.631 41.6994 241.144 41.5483 240.653 41.5827C240.126 41.5555 239.605 41.7006 239.167 41.9966C238.816 42.2404 238.556 42.5958 238.428 43.0064L235.227 42.7438C235.376 41.9928 235.72 41.2956 236.224 40.7244C236.724 40.1543 237.354 39.7174 238.059 39.4521C238.901 39.1351 239.794 38.9809 240.692 38.9978C241.365 38.9974 242.034 39.0788 242.687 39.2401C243.294 39.3848 243.868 39.6416 244.383 39.9974C244.877 40.3358 245.284 40.7894 245.57 41.3201C245.87 41.9129 246.017 42.5728 245.998 43.2386V51.6799H242.707V49.9028H242.607C242.408 50.288 242.137 50.6308 241.809 50.9125C241.45 51.2195 241.038 51.4558 240.593 51.6092C240.081 51.7993 239.542 51.905 238.997 51.9222L238.957 51.9121ZM239.954 49.5191C240.421 49.5307 240.883 49.4267 241.301 49.2162C241.672 49.025 241.988 48.7397 242.218 48.3882C242.45 48.0397 242.569 47.6267 242.558 47.2068V45.8639C242.419 45.9524 242.268 46.0172 242.109 46.0557C241.899 46.1163 241.69 46.1769 241.48 46.2173L240.782 46.3385L240.144 46.4293C239.778 46.477 239.419 46.572 239.077 46.712C238.8 46.8231 238.557 47.0039 238.369 47.2371C238.198 47.4739 238.11 47.7618 238.119 48.055C238.11 48.2649 238.152 48.474 238.24 48.664C238.329 48.854 238.462 49.0193 238.628 49.1455C239.033 49.4121 239.511 49.5428 239.994 49.5191H239.954ZM70.2245 20.9843C69.6351 19.6796 68.969 18.4118 68.2298 17.1877C67.9821 16.7358 67.5925 16.3805 67.1228 16.178C66.6556 15.9774 66.1345 15.9453 65.6467 16.0871C64.4491 16.4223 63.2704 16.8234 62.116 17.2887C61.6306 17.4821 61.2257 17.8386 60.9691 18.2984C60.7065 18.7558 60.6046 19.2896 60.6799 19.813C60.8494 21.4185 61.1087 23.5995 61.1586 24.0539C60.251 24.4477 59.3534 24.8616 58.4757 25.3463L55.8028 22.3171C55.4875 21.9123 55.0435 21.6304 54.5461 21.5195C54.0498 21.4295 53.5381 21.5075 53.09 21.7416C51.9729 22.3373 50.9157 23.0441 49.8586 23.6904C49.4347 23.9776 49.1186 24.4008 48.9609 24.8919C48.7915 25.3891 48.7915 25.9295 48.9609 26.4267C49.4796 28.012 50.2076 30.2031 50.2874 30.4656C49.7488 30.8897 49.2103 31.3239 48.6817 31.7681L45.5699 29.4155C45.1729 29.096 44.6808 28.9221 44.1736 28.9221C43.6665 28.9221 43.1743 29.096 42.7773 29.4155C41.8068 30.2246 40.8843 31.0911 40.0147 32.0105C39.6574 32.3814 39.4299 32.8606 39.3669 33.3747C39.3038 33.8889 39.4087 34.4098 39.6656 34.8579L41.7501 38.5636C40.4078 40.1355 39.1557 41.784 38 43.5011L38.2294 44.107L38.6084 45.1167C38.758 45.4903 38.8976 45.8639 39.0373 46.2375C39.1769 46.6111 39.2766 46.8736 39.3863 47.2472L39.7753 48.4084C39.895 48.7921 39.9847 49.0546 40.1044 49.3575L40.4635 50.549L40.7427 51.4981C40.8624 51.9121 40.9621 52.316 41.0719 52.7906C41.1816 53.2651 41.2414 53.4166 41.3312 53.7296C41.4209 54.0426 41.411 54.1335 41.4608 54.3254C44.2412 48.4126 48.2206 43.1591 53.1398 38.9069C58.0177 34.7304 63.7199 31.6563 69.8655 29.8901C70.1743 27.9422 70.3542 25.9756 70.4041 24.0034V22.1253C70.4041 22.1253 70.2744 21.2165 70.2245 20.9843ZM69.7558 32.9091L69.3169 33.0303C68.8515 33.1649 68.3927 33.3063 67.9406 33.4544L66.6839 33.8684L66.265 34.0501L65.4971 34.353C65.3353 34.4021 65.1783 34.4663 65.0283 34.5449L64.3302 34.8276L63.8415 35.0497C63.6124 35.1396 63.3892 35.2441 63.1732 35.3628L62.6845 35.595L62.0462 35.908L61.5575 36.1806L60.9292 36.5037L60.4405 36.7865L59.8321 37.1399L59.3534 37.4226L58.755 37.7962L58.2862 38.0991L57.6878 38.4929L57.249 38.7958L56.6206 39.23L56.2117 39.5329L55.5834 40.0277L55.2243 40.3003L54.5062 40.8758L54.2469 41.0879L53.2496 41.926L52.3719 42.7438L52.0926 43.0165L51.4743 43.6223L51.1451 43.9656L50.5866 44.531L50.2475 44.9046C50.068 45.0864 49.9084 45.2883 49.7389 45.4701L49.3798 45.8639C49.231 46.0582 49.0711 46.2436 48.9011 46.4192L48.562 46.8736L48.1032 47.439L47.7741 47.8732L47.3352 48.4488L47.0161 48.893L46.5972 49.4888L46.288 49.9432L45.8691 50.5591L45.5799 51.0034C45.4502 51.2255 45.3106 51.4275 45.181 51.6496C45.0513 51.8717 45.0014 51.9424 44.9216 52.0939L44.5028 52.7906L44.2833 53.1945L43.8345 54.0325L43.665 54.3254C43.4755 54.699 43.276 55.0826 43.1065 55.4764L42.9868 55.6986C42.8571 56.0015 42.7075 56.3145 42.5679 56.6376C42.4283 56.9607 42.4382 56.9203 42.3784 57.0617L42.0592 57.819C41.9595 58.0815 41.9296 58.1421 41.8598 58.3138L41.5805 58.9903L41.391 59.5254C41.3312 59.6769 41.2813 59.8485 41.2115 60C41.8498 59.8485 42.4681 59.6769 43.1065 59.485L44.7621 58.9903C45.0014 58.8994 45.2508 58.8287 45.4901 58.7177L46.4875 58.3239L47.2156 58.0209L47.8339 57.7483L48.6916 57.3646L49.3 57.0718L49.9583 56.7386H50.0281L50.3772 56.5568L51.0753 56.1832L51.943 55.6784L52.8207 55.1634C53.5288 54.7091 54.2669 54.2143 55.0049 53.6993L55.713 53.1642L56.0721 52.9016L56.85 52.2958L57.5382 51.7203C57.3886 51.488 57.249 51.2558 57.1193 51.0135C56.8507 50.4325 56.6918 49.8058 56.6505 49.1657V48.5497C56.7064 47.592 57.0306 46.6703 57.5852 45.8924C58.1399 45.1145 58.902 44.5127 59.7822 44.1574C60.9385 43.6925 62.2265 43.6925 63.3827 44.1574C63.6881 44.2859 63.9818 44.4414 64.2604 44.6219L64.5097 44.2887L64.9884 43.6223L65.3774 43.0669C65.5569 42.8347 65.7065 42.5924 65.8661 42.3399L65.9559 42.1986L66.0755 42.0067L66.7138 40.997C66.8834 40.7345 67.043 40.4619 67.1926 40.1892C67.3422 39.9166 67.7411 39.1795 68.0004 38.7049C68.1002 38.5232 68.1999 38.3414 68.2797 38.1597C68.5091 37.7053 68.7385 37.2408 68.9479 36.7764C69.1574 36.3119 69.1873 36.2715 69.287 36.0292L69.666 35.1305L70.0151 34.2117C70.0488 34.0571 70.1025 33.9078 70.1747 33.7674C70.1747 33.6159 70.3143 33.3736 70.3841 33.1919L70.5038 32.9394L69.7558 32.9091Z" fill="#1570EF"/>
<path fill-rule="evenodd" clip-rule="evenodd" d="M27.2014 56.1381C27.072 55.6778 26.9426 55.2076 26.7933 54.7274C26.644 54.2471 26.5246 53.907 26.3853 53.4467C26.346 53.3064 26.296 53.1692 26.236 53.0365L25.9473 52.2862C25.9165 52.1165 25.8485 51.9559 25.7483 51.8159C25.6786 51.6658 25.5791 51.3357 25.4795 51.0956C25.38 50.8554 25.3402 50.7654 25.2606 50.6053C25.1809 50.4452 25.0715 50.1451 24.962 49.915C24.8525 49.6849 24.8127 49.5848 24.743 49.4147L24.4345 48.7644L24.1757 48.2642L23.8871 47.6138L23.27 46.5433L22.9714 46.023L22.6131 45.3927L22.3245 44.9325L21.8965 44.3322L21.6078 43.892C21.4784 43.6819 21.3192 43.4718 21.1898 43.2617L20.9012 42.8415L20.4334 42.1911C20.335 42.071 20.2452 41.9439 20.1647 41.8109L19.5973 41.0806L19.3983 40.7404C19.1196 40.4002 18.8608 40.0701 18.5821 39.7399L17.8158 38.8395L17.5371 38.5593L16.92 37.919L16.5916 37.5788C16.4224 37.3887 16.2333 37.1986 16.0441 37.0186L15.6858 36.6684L15.1484 36.1481L14.7602 35.7879L14.2427 35.2577L13.9341 34.9275C13.755 34.7574 13.5659 34.5973 13.3768 34.4473L12.9388 34.0971L12.3715 33.6569L11.9435 33.3267L11.3663 32.8965C11.217 32.7964 11.0776 32.6764 10.9283 32.5863C10.779 32.4963 10.5302 32.2962 10.3312 32.1661L9.95294 31.856L9.32591 31.4558L8.89793 31.1756L7.77325 30.4653L6.96706 30.0151L6.68838 29.865C6.33007 29.6549 5.95186 29.4648 5.57365 29.2747L5.36464 29.1947L4.44897 28.7444L3.98118 28.5543L3.25461 28.2242L2.79678 28.0141L2.12993 27.7439L1.61238 27.5438L1.15454 27.3737C1.30384 28.0141 1.46308 28.6544 1.65219 29.3047C1.72186 29.5848 1.80148 29.815 1.87115 30.0551L2.14984 30.9555C2.23941 31.2557 2.30908 31.4558 2.40861 31.7059C2.50814 31.956 2.67734 32.4363 2.79678 32.7964L3.08541 33.5368L3.35414 34.1671L3.7224 35.0376C3.81198 35.2577 3.91151 35.4578 4.00108 35.6679L4.32953 36.3382C4.3793 36.4583 4.43901 36.5783 4.49873 36.6984C4.63807 36.9685 4.7376 37.1786 4.86699 37.4087L5.35468 38.3092C5.51393 38.6194 5.68313 38.9195 5.85233 39.1996C6.29026 39.94 6.75805 40.7004 7.2756 41.4408L7.77325 42.1711L8.02207 42.5513L8.6093 43.3317L9.14675 44.022C9.35906 43.8643 9.58566 43.7269 9.82355 43.6118C10.4115 43.3895 11.0369 43.2841 11.6648 43.3017H12.262C12.8785 43.3488 13.48 43.5153 14.0336 43.7919C14.6007 44.0615 15.1084 44.4425 15.5266 44.9125C15.9553 45.3748 16.2931 45.9146 16.5219 46.5033C16.95 47.6894 16.95 48.989 16.5219 50.1751C16.4027 50.4831 16.2526 50.7781 16.074 51.0555L16.4024 51.3257L17.0394 51.8059L17.5769 52.2161L18.2736 52.6964L18.4129 52.8064L18.6021 52.9365L19.5973 53.5868L20.3836 54.077C20.8514 54.3572 21.3789 54.6373 21.8169 54.8975L22.3344 55.1876L23.6781 55.8679L24.4046 56.2181H24.4743L25.3302 56.5983L26.2161 56.9785L26.6341 57.1386L27.2014 57.3587L27.4403 57.4487L27.2113 56.5383L27.2014 56.1381ZM39.9312 59.0295C39.9431 58.8923 39.9191 58.7543 39.8615 58.6293C39.8349 58.2169 39.7682 57.8081 39.6625 57.4087C38.8151 52.7279 37.3664 48.1776 35.3529 43.872L35.4424 44.012L38.4283 40.9305C38.775 40.5628 38.9948 40.0928 39.0553 39.5898C39.1321 39.0898 39.0485 38.5781 38.8165 38.1291C38.151 37.0548 37.4301 36.0162 36.6567 35.0176C36.3573 34.6062 35.93 34.3069 35.4424 34.1671C34.9596 34.0281 34.4443 34.0563 33.9793 34.2472L30.5655 35.6279C30.4261 35.4178 30.2868 35.2077 30.1276 35.0076L29.7892 34.5373C29.6399 34.3272 29.4906 34.1171 29.3313 33.927C29.1721 33.7369 29.0925 33.6069 28.9631 33.4568L28.5152 32.8765L30.7148 29.3247C30.9874 28.8858 31.1098 28.3693 31.0631 27.854C31.023 27.3397 30.8127 26.8536 30.466 26.4733C29.6186 25.5415 28.725 24.6532 27.7886 23.812C27.4144 23.4738 26.9373 23.2728 26.435 23.2417C25.9301 23.2032 25.4273 23.341 25.0117 23.6319L21.8169 25.883L21.6377 25.7229L21.1102 25.2827L20.6424 24.8625L20.1049 24.4323L19.9059 24.2822C20.1746 23.6119 20.8315 21.881 21.3292 20.5503C21.5322 20.0619 21.5638 19.5185 21.4187 19.0096C21.2697 18.5189 20.9701 18.0881 20.5628 17.779C19.5534 17.0325 18.507 16.3379 17.4276 15.6979C16.9905 15.4469 16.4831 15.3484 15.9844 15.4178C15.4844 15.4785 15.0222 15.7161 14.6806 16.0881L11.9435 19.0096L11.4658 18.7494L10.779 18.3993L10.2515 18.1391L9.60459 17.819L9.20647 17.6589C9.27614 17.1386 9.58468 15.0976 9.7937 13.5168C9.86042 12.994 9.75558 12.4636 9.49511 12.0061C9.25475 11.5565 8.86832 11.2034 8.40028 11.0056C7.2555 10.5147 6.08611 10.0839 4.89685 9.71495C4.42386 9.54467 3.90675 9.54467 3.43377 9.71495C2.9509 9.90497 2.54946 10.2589 2.29913 10.7154C1.38346 12.2262 0.139341 14.3373 0.0995297 14.3973C0.0995297 15.3978 2.46312e-07 16.3983 2.46312e-07 17.3988C-0.000206286 19.3563 0.12947 21.3116 0.388165 23.2517H0.5076L1.13464 23.4518L1.8612 23.7019L2.47828 23.932L3.18494 24.1822L3.80202 24.4323L4.48878 24.7224C4.69779 24.8025 4.8869 24.8925 5.08595 24.9826L5.76275 25.2727L6.35993 25.5728L7.03673 25.893L7.614 26.1832L8.2709 26.5333L8.84817 26.8535L9.48515 27.2137L10.0525 27.5438L10.6895 27.934L11.2369 28.2842L11.854 28.6744L12.9985 29.4748L13.526 29.855L14.1133 30.2952L14.6209 30.6954L15.1981 31.1556L15.7157 31.5658C15.9048 31.7159 16.074 31.886 16.2731 32.0361L16.7608 32.4763L17.2982 32.9665L17.7859 33.4168L18.3134 33.927C18.4727 34.0671 18.622 34.2272 18.7713 34.3772L19.2988 34.9075L19.7466 35.3777L20.2542 35.928L20.6723 36.4082L21.16 36.9685L21.5879 37.4688L22.0557 38.0491L22.4638 38.5593L22.9117 39.1696L23.2998 39.6799L23.7378 40.2902L24.116 40.8204C24.2553 41.0305 24.3847 41.2407 24.534 41.4508C24.6652 41.6311 24.7817 41.8218 24.8824 42.021C24.9918 42.2111 25.1511 42.4413 25.2805 42.6614C25.3836 42.8528 25.5 43.0367 25.6288 43.2116L26.007 43.882L26.3255 44.4322C26.4549 44.6624 26.5744 44.8925 26.6938 45.1226C26.8132 45.3527 26.9028 45.5028 26.9924 45.6929C27.082 45.883 27.2412 46.1531 27.3507 46.3832L27.6294 46.9635C27.7189 47.1536 27.8682 47.4537 27.9777 47.6939C28.0872 47.934 28.1569 48.0641 28.2265 48.2642C28.2962 48.4643 28.4555 48.7644 28.555 49.0145L28.8038 49.5848C28.9033 49.8549 29.0029 50.1251 29.1124 50.3952L29.3214 50.9255C29.4408 51.2256 29.5403 51.5358 29.6399 51.8359C29.7018 51.9827 29.755 52.133 29.7991 52.2862C29.9683 52.7564 30.1176 53.2166 30.2569 53.6769C30.3963 54.1371 30.5257 54.6773 30.6551 55.0976C30.6736 55.2525 30.7138 55.4041 30.7745 55.5478C30.7745 55.7079 30.9437 56.2181 31.0134 56.5483C31.083 56.8784 31.1029 56.8885 31.1428 57.0485C31.1826 57.2086 31.2821 57.7089 31.3418 58.049C31.4015 58.3892 31.4214 58.3692 31.4413 58.5293V58.7394L33.0139 59.0996L33.5912 59.2196H33.7007L34.4372 59.3597L35.0543 59.4497L35.741 59.5498L36.4278 59.6398L37.1245 59.7199C37.3583 59.71 37.5924 59.7301 37.8212 59.7799H38.3885L40.0506 60V59.8999C40.0108 59.6098 39.9611 59.3397 39.9312 59.0295ZM44.1114 1.83102C43.4241 1.1478 42.6473 0.562104 41.8024 0.0901538C41.7239 0.0410353 41.6355 0.0102627 41.5436 0.000108936C41.4524 -0.00184247 41.3627 0.0224587 41.2848 0.0701438C41.2044 0.121086 41.1364 0.189455 41.0857 0.270244C41.043 0.354044 41.0193 0.446279 41.0161 0.540378V8.54437C41.007 8.83946 40.8901 9.12085 40.6876 9.33476C40.4902 9.5443 40.2182 9.66662 39.9312 9.67493H34.3874C34.0977 9.66602 33.8228 9.544 33.621 9.33476C33.4207 9.12752 33.3037 8.85312 33.2926 8.56438V0.560388C33.284 0.464579 33.2533 0.372098 33.203 0.290253C33.1549 0.210029 33.0861 0.144353 33.004 0.100159C32.9289 0.0428399 32.8391 0.00814322 32.7452 0.000108936C32.6523 -0.000138174 32.5605 0.0203659 32.4765 0.0601388C31.6197 0.568815 30.8276 1.18027 30.1176 1.88105C29.1238 2.88963 28.3567 4.10081 27.8682 5.43281C27.3713 6.76051 27.161 8.17924 27.2512 9.59489C27.3206 11.0088 27.6864 12.3921 28.3244 13.6542C28.9624 14.9162 29.8584 16.0286 30.9537 16.9185C31.5536 17.4379 32.2238 17.8691 32.9442 18.1992H41.3346C42.0468 17.854 42.7151 17.4241 43.3252 16.9185C44.4145 16.0253 45.3032 14.9103 45.9328 13.6469C46.5602 12.3743 46.9194 10.9852 46.9879 9.56663C47.0564 8.14802 46.8328 6.73048 46.3309 5.4028C45.8319 4.07727 45.0584 2.87344 44.0617 1.87104L44.1114 1.83102ZM38.9061 20.0101H35.3728C35.1304 20.0211 34.9003 20.1207 34.7258 20.2902C34.5622 20.4711 34.4701 20.706 34.467 20.9505V25.5428C34.4701 25.7873 34.5622 26.0222 34.7258 26.2032C34.9003 26.3727 35.1304 26.4723 35.3728 26.4833H38.9061C39.1485 26.4723 39.3785 26.3727 39.553 26.2032C39.7166 26.0222 39.8087 25.7873 39.8118 25.5428V21.0106C39.8242 20.755 39.7387 20.5044 39.5729 20.3102C39.4864 20.2205 39.3855 20.1461 39.2743 20.0901C39.1577 20.0401 39.0328 20.0129 38.9061 20.0101Z" fill="#2E90FA"/>
<path d="M81 30V27.1594H81.5486C81.6787 27.0221 81.7925 26.87 81.8877 26.7061C81.9941 26.5259 82.0778 26.333 82.137 26.1319C82.2243 25.8628 82.2877 25.5863 82.3265 25.3059C82.3265 24.9735 82.4263 24.5806 82.4662 24.1273L82.6856 21.5083H86.8348V27.1594H87.8322V30H86.8348V28.1062H82.0074V30H81ZM82.6856 27.1594H85.8274V22.4552H83.6232L83.4536 24.1273C83.396 24.7328 83.3061 25.3347 83.1843 25.9304C83.113 26.3731 82.9424 26.7935 82.6856 27.1594ZM88.5902 28.1062V27.1594H88.8296C88.9992 27.165 89.1674 27.1269 89.3183 27.0486C89.4637 26.9448 89.5722 26.7964 89.6275 26.6255C89.7323 26.3616 89.7962 26.083 89.817 25.7995C89.817 25.4368 89.8968 24.9836 89.9167 24.4295L90.0364 21.5083H94.3851V28.1062H93.3877V22.4552H90.984L90.8842 24.8123C90.8717 25.2914 90.8284 25.7692 90.7546 26.2427C90.693 26.5926 90.5821 26.9318 90.4254 27.25C90.2926 27.5076 90.0926 27.7236 89.8469 27.8746C89.5681 28.0245 89.255 28.0975 88.9393 28.0861L88.5902 28.1062ZM100.15 28.1062V22.4451H98.4245C98.0936 22.4257 97.7662 22.5217 97.497 22.7171C97.3941 22.8115 97.3119 22.9266 97.2557 23.0549C97.1995 23.1833 97.1704 23.3221 97.1704 23.4625C97.1704 23.6029 97.1995 23.7417 97.2557 23.8701C97.3119 23.9984 97.3941 24.1135 97.497 24.2079C97.7324 24.4018 98.0316 24.499 98.3348 24.4799H100.439V25.4268H98.3049C97.9103 25.436 97.5186 25.3569 97.1578 25.1951C96.8512 25.0488 96.5943 24.8139 96.4198 24.5202C96.25 24.2121 96.1608 23.8654 96.1604 23.5129C96.1571 23.1585 96.2503 22.8101 96.4297 22.5055C96.6172 22.2078 96.888 21.9729 97.2077 21.8306C97.5908 21.6606 98.0063 21.578 98.4245 21.5889H101.108V28.1062H100.15ZM95.8014 28.1062L97.6565 24.8224H98.7337L96.8886 28.1062H95.8014ZM108.239 28.2573C107.851 28.2663 107.466 28.1871 107.112 28.0257C106.785 27.8719 106.506 27.6317 106.304 27.3306C106.097 27.0035 105.993 26.6207 106.005 26.2326C105.994 25.9126 106.07 25.5957 106.224 25.316C106.37 25.0795 106.577 24.8878 106.823 24.7619C107.077 24.6166 107.353 24.5145 107.641 24.4597C107.94 24.3892 108.239 24.3389 108.538 24.2986C108.837 24.2583 109.256 24.2079 109.536 24.1777C109.726 24.1666 109.912 24.1187 110.084 24.0367C110.14 24.0004 110.186 23.9494 110.216 23.8891C110.246 23.8288 110.259 23.7614 110.254 23.6942C110.269 23.5117 110.247 23.3279 110.189 23.1545C110.131 22.9811 110.037 22.8218 109.915 22.6869C109.78 22.5646 109.622 22.4706 109.451 22.4101C109.28 22.3496 109.098 22.3238 108.917 22.3343C108.518 22.3093 108.121 22.4191 107.79 22.6466C107.552 22.827 107.354 23.0572 107.212 23.3215L106.214 22.979C106.363 22.6165 106.596 22.2953 106.892 22.0422C107.169 21.8226 107.489 21.6647 107.83 21.5788C108.154 21.4843 108.49 21.4368 108.827 21.4378C109.069 21.4379 109.31 21.4649 109.546 21.5184C109.828 21.5662 110.099 21.6688 110.343 21.8206C110.616 21.9878 110.837 22.2285 110.982 22.5156C111.17 22.9072 111.259 23.3398 111.241 23.7748V28.1062H110.244V27.2097C110.158 27.3831 110.044 27.5399 109.905 27.6731C109.721 27.8526 109.504 27.993 109.266 28.0861C108.941 28.2223 108.59 28.2809 108.239 28.2573ZM108.389 27.3508C108.735 27.3624 109.079 27.2826 109.386 27.1191C109.648 26.9769 109.865 26.7642 110.014 26.5046C110.15 26.2655 110.223 25.9947 110.224 25.7189V24.7922C110.145 24.8637 110.048 24.9124 109.944 24.9332C109.784 24.9792 109.621 25.0162 109.456 25.044L108.907 25.1145L108.488 25.1749C108.24 25.2013 107.996 25.2554 107.76 25.3361C107.552 25.4026 107.364 25.5203 107.212 25.6786C107.074 25.8486 107.003 26.0637 107.012 26.283C107.003 26.4397 107.034 26.5961 107.102 26.7372C107.171 26.8783 107.273 26.9994 107.401 27.0888C107.698 27.2719 108.041 27.363 108.389 27.3508ZM113.056 28.1062V21.5083H115.69C116.286 21.4775 116.875 21.6475 117.365 21.9918C117.561 22.1381 117.719 22.3297 117.827 22.5505C117.935 22.7714 117.988 23.015 117.984 23.261C117.993 23.4331 117.967 23.6053 117.907 23.7666C117.847 23.9279 117.754 24.0748 117.634 24.1978C117.374 24.4216 117.062 24.5742 116.727 24.6411C116.974 24.678 117.211 24.7636 117.425 24.8929C117.657 25.0364 117.851 25.2331 117.993 25.4671C118.152 25.727 118.232 26.0282 118.223 26.3334C118.227 26.6548 118.137 26.9704 117.964 27.2399C117.787 27.5188 117.534 27.7394 117.235 27.8746C116.878 28.0355 116.49 28.1147 116.098 28.1062H113.056ZM114.054 27.1795H116.178C116.469 27.1986 116.757 27.1089 116.986 26.9277C117.084 26.8464 117.163 26.7431 117.215 26.6259C117.267 26.5088 117.291 26.381 117.285 26.2528C117.293 26.1049 117.27 25.957 117.219 25.8184C117.167 25.6797 117.088 25.5533 116.986 25.4469C116.877 25.3464 116.75 25.2688 116.611 25.2186C116.473 25.1684 116.325 25.1467 116.178 25.1548H114.054V27.1795ZM114.054 24.2784H115.69C115.924 24.2826 116.157 24.2451 116.378 24.1676C116.556 24.1021 116.711 23.9868 116.827 23.8352C116.928 23.6876 116.981 23.5112 116.976 23.3315C116.98 23.2022 116.951 23.0741 116.891 22.9594C116.832 22.8448 116.744 22.7475 116.637 22.6768C116.352 22.5047 116.021 22.4239 115.69 22.4451H113.974L114.054 24.2784ZM119.44 22.4552V21.5083H124.666V22.4552H122.572V28.1062H121.574V22.4552H119.44ZM128.526 28.2473C127.977 28.2601 127.435 28.1095 126.97 27.8141C126.535 27.5183 126.19 27.107 125.973 26.6255C125.718 26.0668 125.592 25.4573 125.604 24.8425C125.592 24.2245 125.718 23.6118 125.973 23.0495C126.197 22.5503 126.564 22.1297 127.026 21.841C127.487 21.5523 128.023 21.4084 128.566 21.4277C129.096 21.428 129.614 21.5832 130.058 21.8746C130.502 22.166 130.854 22.581 131.069 23.0696C131.327 23.6308 131.453 24.2443 131.438 24.8627C131.455 25.4779 131.329 26.0886 131.069 26.6456C130.854 27.1289 130.509 27.5409 130.072 27.8343C129.597 28.1312 129.044 28.2753 128.486 28.2473H128.526ZM128.526 27.3306C128.923 27.3486 129.314 27.2277 129.633 26.9881C129.927 26.7497 130.149 26.4318 130.271 26.0715C130.415 25.678 130.485 25.2616 130.481 24.8425C130.485 24.4235 130.414 24.0072 130.271 23.6136C130.146 23.252 129.925 22.9317 129.633 22.6869C129.308 22.4581 128.922 22.3354 128.526 22.3354C128.13 22.3354 127.744 22.4581 127.419 22.6869C127.127 22.9317 126.906 23.252 126.781 23.6136C126.638 24.0072 126.567 24.4235 126.571 24.8425C126.567 25.2616 126.638 25.678 126.781 26.0715C126.903 26.4318 127.125 26.7497 127.419 26.9881C127.727 27.2189 128.103 27.3394 128.486 27.3306H128.526ZM136.006 22.4552V21.5083H141.313V22.4552H139.128V28.1062H138.131V22.4552H136.006ZM144.355 28.2573C143.967 28.2653 143.582 28.1861 143.228 28.0257C142.905 27.8704 142.629 27.6303 142.43 27.3306C142.223 27.0035 142.118 26.6207 142.131 26.2326C142.115 25.9121 142.191 25.5939 142.35 25.316C142.495 25.0824 142.698 24.8913 142.938 24.7619C143.194 24.6182 143.47 24.5162 143.756 24.4597C144.056 24.3892 144.365 24.3389 144.664 24.2986C144.963 24.2583 145.382 24.2079 145.661 24.1777C145.848 24.1682 146.032 24.1202 146.2 24.0367C146.259 24.0026 146.307 23.9523 146.339 23.8917C146.371 23.8311 146.385 23.7626 146.379 23.6942C146.393 23.511 146.369 23.327 146.309 23.1536C146.249 22.9802 146.154 22.8213 146.03 22.6869C145.896 22.5632 145.739 22.4682 145.567 22.4076C145.396 22.347 145.214 22.3221 145.033 22.3343C144.633 22.3093 144.237 22.4191 143.906 22.6466C143.662 22.8212 143.464 23.0527 143.327 23.3215L142.33 22.979C142.476 22.6147 142.709 22.2928 143.008 22.0422C143.284 21.8208 143.604 21.6627 143.946 21.5788C144.27 21.4834 144.606 21.4359 144.943 21.4378C145.188 21.4383 145.432 21.4653 145.671 21.5184C145.951 21.5665 146.219 21.6691 146.459 21.8206C146.735 21.9872 146.959 22.2278 147.108 22.5156C147.292 22.9082 147.378 23.3407 147.357 23.7748V28.1062H146.359V27.2097C146.27 27.3832 146.152 27.5399 146.01 27.6731C145.831 27.8525 145.617 27.9931 145.382 28.0861C145.044 28.2256 144.679 28.2842 144.315 28.2573H144.355ZM144.504 27.3508C144.851 27.3593 145.194 27.2796 145.502 27.1191C145.75 26.9792 145.957 26.7766 146.104 26.5311C146.251 26.2856 146.332 26.0057 146.34 25.7189V24.7922C146.257 24.8633 146.157 24.9118 146.05 24.9332C145.89 24.9804 145.727 25.0174 145.562 25.044L145.023 25.1145L144.604 25.1749C144.356 25.2002 144.112 25.2543 143.876 25.3361C143.668 25.4026 143.479 25.5203 143.327 25.6786C143.185 25.8461 143.114 26.063 143.128 26.283C143.118 26.4388 143.147 26.5946 143.214 26.7356C143.28 26.8767 143.381 26.9982 143.507 27.0888C143.795 27.2652 144.127 27.356 144.464 27.3508H144.504ZM155.196 28.2473C154.649 28.2633 154.11 28.1149 153.646 27.8207C153.183 27.5266 152.816 27.1001 152.593 26.5953C152.353 26.0432 152.234 25.4453 152.244 24.8425C152.229 24.2328 152.349 23.6273 152.593 23.0696C152.814 22.5848 153.158 22.1678 153.591 21.8609C154.052 21.5658 154.59 21.4151 155.137 21.4277C155.565 21.4205 155.99 21.5064 156.383 21.6795C156.738 21.8457 157.049 22.0942 157.291 22.4048C157.523 22.722 157.674 23.0923 157.73 23.4826H156.732C156.643 23.1729 156.467 22.8963 156.224 22.6869C155.926 22.4417 155.55 22.3161 155.167 22.3343C154.811 22.3369 154.464 22.4455 154.169 22.6466C153.866 22.8668 153.628 23.1663 153.481 23.5129C153.312 23.9243 153.23 24.367 153.242 24.8123C153.233 25.2672 153.314 25.7194 153.481 26.142C153.624 26.491 153.858 26.794 154.159 27.0183C154.452 27.2228 154.8 27.3317 155.157 27.3306C155.399 27.3357 155.64 27.2911 155.865 27.1997C156.077 27.1162 156.263 26.9771 156.403 26.7967C156.558 26.6212 156.667 26.4103 156.722 26.1823H157.72C157.661 26.5485 157.514 26.8945 157.291 27.1896C157.066 27.5097 156.764 27.7663 156.413 27.935C156.024 28.136 155.594 28.2429 155.157 28.2473H155.196ZM159.236 28.1062V21.5083H160.233V28.1062H159.236ZM159.745 20.4103C159.651 20.4136 159.557 20.3974 159.47 20.3628C159.382 20.3281 159.303 20.2757 159.236 20.2089C159.163 20.1474 159.104 20.0704 159.063 19.9834C159.023 19.8963 159.002 19.8014 159.002 19.7052C159.002 19.609 159.023 19.5141 159.063 19.427C159.104 19.34 159.163 19.263 159.236 19.2015C159.372 19.0755 159.55 19.0056 159.735 19.0056C159.919 19.0056 160.097 19.0755 160.233 19.2015C160.307 19.263 160.365 19.34 160.406 19.427C160.446 19.5141 160.467 19.609 160.467 19.7052C160.467 19.8014 160.446 19.8963 160.406 19.9834C160.365 20.0704 160.307 20.1474 160.233 20.2089C160.165 20.2788 160.082 20.3331 159.991 20.3678C159.9 20.4026 159.802 20.4171 159.705 20.4103H159.745ZM161.45 28.1062V27.1594H161.689C161.859 27.165 162.027 27.1269 162.178 27.0486C162.327 26.9458 162.439 26.7975 162.497 26.6255C162.593 26.3587 162.656 26.0814 162.687 25.7995C162.687 25.4368 162.757 24.9836 162.777 24.4295L162.896 21.5083H167.255V28.1062H166.258V22.4552H163.864L163.754 24.8123C163.738 25.2917 163.692 25.7695 163.614 26.2427C163.557 26.5937 163.446 26.9335 163.285 27.25C163.156 27.5098 162.955 27.7265 162.707 27.8746C162.432 28.0246 162.122 28.0976 161.809 28.0861L161.45 28.1062ZM169.958 23.8956H171.833C172.473 23.8546 173.103 24.0679 173.588 24.49C173.784 24.6836 173.938 24.9159 174.041 25.1724C174.144 25.4289 174.194 25.7041 174.187 25.9808C174.19 26.3575 174.097 26.7286 173.918 27.0586C173.728 27.3843 173.451 27.6496 173.12 27.8242C172.721 28.0255 172.279 28.1225 171.833 28.1062H169.09V21.5083H170.088V27.1594H171.823C172.182 27.1787 172.536 27.068 172.82 26.8471C172.942 26.7502 173.04 26.6259 173.105 26.4843C173.171 26.3427 173.203 26.1875 173.199 26.0312C173.204 25.8689 173.172 25.7078 173.106 25.5597C173.04 25.4115 172.943 25.2801 172.82 25.1749C172.54 24.9435 172.185 24.8251 171.823 24.8425H169.948L169.958 23.8956ZM179.752 21.5083V22.4552H176.76V28.1062H175.763V21.5083H179.752ZM183.513 28.2473C182.966 28.2611 182.428 28.1103 181.967 27.8141C181.53 27.5208 181.184 27.1087 180.969 26.6255C180.71 26.0685 180.584 25.4578 180.6 24.8425C180.585 24.2242 180.712 23.6106 180.969 23.0495C181.151 22.6862 181.406 22.3648 181.717 22.1053C182.027 21.8457 182.388 21.6537 182.775 21.5412C183.163 21.4287 183.569 21.3982 183.969 21.4514C184.368 21.5047 184.753 21.6406 185.098 21.8508C185.538 22.1452 185.884 22.5614 186.096 23.0495C186.357 23.6098 186.487 24.2234 186.475 24.8425C186.488 25.4586 186.359 26.0693 186.096 26.6255C185.884 27.1108 185.538 27.5237 185.098 27.8141C184.626 28.1182 184.073 28.2693 183.513 28.2473ZM183.513 27.3306C183.91 27.3486 184.301 27.2277 184.62 26.9881C184.914 26.7497 185.135 26.4318 185.258 26.0715C185.401 25.678 185.472 25.2616 185.467 24.8425C185.471 24.4235 185.4 24.0072 185.258 23.6136C185.132 23.252 184.912 22.9317 184.62 22.6869C184.302 22.4437 183.911 22.3192 183.513 22.3343C183.115 22.3208 182.724 22.4452 182.405 22.6869C182.116 22.9343 181.896 23.2538 181.767 23.6136C181.625 24.0072 181.554 24.4235 181.558 24.8425C181.553 25.2616 181.624 25.678 181.767 26.0715C181.894 26.4296 182.115 26.7464 182.405 26.9881C182.725 27.2262 183.116 27.347 183.513 27.3306ZM190.654 28.2473C190.108 28.2654 189.569 28.1176 189.106 27.8231C188.644 27.5287 188.28 27.1009 188.061 26.5953C187.812 26.0456 187.69 25.4466 187.702 24.8425C187.69 24.232 187.813 23.6265 188.061 23.0696C188.282 22.5848 188.626 22.1678 189.058 21.8609C189.523 21.5655 190.065 21.4149 190.614 21.4277C191.04 21.4194 191.462 21.5053 191.851 21.6795C192.206 21.8457 192.517 22.0942 192.758 22.4048C192.991 22.722 193.141 23.0923 193.197 23.4826H192.2C192.111 23.1729 191.934 22.8963 191.691 22.6869C191.395 22.4399 191.018 22.3142 190.634 22.3343C190.278 22.3369 189.931 22.4455 189.637 22.6466C189.335 22.8659 189.1 23.1659 188.958 23.5129C188.781 23.9221 188.696 24.3659 188.709 24.8123C188.7 25.2672 188.781 25.7194 188.948 26.142C189.091 26.491 189.326 26.794 189.627 27.0183C189.92 27.2216 190.268 27.3305 190.624 27.3306C190.866 27.3357 191.107 27.2911 191.332 27.1997C191.546 27.114 191.734 26.9755 191.881 26.7967C192.028 26.6181 192.134 26.408 192.19 26.1823H193.187C193.129 26.5485 192.981 26.8945 192.758 27.1896C192.534 27.5097 192.232 27.7663 191.881 27.935C191.504 28.131 191.088 28.2378 190.664 28.2473H190.654ZM194.693 28.1062V21.5083H199.83V28.1062H198.833V22.4552H195.701V28.1062H194.693ZM200.768 22.4552V21.5083H206.074V22.4552H203.929V28.1062H202.932V22.4552H200.768ZM209.934 28.2473C209.363 28.262 208.8 28.1154 208.308 27.8242C207.848 27.5432 207.484 27.129 207.261 26.6356C207.003 26.0817 206.876 25.4746 206.892 24.8627C206.878 24.2477 207.004 23.6378 207.261 23.0797C207.474 22.5871 207.819 22.1648 208.258 21.8609C208.719 21.5647 209.258 21.4139 209.804 21.4277C210.143 21.4309 210.48 21.4887 210.801 21.599C211.138 21.7188 211.447 21.9074 211.709 22.153C211.997 22.436 212.218 22.7801 212.357 23.1603C212.529 23.6585 212.61 24.1841 212.597 24.7116V25.1447H207.56V24.2784H211.549C211.554 23.9301 211.479 23.5854 211.33 23.2711C211.187 22.9862 210.97 22.7459 210.702 22.5761C210.397 22.3985 210.049 22.3092 209.697 22.3181C209.345 22.327 209.003 22.4337 208.707 22.6264C208.421 22.8222 208.191 23.0895 208.039 23.4021C207.883 23.7145 207.805 24.0599 207.809 24.4094V24.9936C207.794 25.4305 207.879 25.865 208.059 26.2628C208.215 26.591 208.465 26.8645 208.777 27.0486C209.104 27.2271 209.472 27.3173 209.844 27.3105C210.088 27.3163 210.331 27.2788 210.562 27.1997C210.769 27.1296 210.956 27.0124 211.111 26.8572C211.275 26.6964 211.401 26.5001 211.48 26.283L212.477 26.555C212.381 26.8872 212.203 27.189 211.958 27.4313C211.707 27.6881 211.405 27.8873 211.071 28.0156C210.711 28.1592 210.33 28.2377 209.944 28.2473H209.934ZM214.741 21.5083L216.297 24.2079L217.863 21.5083H219.02L216.915 24.8123L219.03 28.1062H217.873L216.307 25.5476L214.751 28.1062H213.594L215.669 24.8123L213.594 21.5083H214.741ZM224.825 24.3489V25.2857H221.214V24.3489H224.825ZM221.454 21.5083V28.1062H220.456V21.5083H221.454ZM225.583 21.5083V28.1062H224.585V21.5083H225.583ZM227.398 28.1062V21.5083H228.395V28.1062H227.398ZM227.907 20.4103C227.718 20.4135 227.535 20.3411 227.398 20.2089C227.325 20.1474 227.266 20.0704 227.225 19.9834C227.185 19.8963 227.164 19.8014 227.164 19.7052C227.164 19.609 227.185 19.5141 227.225 19.427C227.266 19.34 227.325 19.263 227.398 19.2015C227.537 19.0729 227.718 19.001 227.907 19.0001C227.999 18.9987 228.09 19.0159 228.176 19.0504C228.262 19.085 228.34 19.1364 228.405 19.2015C228.482 19.2608 228.544 19.337 228.587 19.4244C228.629 19.5117 228.652 19.6078 228.652 19.7052C228.652 19.8026 228.629 19.8987 228.587 19.986C228.544 20.0734 228.482 20.1496 228.405 20.2089C228.344 20.2722 228.272 20.3227 228.191 20.3572C228.111 20.3918 228.024 20.4099 227.937 20.4103H227.907ZM230.271 28.1062V21.5083H231.268V24.3792H231.936L234.28 21.5083H235.577L232.934 24.6914L235.607 28.1062H234.31L232.176 25.326H231.268V28.1062H230.271ZM237.701 26.6154L240.843 21.5083H242V28.1062H241.003V23.0092L237.871 28.1062H236.694V21.5083H237.691L237.701 26.6154Z" fill="#41464C"/>
</svg>
