<svg xmlns="http://www.w3.org/2000/svg" width="67" height="56" viewBox="0 0 67 56" fill="none">
  <path fill-rule="evenodd" clip-rule="evenodd" d="M25.7902 52.3718C25.6717 51.9408 25.5413 51.4977 25.3991 51.0547C25.2806 50.6715 25.1502 50.2883 25.0198 49.8573C24.9797 49.7269 24.9322 49.599 24.8776 49.4741L24.605 48.7796C24.605 48.6359 24.4865 48.4802 24.4154 48.3366C24.3443 48.1929 24.2494 47.8935 24.1546 47.666C24.0598 47.4385 24.0243 47.3547 23.9531 47.211C23.882 47.0673 23.7754 46.7799 23.6687 46.5644C23.562 46.3489 23.5265 46.2531 23.4554 46.0974L23.1709 45.4867L22.922 45.0197L22.6257 44.421L22.045 43.4152L21.7842 42.9602L21.4405 42.3734C21.3575 42.2297 21.2627 42.0861 21.1679 41.9424L20.8005 41.3556L20.5279 40.9485C20.3975 40.745 20.2553 40.5534 20.1249 40.3618L19.8523 39.9666L19.4138 39.356C19.319 39.2482 19.236 39.1165 19.153 39.0087L18.6197 38.3262L18.4301 38.0029C18.1693 37.6915 17.9204 37.3802 17.6597 37.0809L16.9248 36.2427L16.6641 35.9792L16.1071 35.3805L15.7989 35.0692C15.633 34.8896 15.4552 34.71 15.2774 34.5424L14.9337 34.2191L14.4241 33.7281L14.0566 33.3928L13.5707 32.9019L13.1796 32.5786C13.0137 32.4229 12.8359 32.2792 12.6581 32.1355L12.267 31.8123L11.7336 31.3932L11.3307 31.0938L10.7855 30.6867C10.6432 30.5909 10.5129 30.4831 10.3706 30.3993C10.1877 30.258 9.99782 30.1261 9.80173 30.0042L9.39876 29.7168L8.80615 29.3456L8.40318 29.0821L7.33649 28.4236L6.56611 27.9925L6.30536 27.8488C5.96165 27.6572 5.60609 27.4776 5.25052 27.298L5.04904 27.2262L4.18383 26.8071L3.79271 26.6394L3.10529 26.3281L2.65491 26.1365L2.0149 25.8851L1.52896 25.6935L1.09043 25.5378C1.23266 26.1365 1.38674 26.7352 1.56452 27.3339C1.63563 27.5974 1.70674 27.8129 1.77786 28.0404C1.84897 28.2679 1.95564 28.6032 2.0386 28.8786C2.12157 29.154 2.19268 29.3456 2.2875 29.5731C2.38231 29.8006 2.53639 30.2556 2.65491 30.5909L2.92751 31.2854L3.1764 31.8721L3.53197 32.6864C3.61493 32.8899 3.70975 33.0815 3.79271 33.2731L4.10087 33.8957C4.14902 34.011 4.20444 34.123 4.2668 34.231C4.39717 34.4825 4.49199 34.686 4.61051 34.9016L5.07274 35.7398C5.22682 36.0271 5.39275 36.3025 5.54682 36.566C5.96165 37.2605 6.41203 37.967 6.89797 38.6615L7.37205 39.344C7.44316 39.4637 7.52613 39.5715 7.60909 39.6912L8.16614 40.4217C8.33207 40.6492 8.50985 40.8647 8.67578 41.0683C8.87618 40.9197 9.09054 40.7913 9.31579 40.6851C9.87242 40.4753 10.4643 40.3777 11.0581 40.3977H11.627C12.2115 40.4399 12.7827 40.5944 13.31 40.8527C13.8434 41.1028 14.3227 41.4568 14.7204 41.8945C15.1202 42.3247 15.4341 42.8288 15.6448 43.3793C15.8447 43.9232 15.9451 44.4994 15.9411 45.0796C15.9427 45.6696 15.8341 46.2545 15.6211 46.8039C15.5027 47.0911 15.3599 47.3676 15.1944 47.6301L15.5026 47.8815L16.1071 48.3246L16.6167 48.7078L17.2804 49.1628L17.4108 49.2586L17.5886 49.3783L18.5367 49.989L19.2834 50.444C19.7219 50.7074 20.1842 50.9709 20.6346 51.2103L21.1323 51.4857L22.4005 52.1204L23.0879 52.4437H23.1591L23.965 52.8029L24.8065 53.1502L25.2095 53.3058L25.7428 53.5094L25.968 53.5932L25.7547 52.743L25.7902 52.3718Z" fill="#2E90FA"/>
  <path fill-rule="evenodd" clip-rule="evenodd" d="M37.8557 55.1019C37.8557 54.9822 37.8557 54.8505 37.7964 54.7307C37.7964 54.3476 37.6779 53.9764 37.6068 53.5932C36.7983 49.2193 35.4235 44.9719 33.5178 40.9605L33.6008 41.0922L36.4097 38.2184C36.7355 37.8769 36.9428 37.4378 37.0005 36.9671C37.0582 36.4964 36.9632 36.0195 36.7297 35.6081C36.1194 34.5893 35.4588 33.6022 34.7504 32.6504C34.4669 32.2628 34.0636 31.9817 33.6042 31.8516C33.1449 31.7215 32.6557 31.7498 32.2141 31.932L28.9784 33.2132C28.8498 33.0147 28.7113 32.8229 28.5636 32.6385L28.2436 32.1954C28.1014 32.0038 27.9592 31.8122 27.8051 31.6326C27.651 31.453 27.5799 31.3333 27.4614 31.1896L27.0347 30.6508L29.1207 27.3339C29.3804 26.9276 29.4982 26.4453 29.4552 25.9636C29.4123 25.4819 29.2111 25.0285 28.8836 24.6757C28.0825 23.8044 27.2359 22.977 26.3473 22.197C25.9888 21.8791 25.5361 21.6902 25.06 21.6598C24.5839 21.6295 24.1113 21.7595 23.7161 22.0294L20.682 24.1249L20.516 23.9812L20.0182 23.5621L19.5679 23.1789L19.0582 22.7718L18.9042 22.652C19.153 22.0294 19.7812 20.4129 20.2553 19.1676C20.4266 18.7158 20.4451 18.2194 20.3079 17.7558C20.1707 17.2923 19.8855 16.8877 19.4968 16.6051C18.5367 15.9106 17.5412 15.264 16.5219 14.6653C16.1089 14.4261 15.6293 14.3317 15.1576 14.3966C14.686 14.4616 14.2489 14.6824 13.9144 15.0245L11.2951 17.7067L10.8447 17.4672L10.1929 17.132L9.69506 16.8925L9.07875 16.5931L8.69949 16.4494C8.7706 15.9585 9.05505 14.0546 9.25654 12.5818C9.32799 12.1045 9.2397 11.6168 9.00568 11.196C8.77165 10.7752 8.40528 10.4454 7.96466 10.2588C6.87426 9.80379 5.77202 9.39667 4.64607 9.06139C4.18956 8.91926 3.69916 8.93513 3.25259 9.10649C2.80602 9.27784 2.42884 9.59488 2.18083 10.0074C1.31562 11.4083 0.130413 13.3721 0.0948566 13.432C0.0948566 14.3659 3.98692e-05 15.2999 3.98692e-05 16.2459C-0.00254144 18.0723 0.120224 19.8968 0.367455 21.7061H0.485976L1.07858 21.8977L1.766 22.1252L2.34676 22.3407L3.02233 22.5802L3.60308 22.8077L4.25495 23.0831C4.45643 23.155 4.63421 23.2388 4.82385 23.3226L5.46386 23.598L6.03276 23.8734L6.67278 24.1728L7.21797 24.4482L7.84613 24.7715L8.39133 25.0708L8.99579 25.4061L9.52913 25.7174L10.1336 26.0766L10.6551 26.3999L11.2358 26.7711L12.3262 27.5135L12.824 27.8728C13.0137 28.0045 13.2033 28.1362 13.3811 28.2799L13.867 28.6511L14.4122 29.0821L14.8981 29.4653C15.0759 29.609 15.2418 29.7647 15.4315 29.9084L15.8937 30.3155L16.4034 30.7705L16.8656 31.1896L17.3634 31.6686C17.5175 31.8003 17.6597 31.944 17.8019 32.0877L18.2997 32.5786L18.7264 33.0216L19.2005 33.5365L19.6034 33.9796L20.0657 34.5064L20.4686 34.9734L20.9072 35.5123L21.2983 35.9912L21.725 36.554L22.0924 37.033L22.5072 37.6077L22.8628 38.0987C22.9931 38.2903 23.1235 38.4938 23.2657 38.6854C23.408 38.877 23.4909 39.0207 23.5976 39.2003C23.7043 39.3799 23.8583 39.5954 23.9769 39.799C24.0954 40.0026 24.1902 40.1462 24.3087 40.3139L24.6643 40.9365L24.9724 41.4514C25.091 41.667 25.2095 41.8825 25.3161 42.098C25.4228 42.3136 25.5176 42.4453 25.6006 42.6249C25.6836 42.8045 25.8376 43.056 25.9443 43.2715C26.051 43.487 26.1221 43.6307 26.205 43.8103C26.288 43.9899 26.4302 44.2653 26.5369 44.4929C26.6436 44.7204 26.7028 44.8401 26.7739 45.0197C26.8451 45.1993 26.9873 45.4867 27.0821 45.7262L27.3191 46.2531C27.414 46.5045 27.5088 46.756 27.6154 47.0074L27.8051 47.5103C27.9236 47.7857 28.0184 48.0731 28.1132 48.3605C28.1717 48.4974 28.2231 48.6373 28.2673 48.7796C28.4253 49.2107 28.5676 49.6417 28.694 50.0728C28.8244 50.5159 28.9547 50.9589 29.0733 51.4019C29.0733 51.5456 29.1444 51.6773 29.1918 51.821C29.2392 51.9647 29.3459 52.4437 29.417 52.755C29.4881 53.0663 29.4999 53.0663 29.5355 53.222C29.571 53.3777 29.6659 53.8327 29.7251 54.144C29.7844 54.4553 29.7962 54.4434 29.8199 54.5871V54.7906L31.3133 55.1259L31.8585 55.2337H31.9652L32.6644 55.3654L33.2452 55.4492L33.8971 55.545L34.5489 55.6288L35.2126 55.7006C35.4497 55.7006 35.663 55.7006 35.8645 55.7605H36.4097L37.986 55.9641C37.986 55.9641 37.986 55.9042 37.986 55.8683C37.9386 55.6049 37.8912 55.3534 37.8557 55.1019Z" fill="#2E90FA"/>
  <path fill-rule="evenodd" clip-rule="evenodd" d="M66.7393 19.9339C66.7393 19.7303 65.6963 17.8624 64.8785 16.4255C64.6422 16.005 64.2735 15.6764 63.8311 15.492C63.3887 15.3075 62.898 15.2779 62.4369 15.4077C61.3042 15.7193 60.1886 16.091 59.0946 16.5213C58.6408 16.6955 58.2589 17.0201 58.0113 17.4421C57.7637 17.864 57.6651 18.3584 57.7316 18.8443C57.8976 20.3291 58.1346 22.3407 58.182 22.7598C57.3287 23.131 56.4753 23.5142 55.6457 23.9572L53.1212 21.1193C52.802 20.7605 52.374 20.5188 51.9043 20.4322C51.4346 20.3455 50.9497 20.4187 50.5256 20.6404C49.4707 21.1912 48.4633 21.8378 47.4677 22.4365C47.0683 22.7024 46.7678 23.095 46.6133 23.5523C46.4588 24.0097 46.4592 24.5059 46.6144 24.963C47.1122 26.4359 47.7996 28.4595 47.8707 28.7229C47.3611 29.1061 46.8514 29.5132 46.3536 29.9203L43.4025 27.7291C43.0235 27.4349 42.5589 27.2754 42.0809 27.2754C41.603 27.2754 41.1384 27.4349 40.7594 27.7291C39.8447 28.4796 38.9703 29.279 38.1401 30.1239C37.8035 30.4636 37.5882 30.9068 37.5281 31.3837C37.468 31.8606 37.5666 32.3441 37.8083 32.7582L39.7876 36.1828C38.5173 37.6339 37.3302 39.1571 36.2319 40.745C36.303 40.9246 36.3742 41.1161 36.4571 41.3077L36.8127 42.1938C36.9549 42.5411 37.0853 42.8883 37.2157 43.2356C37.346 43.5828 37.4408 43.8223 37.5475 44.1217C37.6542 44.421 37.7964 44.8281 37.9149 45.1874C38.0335 45.5466 38.1164 45.7861 38.2231 46.0734L38.5668 47.1751L38.8275 48.0492C38.9461 48.4323 39.0409 48.8035 39.1475 49.2466C39.2542 49.6896 39.3016 49.8213 39.3846 50.1087C39.4676 50.3961 39.4676 50.4799 39.515 50.6595C42.1699 45.2062 45.9379 40.3828 50.5711 36.5069C55.2042 32.631 60.5974 29.7904 66.3955 28.1721C66.6908 26.3702 66.861 24.5497 66.9052 22.7239C66.9052 22.2808 66.9052 21.8498 66.9052 21.4067V20.9876C66.9052 20.9876 66.7867 20.1494 66.7393 19.9339Z" fill="#1570EF"/>
  <path fill-rule="evenodd" clip-rule="evenodd" d="M66.2889 30.9621L65.874 31.0699C65.4355 31.1896 64.997 31.3213 64.5703 31.465L63.3851 31.8482L62.994 32.0158L62.2592 32.2912C62.1083 32.3386 61.9616 32.3987 61.8206 32.4708L61.1569 32.7343L60.6947 32.9378C60.4813 33.0216 60.2799 33.1174 60.0665 33.2252C59.8532 33.333 59.7584 33.3689 59.6043 33.4407L58.9998 33.7281L58.5376 33.9796L57.945 34.2789L57.4828 34.5424L56.902 34.8657L56.4516 35.1291L55.8827 35.4763L55.4442 35.7517L54.8753 36.1229L54.4605 36.3983L53.8679 36.8055L53.4767 37.0809L52.8841 37.5359L52.5404 37.7873L51.8649 38.3262L51.616 38.5178L50.7034 39.2961L49.8737 40.0505L49.613 40.3019L49.0204 40.8647L48.7122 41.176L48.1789 41.7029L47.8588 42.0501C47.6929 42.2178 47.5388 42.3974 47.3848 42.565L47.0411 42.9362C46.8988 43.1158 46.7447 43.2835 46.5907 43.4511L46.2707 43.8463L45.8321 44.3731L45.524 44.7683L45.1092 45.3071L44.801 45.7142C44.6706 45.8938 44.5284 46.0854 44.4099 46.265L44.1136 46.6841L43.7225 47.2589L43.4499 47.666C43.3195 47.8696 43.1891 48.0611 43.0706 48.2647C42.9807 48.396 42.8977 48.5319 42.8217 48.6718L42.4306 49.3184L42.2172 49.6896L41.7906 50.4679L41.6365 50.7314C41.4587 51.0786 41.2691 51.4379 41.1031 51.7971L40.9965 52.0006C40.8661 52.288 40.7239 52.5754 40.5935 52.8747C40.4631 53.1741 40.475 53.1382 40.4157 53.2699C40.3565 53.4016 40.2142 53.7249 40.1194 53.9644C40.0246 54.2039 39.989 54.2637 39.9298 54.4194L39.669 55.066L39.4913 55.557C39.432 55.7006 39.3846 55.8563 39.3253 56C39.9298 55.8563 40.5105 55.7006 41.115 55.521L42.6439 55.0421C42.8691 54.9583 43.1062 54.8864 43.3313 54.7906L44.3269 54.4194L45.0143 54.144L45.5951 53.8926L46.4129 53.5333L46.9818 53.2699L47.61 52.9586H47.6692L48.0011 52.7909L48.6648 52.4437L49.4826 51.9767C49.7789 51.821 50.0396 51.6534 50.3122 51.4977C50.9878 51.0786 51.6871 50.6236 52.3863 50.1446L53.0501 49.6537L53.3938 49.4142L54.1286 48.8514L54.7686 48.3485C54.6244 48.1377 54.4938 47.9177 54.3775 47.69C54.1247 47.1562 53.972 46.5796 53.9271 45.9896V45.4149C54.0176 44.2228 54.546 43.1081 55.4086 42.2896C55.8437 41.8919 56.3454 41.5757 56.8901 41.3556C57.9885 40.9275 59.2052 40.9275 60.3036 41.3556C60.5929 41.4728 60.8706 41.6171 61.1332 41.7867L61.3703 41.4754L61.8206 40.8647L62.188 40.3498C62.354 40.1343 62.4962 39.9068 62.6503 39.6793L62.7332 39.5475C62.7686 39.485 62.8082 39.425 62.8518 39.3679L63.4562 38.41C63.6103 38.1705 63.7644 37.9191 63.9066 37.6556C64.0488 37.3922 64.4281 36.7456 64.6651 36.2906C64.7599 36.1229 64.8548 35.9553 64.9377 35.7877C65.1511 35.3686 65.3644 34.9375 65.5659 34.5064C65.7674 34.0754 65.7911 34.0394 65.8859 33.8119L66.2415 32.9857C66.36 32.6983 66.4667 32.4229 66.5733 32.1355C66.5733 32.0038 66.68 31.8721 66.7274 31.7284C66.7748 31.5847 66.8578 31.3572 66.9289 31.1896L67 30.9621H66.2889Z" fill="#1570EF"/>
  <path d="M41.8261 1.7452C41.1747 1.09605 40.4415 0.536435 39.6453 0.0807937C39.5682 0.037189 39.4812 0.014587 39.3929 0.0152062C39.3045 0.0158254 39.2178 0.0396447 39.1413 0.0843257C39.0648 0.129007 39.0011 0.193014 38.9565 0.270067C38.9119 0.34712 38.8879 0.434571 38.8868 0.523836V8.01964C38.8781 8.29427 38.767 8.55544 38.5758 8.75083C38.3846 8.94623 38.1274 9.06143 37.8557 9.07337H32.6052C32.3334 9.06457 32.0749 8.95234 31.8814 8.75917C31.688 8.56599 31.574 8.30613 31.5622 8.03162V0.499889C31.5559 0.41158 31.5281 0.326208 31.4813 0.251325C31.4346 0.176441 31.3703 0.114354 31.2941 0.0705527C31.2179 0.0267518 31.1323 0.00258732 31.0447 0.000196502C30.957 -0.00219432 30.8702 0.017263 30.7918 0.056846C29.9802 0.530617 29.2281 1.10151 28.5518 1.75717C27.6253 2.69674 26.9059 3.8235 26.4406 5.06361C25.9754 6.30373 25.7748 7.62918 25.852 8.95309C25.9292 10.277 26.2825 11.5695 26.8887 12.7458C27.4949 13.9221 28.3403 14.9557 29.3696 15.7789C29.9285 16.262 30.5506 16.6649 31.2185 16.9763H39.1712C39.8622 16.6603 40.5112 16.258 41.1031 15.7789C42.1311 14.9509 42.9735 13.912 43.5746 12.7307C44.1757 11.5495 44.5218 10.2528 44.5902 8.92639C44.6585 7.59998 44.4475 6.27401 43.971 5.0361C43.4945 3.79819 42.7635 2.67652 41.8261 1.7452Z" fill="#2E90FA"/>
  <path d="M36.8838 18.6766H33.5415C33.0637 18.6766 32.6763 19.068 32.6763 19.5507V23.8375C32.6763 24.3202 33.0637 24.7116 33.5415 24.7116H36.8838C37.3616 24.7116 37.749 24.3202 37.749 23.8375V19.5507C37.749 19.068 37.3616 18.6766 36.8838 18.6766Z" fill="#2E90FA"/>
</svg>