<svg width="210" height="56" viewBox="0 0 210 56" fill="none" xmlns="http://www.w3.org/2000/svg">
<path fill-rule="evenodd" clip-rule="evenodd" d="M25.9637 52.3718C25.8444 51.9408 25.7131 51.4977 25.5699 51.0547C25.4506 50.6715 25.3194 50.2883 25.1881 49.8573C25.1477 49.7269 25.0999 49.599 25.0449 49.4741L24.7705 48.7796C24.7705 48.6359 24.6512 48.4802 24.5796 48.3366C24.508 48.1929 24.4125 47.8935 24.3171 47.666C24.2216 47.4385 24.1858 47.3547 24.1142 47.211C24.0427 47.0673 23.9353 46.7799 23.8279 46.5644C23.7205 46.3489 23.6847 46.2531 23.6131 46.0974L23.3267 45.4867L23.0762 45.0197L22.7779 44.421L22.1932 43.4152L21.9307 42.9602L21.5847 42.3734C21.5012 42.2297 21.4057 42.0861 21.3103 41.9424L20.9404 41.3556L20.6659 40.9485C20.5347 40.7449 20.3915 40.5534 20.2603 40.3618L19.9858 39.9666L19.5444 39.356C19.4489 39.2482 19.3654 39.1165 19.2819 39.0087L18.7449 38.3262L18.554 38.0029C18.2915 37.6915 18.0409 37.3802 17.7784 37.0809L17.0387 36.2427L16.7762 35.9792L16.2154 35.3805L15.9051 35.0692C15.7381 34.8896 15.5591 34.71 15.3802 34.5424L15.0341 34.219L14.5211 33.7281L14.1512 33.3928L13.662 32.9019L13.2682 32.5786C13.1012 32.4229 12.9222 32.2792 12.7432 32.1355L12.3495 31.8122L11.8125 31.3932L11.4069 31.0938L10.858 30.6867C10.7148 30.5909 10.5836 30.4831 10.4404 30.3993C10.2562 30.258 10.0651 30.1261 9.86765 30.0042L9.46197 29.7168L8.86538 29.3456L8.4597 29.0821L7.38583 28.4236L6.61027 27.9925L6.34777 27.8488C6.00174 27.6572 5.64379 27.4776 5.28583 27.298L5.08299 27.2262L4.21197 26.8071L3.81822 26.6394L3.12618 26.3281L2.67277 26.1365L2.02845 25.885L1.53924 25.6935L1.09777 25.5378C1.24095 26.1365 1.39606 26.7352 1.57504 27.3339C1.64663 27.5974 1.71822 27.8129 1.78981 28.0404C1.8614 28.2679 1.96879 28.6032 2.05231 28.8786C2.13584 29.154 2.20743 29.3456 2.30288 29.5731C2.39833 29.8006 2.55345 30.2556 2.67277 30.5909L2.9472 31.2854L3.19777 31.8721L3.55572 32.6864C3.63924 32.8899 3.7347 33.0815 3.81822 33.2731L4.12845 33.8957C4.17692 34.011 4.23272 34.123 4.29549 34.231C4.42674 34.4825 4.5222 34.686 4.64152 34.9016L5.10686 35.7398C5.26197 36.0271 5.42902 36.3025 5.58413 36.566C6.00174 37.2605 6.45515 37.967 6.94436 38.6615L7.42163 39.344C7.49322 39.4637 7.57674 39.5715 7.66026 39.6912L8.22106 40.4217C8.38811 40.6492 8.56708 40.8647 8.73413 41.0682C8.93587 40.9196 9.15168 40.7913 9.37845 40.6851C9.93881 40.4753 10.5347 40.3777 11.1324 40.3977H11.7052C12.2936 40.4399 12.8686 40.5944 13.3995 40.8527C13.9365 41.1028 14.419 41.4568 14.8194 41.8945C15.2219 42.3247 15.5379 42.8288 15.75 43.3793C15.9513 43.9232 16.0524 44.4994 16.0483 45.0796C16.0499 45.6696 15.9406 46.2545 15.7262 46.8039C15.6069 47.0912 15.4632 47.3676 15.2966 47.6301L15.6069 47.8815L16.2154 48.3246L16.7284 48.7077L17.3966 49.1628L17.5279 49.2586L17.7069 49.3783L18.6614 49.989L19.4131 50.444C19.8546 50.7074 20.3199 50.9709 20.7733 51.2103L21.2745 51.4857L22.5512 52.1204L23.2432 52.4437H23.3148L24.1262 52.8029L24.9733 53.1502L25.379 53.3058L25.9159 53.5094L26.1426 53.5932L25.9279 52.743L25.9637 52.3718Z" fill="#2E90FA"/>
<path fill-rule="evenodd" clip-rule="evenodd" d="M38.1103 55.1019C38.1103 54.9822 38.1103 54.8505 38.0506 54.7307C38.0506 54.3476 37.9313 53.9764 37.8597 53.5932C37.0457 49.2193 35.6617 44.9719 33.7432 40.9605L33.8267 41.0922L36.6546 38.2184C36.9825 37.8769 37.1913 37.4378 37.2493 36.9671C37.3074 36.4964 37.2118 36.0195 36.9767 35.608C36.3623 34.5893 35.6973 33.6022 34.9841 32.6504C34.6987 32.2628 34.2927 31.9817 33.8302 31.8516C33.3678 31.7215 32.8753 31.7498 32.4307 31.932L29.1733 33.2132C29.0438 33.0147 28.9044 32.8229 28.7557 32.6385L28.4336 32.1954C28.2904 32.0038 28.1472 31.8122 27.9921 31.6326C27.837 31.453 27.7654 31.3333 27.6461 31.1896L27.2165 30.6508L29.3165 27.3339C29.578 26.9276 29.6966 26.4453 29.6533 25.9636C29.6101 25.4818 29.4075 25.0285 29.0779 24.6757C28.2714 23.8044 27.419 22.977 26.5245 22.197C26.1636 21.8791 25.7078 21.6902 25.2285 21.6598C24.7492 21.6295 24.2735 21.7595 23.8756 22.0294L20.8211 24.1249L20.654 23.9812L20.1529 23.5621L19.6995 23.1789L19.1864 22.7718L19.0313 22.652C19.2819 22.0294 19.9142 20.4129 20.3915 19.1676C20.564 18.7158 20.5826 18.2194 20.4444 17.7558C20.3063 17.2923 20.0192 16.8877 19.6279 16.6051C18.6614 15.9106 17.6591 15.264 16.633 14.6653C16.2173 14.4261 15.7344 14.3317 15.2596 14.3966C14.7848 14.4616 14.3447 14.6824 14.008 15.0245L11.3711 17.7067L10.9177 17.4672L10.2614 17.132L9.76026 16.8925L9.13981 16.5931L8.75799 16.4494C8.82958 15.9585 9.11595 14.0546 9.31879 12.5818C9.39072 12.1045 9.30184 11.6168 9.06624 11.196C8.83064 10.7752 8.46181 10.4454 8.01822 10.2588C6.92049 9.80379 5.81083 9.39667 4.67731 9.06139C4.21774 8.91926 3.72403 8.93513 3.27446 9.10649C2.82489 9.27784 2.44517 9.59488 2.19549 10.0074C1.32447 11.4083 0.13129 13.3721 0.0954946 13.432C0.0954946 14.3659 4.01374e-05 15.2999 4.01374e-05 16.2459C-0.00255853 18.0723 0.121033 19.8968 0.369926 21.7061H0.489244L1.08584 21.8977L1.77788 22.1252L2.36254 22.3407L3.04265 22.5802L3.62731 22.8077L4.28356 23.0831C4.4864 23.155 4.66538 23.2388 4.85629 23.3226L5.50061 23.598L6.07333 23.8734L6.71765 24.1728L7.26652 24.4482L7.8989 24.7715L8.44776 25.0708L9.05629 25.4061L9.59322 25.7174L10.2017 26.0766L10.7267 26.3999L11.3114 26.7711L12.4091 27.5135L12.9103 27.8728C13.1012 28.0045 13.2921 28.1362 13.4711 28.2799L13.9603 28.6511L14.5091 29.0821L14.9983 29.4653C15.1773 29.609 15.3444 29.7647 15.5353 29.9084L16.0006 30.3155L16.5137 30.7705L16.979 31.1896L17.4802 31.6686C17.6353 31.8003 17.7784 31.944 17.9216 32.0877L18.4228 32.5786L18.8523 33.0216L19.3296 33.5365L19.7353 33.9796L20.2006 34.5064L20.6063 34.9734L21.0478 35.5123L21.4415 35.9912L21.8711 36.554L22.2409 37.033L22.6586 37.6077L23.0165 38.0987C23.1478 38.2903 23.279 38.4938 23.4222 38.6854C23.5654 38.877 23.6489 39.0207 23.7563 39.2003C23.8637 39.3799 24.0188 39.5954 24.1381 39.799C24.2574 40.0026 24.3529 40.1462 24.4722 40.3139L24.8301 40.9365L25.1404 41.4514C25.2597 41.667 25.379 41.8825 25.4864 42.098C25.5938 42.3136 25.6892 42.4453 25.7728 42.6249C25.8563 42.8045 26.0114 43.056 26.1188 43.2715C26.2262 43.487 26.2978 43.6307 26.3813 43.8103C26.4648 43.9899 26.608 44.2653 26.7154 44.4929C26.8228 44.7204 26.8824 44.8401 26.954 45.0197C27.0256 45.1993 27.1688 45.4867 27.2642 45.7262L27.5029 46.2531C27.5983 46.5045 27.6938 46.756 27.8012 47.0074L27.9921 47.5103C28.1114 47.7857 28.2069 48.0731 28.3023 48.3605C28.3612 48.4974 28.4129 48.6373 28.4574 48.7796C28.6165 49.2107 28.7597 49.6417 28.887 50.0728C29.0182 50.5158 29.1495 50.9589 29.2688 51.4019C29.2688 51.5456 29.3404 51.6773 29.3881 51.821C29.4358 51.9647 29.5432 52.4437 29.6148 52.755C29.6864 53.0663 29.6983 53.0663 29.7341 53.222C29.7699 53.3777 29.8654 53.8327 29.925 54.144C29.9847 54.4553 29.9966 54.4434 30.0205 54.5871V54.7906L31.5239 55.1259L32.0728 55.2337H32.1801L32.8841 55.3654L33.4688 55.4492L34.125 55.545L34.7813 55.6288L35.4495 55.7006C35.6881 55.7006 35.9029 55.7006 36.1057 55.7605H36.6546L38.2415 55.9641C38.2415 55.9641 38.2415 55.9042 38.2415 55.8683C38.1938 55.6048 38.1461 55.3534 38.1103 55.1019Z" fill="#2E90FA"/>
<path fill-rule="evenodd" clip-rule="evenodd" d="M67.1881 19.9339C67.1881 19.7303 66.1381 17.8624 65.3148 16.4255C65.0769 16.005 64.7058 15.6764 64.2604 15.492C63.815 15.3075 63.321 15.2779 62.8568 15.4077C61.7165 15.7193 60.5934 16.091 59.4921 16.5213C59.0352 16.6955 58.6507 17.0201 58.4014 17.4421C58.1522 17.864 58.0529 18.3584 58.1199 18.8443C58.287 20.3291 58.5256 22.3407 58.5733 22.7598C57.7142 23.131 56.8551 23.5142 56.0199 23.9572L53.4784 21.1193C53.1571 20.7605 52.7263 20.5188 52.2534 20.4322C51.7805 20.3455 51.2923 20.4187 50.8654 20.6404C49.8034 21.1912 48.7892 21.8378 47.787 22.4365C47.3849 22.7024 47.0823 23.095 46.9268 23.5523C46.7713 24.0097 46.7717 24.5059 46.9279 24.963C47.429 26.4359 48.1211 28.4595 48.1926 28.7229C47.6796 29.1061 47.1665 29.5132 46.6654 29.9203L43.6943 27.7291C43.3128 27.4349 42.8451 27.2754 42.3639 27.2754C41.8828 27.2754 41.4151 27.4349 41.0336 27.7291C40.1127 28.4796 39.2324 29.279 38.3966 30.1239C38.0577 30.4636 37.8409 30.9068 37.7805 31.3837C37.72 31.8606 37.8192 32.3441 38.0625 32.7582L40.0551 36.1828C38.7764 37.6339 37.5812 39.1571 36.4756 40.745C36.5472 40.9246 36.6188 41.1161 36.7023 41.3077L37.0603 42.1938C37.2034 42.5411 37.3347 42.8883 37.4659 43.2356C37.5972 43.5828 37.6926 43.8223 37.8 44.1217C37.9074 44.421 38.0506 44.8281 38.1699 45.1874C38.2892 45.5466 38.3728 45.7861 38.4801 46.0734L38.8262 47.1751L39.0887 48.0492C39.208 48.4323 39.3034 48.8035 39.4108 49.2466C39.5182 49.6896 39.5659 49.8213 39.6495 50.1087C39.733 50.3961 39.733 50.4799 39.7807 50.6595C42.4535 45.2062 46.2469 40.3828 50.9112 36.5069C55.5755 32.631 61.0049 29.7904 66.8421 28.1721C67.1393 26.3702 67.3107 24.5497 67.3551 22.7239C67.3551 22.2808 67.3551 21.8498 67.3551 21.4067V20.9876C67.3551 20.9876 67.2358 20.1494 67.1881 19.9339Z" fill="#1570EF"/>
<path fill-rule="evenodd" clip-rule="evenodd" d="M66.7347 30.9621L66.3171 31.0699C65.8756 31.1896 65.4341 31.3213 65.0046 31.465L63.8114 31.8482L63.4176 32.0158L62.6779 32.2912C62.526 32.3386 62.3783 32.3987 62.2364 32.4708L61.5682 32.7343L61.1029 32.9378C60.8881 33.0216 60.6853 33.1174 60.4705 33.2252C60.2557 33.333 60.1603 33.3689 60.0051 33.4407L59.3966 33.7281L58.9313 33.9796L58.3347 34.2789L57.8693 34.5424L57.2847 34.8657L56.8313 35.1291L56.2586 35.4763L55.8171 35.7517L55.2443 36.1229L54.8267 36.3983L54.2301 36.8055L53.8364 37.0809L53.2398 37.5359L52.8938 37.7873L52.2137 38.3262L51.9631 38.5178L51.0443 39.2961L50.2091 40.0505L49.9466 40.3019L49.35 40.8647L49.0398 41.176L48.5029 41.7029L48.1807 42.0501C48.0137 42.2178 47.8586 42.3974 47.7034 42.565L47.3574 42.9362C47.2142 43.1158 47.0591 43.2835 46.904 43.4511L46.5818 43.8463L46.1404 44.3731L45.8301 44.7683L45.4125 45.3071L45.1023 45.7142C44.9711 45.8938 44.8279 46.0854 44.7086 46.265L44.4103 46.6841L44.0165 47.2589L43.7421 47.666C43.6108 47.8696 43.4796 48.0611 43.3603 48.2647C43.2698 48.396 43.1862 48.5319 43.1097 48.6718L42.7159 49.3184L42.5012 49.6896L42.0716 50.4679L41.9165 50.7314C41.7375 51.0786 41.5466 51.4379 41.3796 51.7971L41.2722 52.0006C41.1409 52.288 40.9978 52.5754 40.8665 52.8747C40.7353 53.1741 40.7472 53.1382 40.6875 53.2699C40.6279 53.4016 40.4847 53.7249 40.3892 53.9644C40.2938 54.2039 40.258 54.2637 40.1983 54.4194L39.9358 55.066L39.7568 55.557C39.6972 55.7006 39.6495 55.8563 39.5898 56C40.1983 55.8563 40.783 55.7006 41.3915 55.521L42.9307 55.0421C43.1574 54.9582 43.3961 54.8864 43.6228 54.7906L44.625 54.4194L45.3171 54.144L45.9017 53.8926L46.725 53.5333L47.2978 53.2699L47.9301 52.9586H47.9898L48.3239 52.7909L48.9921 52.4437L49.8154 51.9767C50.1137 51.821 50.3762 51.6534 50.6506 51.4977C51.3307 51.0786 52.0347 50.6236 52.7387 50.1446L53.4068 49.6537L53.7529 49.4142L54.4926 48.8514L55.137 48.3485C54.9918 48.1377 54.8603 47.9177 54.7432 47.6899C54.4887 47.1561 54.335 46.5796 54.2898 45.9896V45.4149C54.3809 44.2228 54.9129 43.1081 55.7813 42.2896C56.2193 41.8919 56.7243 41.5756 57.2728 41.3556C58.3785 40.9275 59.6034 40.9275 60.7091 41.3556C61.0004 41.4728 61.28 41.6171 61.5443 41.7867L61.783 41.4754L62.2364 40.8647L62.6063 40.3498C62.7733 40.1343 62.9165 39.9068 63.0716 39.6793L63.1551 39.5475C63.1907 39.485 63.2306 39.425 63.2745 39.3679L63.883 38.41C64.0381 38.1705 64.1932 37.9191 64.3364 37.6556C64.4796 37.3922 64.8614 36.7456 65.1 36.2906C65.1955 36.1229 65.2909 35.9553 65.3745 35.7877C65.5892 35.3686 65.804 34.9375 66.0069 34.5064C66.2097 34.0754 66.2335 34.0394 66.329 33.8119L66.687 32.9857C66.8063 32.6983 66.9137 32.4229 67.021 32.1355C67.021 32.0038 67.1284 31.8721 67.1762 31.7284C67.2239 31.5847 67.3074 31.3572 67.379 31.1896L67.4506 30.9621H66.7347Z" fill="#1570EF"/>
<path d="M42.1074 1.7452C41.4516 1.09605 40.7134 0.536435 39.912 0.0807937C39.8343 0.037189 39.7468 0.014587 39.6578 0.0152062C39.5688 0.0158254 39.4816 0.0396446 39.4046 0.0843257C39.3275 0.129007 39.2634 0.193014 39.2185 0.270067C39.1736 0.34712 39.1494 0.434571 39.1483 0.523836V8.01964C39.1396 8.29427 39.0277 8.55543 38.8352 8.75083C38.6427 8.94623 38.3838 9.06143 38.1103 9.07337H32.8245C32.5508 9.06457 32.2906 8.95234 32.0959 8.75917C31.9012 8.56599 31.7864 8.30613 31.7745 8.03162V0.499889C31.7681 0.41158 31.7401 0.326208 31.693 0.251324C31.646 0.176441 31.5812 0.114354 31.5046 0.0705527C31.4279 0.0267518 31.3416 0.00258732 31.2534 0.000196502C31.1652 -0.00219432 31.0778 0.017263 30.9989 0.056846C30.1818 0.530616 29.4247 1.10151 28.7438 1.75717C27.8111 2.69674 27.0868 3.8235 26.6184 5.06361C26.15 6.30373 25.9481 7.62918 26.0258 8.95309C26.1036 10.277 26.4592 11.5695 27.0695 12.7458C27.6798 13.9221 28.5309 14.9557 29.5671 15.7789C30.1297 16.262 30.7561 16.6649 31.4284 16.9763H39.4347C40.1303 16.6603 40.7837 16.258 41.3796 15.7789C42.4145 14.9509 43.2625 13.912 43.8676 12.7307C44.4728 11.5495 44.8213 10.2528 44.89 8.92639C44.9588 7.59998 44.7464 6.27401 44.2667 5.0361C43.787 3.79819 43.0511 2.67652 42.1074 1.7452Z" fill="#2E90FA"/>
<path d="M37.1319 18.6766H33.7671C33.286 18.6766 32.8961 19.068 32.8961 19.5507V23.8375C32.8961 24.3202 33.286 24.7116 33.7671 24.7116H37.1319C37.6129 24.7116 38.0029 24.3202 38.0029 23.8375V19.5507C38.0029 19.068 37.6129 18.6766 37.1319 18.6766Z" fill="#2E90FA"/>
<path d="M161.616 46.0853C161.082 45.9758 160.555 45.8277 160.041 45.6422C159.347 45.3381 158.74 44.8642 158.275 44.2639C157.81 43.6636 157.503 42.956 157.381 42.2057C157.321 41.9422 157.214 41.8824 156.963 41.8943H155.77V45.8458H152.906V35.6199C153.801 35.6199 154.672 35.6199 155.555 35.6199C155.615 35.6199 155.722 35.8235 155.722 35.9432C155.722 37.0328 155.722 38.1225 155.722 39.2241V39.6672C156.223 39.6672 156.689 39.6672 157.142 39.6672C157.226 39.6672 157.333 39.4756 157.357 39.3558C157.474 38.7192 157.718 38.1131 158.075 37.5738C158.432 37.0346 158.894 36.5736 159.433 36.2186C160.151 35.7482 160.979 35.4737 161.836 35.422C162.692 35.3704 163.547 35.5434 164.316 35.924C165.086 36.3046 165.743 36.8798 166.224 37.5928C166.704 38.3058 166.992 39.1321 167.057 39.9905C167.241 41.4023 166.938 42.8346 166.198 44.0497C165.84 44.6107 165.36 45.0831 164.793 45.4315C164.227 45.7799 163.59 45.9952 162.929 46.0613C162.836 46.0798 162.745 46.1038 162.655 46.1332L161.616 46.0853ZM164.444 40.8406C164.359 40.2444 164.244 39.6529 164.098 39.0685C163.982 38.6643 163.734 38.3106 163.395 38.0634C163.056 37.8162 162.644 37.6895 162.225 37.7034C161.798 37.6595 161.368 37.7607 161.004 37.9908C160.641 38.2209 160.365 38.5666 160.22 38.9727C159.763 40.1262 159.763 41.4114 160.22 42.5649C160.378 42.9619 160.663 43.295 161.031 43.5118C161.398 43.7285 161.826 43.8167 162.249 43.7623C162.668 43.7736 163.079 43.6426 163.414 43.3905C163.75 43.1385 163.991 42.78 164.098 42.3733C164.265 41.8943 164.337 41.4034 164.456 40.8406H164.444Z" fill="#1570EF"/>
<path d="M82.1625 46.0853C81.7211 46.0134 81.2676 45.9655 80.8381 45.8578C80.1232 45.7331 79.4511 45.4297 78.8839 44.9756C78.3167 44.5214 77.8726 43.9312 77.5926 43.2594C77.4599 42.8481 77.3562 42.428 77.2824 42.0021H80.2176C80.3617 42.3973 80.6013 42.7504 80.9151 43.0296C81.2289 43.3088 81.6069 43.5054 82.0151 43.6016C82.4234 43.6977 82.8491 43.6906 83.2538 43.5807C83.6586 43.4708 84.0299 43.2616 84.3341 42.972C84.527 42.7673 84.6658 42.5173 84.7378 42.2449C84.8098 41.9726 84.8127 41.6864 84.7463 41.4126C84.6799 41.1389 84.5462 40.8861 84.3575 40.6774C84.1688 40.4688 83.9311 40.3108 83.6659 40.218C83.1684 40.0539 82.6502 39.9612 82.1267 39.9426C81.7572 39.9185 81.3866 39.9185 81.0171 39.9426V37.8112C81.4228 37.8112 81.8165 37.8112 82.2103 37.8112C82.6155 37.7822 83.0159 37.7059 83.4034 37.5836C83.7349 37.4656 84.0196 37.2433 84.2152 36.95C84.4108 36.6566 84.5069 36.3077 84.4892 35.9552C84.4845 35.5882 84.3592 35.2332 84.1326 34.9452C83.906 34.6571 83.591 34.4523 83.2364 34.3626C82.8882 34.257 82.5215 34.2281 82.1611 34.2777C81.8008 34.3273 81.4553 34.4543 81.1483 34.65C80.9178 34.7859 80.7249 34.9777 80.5873 35.2079C80.4497 35.438 80.3719 35.699 80.3608 35.9671H77.6165C77.6176 35.4286 77.7393 34.8971 77.9727 34.4121C78.2061 33.9271 78.5451 33.5009 78.9648 33.1652C79.986 32.3611 81.2464 31.9242 82.5443 31.9242C83.8423 31.9242 85.1027 32.3611 86.1239 33.1652C86.5932 33.5606 86.9442 34.0787 87.1379 34.662C87.3317 35.2454 87.3607 35.8712 87.2216 36.4701C87.1035 36.9887 86.8412 37.4631 86.4653 37.8382C86.0894 38.2133 85.6152 38.4738 85.0978 38.5895C84.97 38.625 84.849 38.6817 84.7398 38.7571C84.8176 38.7865 84.8973 38.8105 84.9784 38.829C85.5844 38.8877 86.161 39.1187 86.6406 39.495C87.1202 39.8713 87.4828 40.3771 87.6859 40.9531C87.8889 41.529 87.9238 42.1512 87.7866 42.7464C87.6494 43.3416 87.3458 43.8851 86.9114 44.3131C85.9726 45.3046 84.6926 45.8998 83.3318 45.9775C83.1887 45.9775 83.0574 45.9775 82.9142 46.0494L82.1625 46.0853Z" fill="#1570EF"/>
<path d="M92.1495 46.0853C91.8631 46.0254 91.5767 45.9775 91.3023 45.8937C90.6619 45.7552 90.0916 45.3923 89.6937 44.87C89.2957 44.3478 89.0961 43.7004 89.1307 43.0439C89.0728 42.3667 89.2698 41.6924 89.6828 41.1538C90.0958 40.6152 90.6949 40.2514 91.362 40.1342C92.2926 39.9066 93.2472 39.8228 94.1898 39.6791L94.6193 39.6073C94.9654 39.5235 95.3591 39.4636 95.4426 39.0445C95.4865 38.8212 95.466 38.5899 95.3836 38.3778C95.3012 38.1658 95.1602 37.9817 94.9773 37.8471C94.7553 37.707 94.5078 37.6126 94.2491 37.5693C93.9904 37.526 93.7258 37.5347 93.4705 37.5949C93.2152 37.655 92.9743 37.7654 92.7619 37.9197C92.5495 38.074 92.3697 38.2691 92.233 38.4937C92.2028 38.5846 92.1388 38.6603 92.0543 38.705C91.9698 38.7496 91.8713 38.7597 91.7796 38.7332L89.4887 38.5296C89.599 37.9498 89.8538 37.4074 90.2293 36.9531C90.6049 36.4987 91.0889 36.1472 91.6364 35.9312C92.4222 35.5996 93.2697 35.4409 94.1218 35.4656C94.9739 35.4904 95.8108 35.6982 96.5761 36.0749C97.0916 36.2989 97.5296 36.6707 97.8353 37.1436C98.1409 37.6166 98.3006 38.1695 98.2943 38.7332C98.2943 41.128 98.2943 43.427 98.2943 45.774C98.2943 45.774 98.2943 45.8338 98.2943 45.8937H95.6097V44.4927L95.4784 44.3969C95.4784 44.4568 95.4784 44.5167 95.4784 44.5526C95.2312 44.9754 94.8843 45.3308 94.4683 45.5876C94.0522 45.8445 93.5796 45.9948 93.0921 46.0254C93.0327 46.0328 92.9756 46.0532 92.925 46.0853H92.1495ZM95.5023 41.1998C94.7029 41.3316 93.9631 41.4513 93.2233 41.607C92.9383 41.6676 92.6646 41.7727 92.4119 41.9183C92.2445 41.9976 92.1029 42.123 92.0037 42.2798C91.9044 42.4367 91.8515 42.6186 91.8512 42.8044C91.8108 43.0682 91.8705 43.3376 92.0186 43.5593C92.1666 43.781 92.3921 43.9389 92.6506 44.0018C92.9141 44.1042 93.1956 44.1521 93.4781 44.1427C93.7605 44.1334 94.0382 44.0669 94.2944 43.9472C94.5507 43.8276 94.7802 43.6573 94.9693 43.4465C95.1584 43.2357 95.3032 42.9888 95.3949 42.7206C95.4796 42.2183 95.5155 41.709 95.5023 41.1998Z" fill="#1570EF"/>
<path d="M124.532 46.0853C124.139 45.9775 123.721 45.9176 123.339 45.774C122.707 45.5367 122.179 45.0809 121.851 44.4884C121.523 43.8959 121.416 43.2054 121.549 42.5409C121.599 42.0486 121.783 41.5797 122.082 41.1864C122.381 40.7931 122.783 40.491 123.244 40.3138C124.137 39.9852 125.074 39.7915 126.024 39.739C126.368 39.7096 126.711 39.6616 127.05 39.5953C127.396 39.5235 127.778 39.4636 127.838 39.0205C127.88 38.7961 127.858 38.564 127.773 38.3519C127.689 38.1397 127.545 37.9562 127.36 37.8231C127.116 37.6769 126.843 37.5845 126.561 37.5521C126.278 37.5197 125.992 37.5481 125.721 37.6353C125.45 37.7225 125.201 37.8666 124.99 38.0579C124.779 38.2493 124.611 38.4836 124.497 38.7451L121.895 38.5296C121.996 37.9803 122.228 37.4636 122.571 37.0236C122.913 36.5837 123.357 36.2335 123.864 36.0031C124.661 35.6188 125.534 35.4192 126.418 35.4192C127.302 35.4192 128.174 35.6188 128.971 36.0031C129.513 36.2468 129.968 36.6496 130.277 37.1584C130.586 37.6672 130.734 38.258 130.701 38.8529C130.701 41.0681 130.701 43.2714 130.701 45.4866V45.8338H128.005V44.385L127.826 44.6364C127.582 45.0159 127.258 45.3363 126.876 45.5745C126.495 45.8126 126.065 45.9626 125.618 46.0134C125.525 46.0319 125.434 46.0559 125.344 46.0853H124.532ZM127.921 41.1879C127.253 41.3076 126.728 41.4034 126.107 41.5231C125.697 41.6019 125.297 41.7264 124.914 41.8943C124.741 41.9688 124.59 42.0863 124.474 42.2358C124.359 42.3852 124.283 42.5617 124.255 42.7486C124.226 42.9355 124.245 43.1266 124.31 43.3039C124.376 43.4813 124.485 43.639 124.628 43.7623C124.899 43.9356 125.207 44.045 125.526 44.0824C125.846 44.1198 126.17 44.0842 126.474 43.9783C126.778 43.8723 127.054 43.6988 127.282 43.4706C127.51 43.2425 127.684 42.9656 127.79 42.6607C127.869 42.1736 127.913 41.6814 127.921 41.1879Z" fill="#1570EF"/>
<path d="M203.855 46.0853C203.473 45.9895 203.091 45.9177 202.662 45.7979C202.139 45.5885 201.686 45.2351 201.355 44.7784C201.025 44.3217 200.829 43.7803 200.792 43.2169C200.754 42.6534 200.876 42.0909 201.144 41.5941C201.412 41.0974 201.814 40.6867 202.304 40.4095C203.058 40.072 203.866 39.8732 204.69 39.8228C205.227 39.751 205.752 39.7031 206.289 39.6073C206.826 39.5115 207.136 39.3199 207.172 38.9367C207.211 38.6661 207.157 38.3902 207.018 38.1549C206.879 37.9196 206.664 37.7392 206.409 37.6435C205.924 37.4396 205.379 37.4359 204.892 37.6333C204.405 37.8306 204.015 38.213 203.807 38.6972L202.519 38.6015L201.206 38.4817C201.32 37.88 201.589 37.3189 201.987 36.8544C202.385 36.39 202.898 36.0386 203.473 35.8354C204.237 35.532 205.056 35.3902 205.877 35.4191C206.698 35.4479 207.505 35.6467 208.246 36.0031C208.678 36.1977 209.056 36.4943 209.349 36.8675C209.642 37.2407 209.841 37.6795 209.928 38.1464C209.948 38.1889 209.972 38.229 210 38.2662V45.8578H207.303V44.4808C206.868 45.1574 206.209 45.6578 205.442 45.8937L204.631 46.0853H203.855ZM207.184 41.1998C206.444 41.3316 205.716 41.4513 204.989 41.607C204.668 41.6667 204.361 41.7844 204.082 41.9542C203.924 42.0547 203.794 42.1936 203.704 42.3579C203.614 42.5222 203.567 42.7067 203.567 42.8942C203.567 43.0817 203.614 43.2661 203.704 43.4304C203.794 43.5948 203.924 43.7336 204.082 43.8342C204.368 43.9975 204.688 44.0915 205.016 44.1087C205.345 44.1258 205.673 44.0657 205.974 43.9331C206.276 43.8005 206.542 43.5991 206.752 43.3449C206.962 43.0907 207.11 42.7908 207.184 42.4691C207.214 42.0465 207.214 41.6224 207.184 41.1998Z" fill="#1570EF"/>
<path d="M136.727 46.0853C136.428 46.0254 136.13 45.9775 135.844 45.9057C135.11 45.743 134.43 45.3962 133.867 44.8978C133.303 44.3994 132.875 43.7656 132.622 43.0558C132.097 41.626 132.097 40.0552 132.622 38.6254C132.946 37.8738 133.443 37.2101 134.072 36.6888C134.702 36.1676 135.445 35.8038 136.242 35.6272C137.039 35.4507 137.866 35.4666 138.656 35.6734C139.445 35.8803 140.174 36.2724 140.784 36.8173C141.441 37.5151 141.819 38.4317 141.845 39.3917H139.173C139.178 39.332 139.178 39.2719 139.173 39.2121C139.109 38.8222 138.919 38.4642 138.632 38.1936C138.345 37.9231 137.978 37.755 137.586 37.7154C137.154 37.6489 136.713 37.7311 136.334 37.9485C135.954 38.1659 135.66 38.5058 135.498 38.9128C135.068 39.9652 135.026 41.1367 135.378 42.2176C135.475 42.6864 135.737 43.1043 136.116 43.3947C136.496 43.6851 136.967 43.8284 137.443 43.7982C138.361 43.7982 138.922 43.2354 139.22 42.1218H141.881C141.849 43.1172 141.45 44.0653 140.763 44.7837C140.076 45.5021 139.148 45.9401 138.159 46.0134C138.039 46.0134 137.92 46.0134 137.801 46.0853H136.727Z" fill="#1570EF"/>
<path d="M193.439 42.2176V45.8099H190.623V35.6199H193.427V39.4995C194.023 39.6911 194.214 39.6312 194.536 39.1762C195.312 38.0626 196.087 36.937 196.923 35.8354C196.988 35.72 197.095 35.6343 197.221 35.5959H200.407L200.144 35.9911L196.959 40.4095C196.881 40.4899 196.838 40.5972 196.838 40.7089C196.838 40.8206 196.881 40.9279 196.959 41.0083C198.056 42.529 199.13 44.0617 200.216 45.5944C200.273 45.698 200.337 45.798 200.407 45.8937H198.689C198.557 45.8937 198.438 45.8937 198.319 45.8937C197.905 45.9739 197.48 45.9739 197.066 45.8937C196.732 45.7141 196.553 45.2471 196.314 44.9118C195.813 44.1814 195.3 43.463 194.823 42.7206C194.75 42.5724 194.632 42.4515 194.486 42.376C194.34 42.3005 194.174 42.2744 194.011 42.3015C193.819 42.2871 193.627 42.2591 193.439 42.2176Z" fill="#1570EF"/>
<path d="M106.492 37.8351H102.912V45.8338H100.251V35.6199H109.176V45.8698H106.492V37.8351Z" fill="#1570EF"/>
<path d="M168.167 45.8458V43.6426H168.239C169.181 43.6426 169.539 43.3312 169.682 42.3733C169.849 41.1759 169.909 40.0623 169.981 38.9008C170.04 37.9429 170.052 36.9849 170.088 36.027C170.088 35.9073 170.088 35.7875 170.088 35.6438H177.856V45.8937H175.171V37.8471H172.63C172.63 38.4937 172.63 39.1283 172.522 39.7629C172.415 40.9005 172.295 42.0261 172.152 43.1636C172.084 43.4887 171.971 43.803 171.818 44.0976C171.624 44.5832 171.297 45.0038 170.874 45.311C170.452 45.6181 169.952 45.7994 169.432 45.8338C169.011 45.861 168.589 45.865 168.167 45.8458Z" fill="#1570EF"/>
<path d="M179.86 35.6199H182.545V38.7571C183.261 38.7571 183.953 38.7571 184.621 38.7571C185.341 38.791 186.054 38.9116 186.745 39.1163C187.425 39.3121 188.021 39.7286 188.44 40.3006C188.858 40.8727 189.077 41.5679 189.06 42.2775C189.085 42.9844 188.881 43.6805 188.479 44.2612C188.077 44.842 187.498 45.2762 186.828 45.4986C186.328 45.6921 185.801 45.8053 185.265 45.8338C183.488 45.8338 181.686 45.8338 179.92 45.8338L179.86 35.6199ZM182.569 43.6306C183.416 43.6306 184.227 43.6306 185.027 43.6306C185.237 43.6373 185.446 43.5908 185.633 43.4954C185.821 43.3999 185.982 43.2586 186.1 43.0844C186.219 42.9102 186.293 42.7088 186.313 42.4987C186.334 42.2887 186.302 42.0767 186.22 41.8824C186.099 41.617 185.901 41.3947 185.652 41.245C185.403 41.0953 185.114 41.0252 184.824 41.0442C184.18 41.0442 183.535 41.0442 182.891 41.0442H182.581L182.569 43.6306Z" fill="#1570EF"/>
<path d="M111.133 35.6199H113.889V36.027C113.889 37.0927 113.889 38.1464 113.889 39.2002C113.889 40.2539 114.271 40.5772 115.154 40.649C115.826 40.6909 116.499 40.6909 117.17 40.649C117.409 40.649 117.409 40.4574 117.409 40.2778C117.409 38.8888 117.409 37.4998 117.409 36.1108V35.6199H120.07V45.8578H117.409V42.8044C116.836 42.8044 116.299 42.9121 115.774 42.9121C114.891 42.929 114.013 42.7618 113.197 42.4212C112.687 42.2443 112.237 41.9251 111.901 41.5009C111.565 41.0768 111.357 40.5653 111.3 40.0264C111.157 38.5536 111.181 37.0688 111.133 35.6199Z" fill="#1570EF"/>
<path d="M148.682 37.8112V45.8338H145.986V37.8351H142.705V35.6199H151.582C151.916 35.6199 151.999 35.7157 151.988 36.039C151.988 36.6377 151.988 37.2364 151.988 37.871L148.682 37.8112Z" fill="#1570EF"/>
<path d="M77.3063 27.8726V25.7053C77.4256 25.7053 77.6046 25.7053 77.6762 25.7053C77.8158 25.5539 77.9288 25.3798 78.0103 25.1904C78.2029 24.6272 78.3076 24.0375 78.3205 23.4422C78.3205 22.8435 78.4279 22.2448 78.4756 21.6221C78.4707 21.5704 78.4707 21.5182 78.4756 21.4665H81.554V25.7412H82.2938V27.9445H81.5421V26.4118H77.9625V27.8726H77.3063ZM80.8142 25.6694V22.0772C80.3012 22.0772 79.8 22.0772 79.2989 22.0772C79.2989 22.0772 79.2034 22.161 79.1915 22.2089C79.1915 22.4962 79.1915 22.7717 79.108 23.059C79.0125 23.7176 78.9171 24.3882 78.7978 25.0467C78.7452 25.2543 78.6692 25.4552 78.5711 25.6454L80.8142 25.6694Z" fill="#2E90FA"/>
<path d="M177.235 19.4907C177.35 19.5328 177.448 19.6122 177.513 19.7163C177.578 19.8205 177.606 19.9434 177.593 20.0655C177.593 20.1922 177.545 20.3142 177.461 20.4082C177.376 20.5022 177.26 20.5616 177.134 20.5749C177.009 20.5883 176.883 20.5547 176.78 20.4806C176.678 20.4065 176.606 20.297 176.579 20.1733C176.541 20.0578 176.544 19.9327 176.588 19.8192C176.631 19.7057 176.712 19.6108 176.818 19.5506H176.925L177.235 19.4907Z" fill="#2E90FA"/>
<path d="M117.075 19.4907C117.167 19.5271 117.249 19.5853 117.313 19.6604C117.377 19.7355 117.423 19.8252 117.445 19.9218C117.454 20.0096 117.443 20.0984 117.411 20.1809C117.38 20.2634 117.33 20.3374 117.265 20.3968C117.2 20.4563 117.122 20.4995 117.037 20.5231C116.952 20.5467 116.863 20.5499 116.777 20.5325C116.677 20.4908 116.591 20.4235 116.526 20.3372C116.461 20.2509 116.42 20.1489 116.407 20.0415C116.399 19.9355 116.423 19.8296 116.477 19.7377C116.53 19.6458 116.609 19.5723 116.705 19.5267H116.801L117.075 19.4907Z" fill="#2E90FA"/>
<path d="M126.095 19.4907C126.188 19.5232 126.27 19.5787 126.335 19.652C126.399 19.7254 126.444 19.8141 126.465 19.9098C126.477 19.9814 126.475 20.0546 126.459 20.1253C126.442 20.196 126.412 20.2627 126.37 20.3217C126.328 20.3807 126.275 20.4307 126.213 20.4689C126.152 20.5072 126.083 20.5328 126.012 20.5445C125.891 20.5437 125.773 20.5068 125.673 20.4386C125.574 20.3703 125.496 20.2738 125.451 20.1613C125.419 20.0491 125.425 19.9294 125.469 19.821C125.512 19.7127 125.59 19.6218 125.69 19.5626C125.729 19.5317 125.774 19.5074 125.821 19.4907H126.095Z" fill="#2E90FA"/>
<path d="M102.828 23.7416L103.103 23.8733C103.264 23.9451 103.409 24.0491 103.529 24.1791C103.649 24.309 103.742 24.4621 103.801 24.629C103.86 24.7959 103.885 24.9732 103.874 25.15C103.862 25.3268 103.815 25.4994 103.735 25.6574C103.622 25.877 103.451 26.0611 103.24 26.1899C103.03 26.3187 102.788 26.3871 102.542 26.3878C101.743 26.3878 100.943 26.3878 100.156 26.3878V21.3946C100.884 21.3946 101.611 21.3946 102.351 21.3946C102.562 21.4009 102.769 21.4498 102.96 21.5383C103.116 21.5965 103.259 21.6871 103.379 21.8042C103.498 21.9212 103.592 22.0623 103.654 22.218C103.716 22.3738 103.745 22.5409 103.738 22.7085C103.731 22.876 103.69 23.0403 103.616 23.1907C103.562 23.3025 103.485 23.4017 103.39 23.482C103.296 23.5624 103.186 23.6223 103.067 23.6577L102.828 23.7416ZM100.764 25.6694C101.373 25.6694 101.957 25.6694 102.554 25.6694C102.674 25.6638 102.79 25.6203 102.884 25.5451C102.978 25.4698 103.047 25.3667 103.079 25.2503C103.13 25.1265 103.148 24.9919 103.133 24.8589C103.118 24.726 103.069 24.5991 102.992 24.4902C102.914 24.3813 102.81 24.2939 102.69 24.2363C102.57 24.1786 102.437 24.1526 102.303 24.1607H100.764V25.6694ZM100.764 23.4901H102.351C102.452 23.4784 102.55 23.4445 102.636 23.3906C102.723 23.3368 102.797 23.2645 102.852 23.1788C102.919 23.0829 102.959 22.9706 102.967 22.8537C102.976 22.7369 102.952 22.62 102.9 22.5155C102.847 22.411 102.767 22.3228 102.668 22.2604C102.57 22.1979 102.456 22.1636 102.339 22.161C101.826 22.161 101.301 22.161 100.764 22.161V23.4901Z" fill="#2E90FA"/>
<path d="M186.351 26.3878V22.604L186.065 23.059L184.872 25.0707L184.18 26.2681C184.158 26.3217 184.12 26.3663 184.07 26.3947C184.02 26.423 183.962 26.4333 183.905 26.4238H183.237V21.3946H183.965V25.2503L184.418 24.5199L185.086 23.3225L186.16 21.4904C186.185 21.4361 186.225 21.3908 186.277 21.3608C186.328 21.3307 186.387 21.3175 186.447 21.3228C186.661 21.335 186.876 21.335 187.091 21.3228V26.328L186.351 26.3878Z" fill="#2E90FA"/>
<path d="M166.222 25.2623C166.103 25.6634 165.834 26.0025 165.47 26.2082C165.015 26.4909 164.47 26.5933 163.943 26.4956C163.564 26.4394 163.209 26.2786 162.916 26.0312C162.623 25.7838 162.404 25.4595 162.285 25.0946C162.028 24.3499 162.028 23.5403 162.285 22.7956C162.371 22.4598 162.544 22.1529 162.787 21.9067C163.031 21.6605 163.335 21.4837 163.669 21.3946C163.972 21.3004 164.294 21.2795 164.607 21.3336C164.92 21.3877 165.216 21.5153 165.47 21.706C165.881 22.0259 166.151 22.4943 166.222 23.0111C166.222 23.3704 166.294 23.7535 166.33 24.2085H162.81C162.764 24.5829 162.861 24.9608 163.083 25.2655C163.305 25.5702 163.634 25.7788 164.003 25.849C164.307 25.929 164.629 25.8939 164.909 25.7503C165.188 25.6067 165.405 25.3647 165.518 25.0707L166.222 25.2623ZM165.554 23.4781C165.572 23.2316 165.525 22.9847 165.419 22.762C165.312 22.5393 165.149 22.3485 164.945 22.2089C164.734 22.0594 164.482 21.9792 164.224 21.9792C163.965 21.9792 163.713 22.0594 163.502 22.2089C163.305 22.3411 163.142 22.5189 163.028 22.7273C162.914 22.9357 162.851 23.1685 162.845 23.4063L165.554 23.4781Z" fill="#2E90FA"/>
<path d="M95.8602 22.7477L95.1801 22.5082C95.2073 22.4456 95.2311 22.3817 95.2517 22.3166C95.3966 22.0301 95.6163 21.7885 95.8874 21.6177C96.1586 21.4469 96.4709 21.3532 96.7909 21.3467C97.0682 21.3109 97.3489 21.3109 97.6262 21.3467C97.9414 21.3852 98.2333 21.5332 98.4512 21.7651C98.6692 21.9969 98.7994 22.2979 98.8193 22.616C98.8308 22.7794 98.8308 22.9435 98.8193 23.1069V26.3519H98.0796V25.6814C97.8976 25.9983 97.6167 26.2463 97.2803 26.387C96.9438 26.5277 96.5706 26.5532 96.2182 26.4597C95.9936 26.4177 95.7814 26.3254 95.5975 26.1895C95.4135 26.0536 95.2625 25.8778 95.1558 25.6751C95.049 25.4725 94.9894 25.2482 94.9812 25.0191C94.973 24.79 95.0165 24.5621 95.1085 24.3522C95.2025 24.1405 95.3613 23.9643 95.5619 23.8493C95.9017 23.641 96.2864 23.5178 96.6835 23.4901C97.0296 23.4901 97.3756 23.4063 97.7335 23.3464C98.0915 23.2865 98.0915 23.2147 98.0796 22.9153C98.0921 22.7901 98.0772 22.6636 98.0358 22.5447C97.9944 22.4258 97.9276 22.3175 97.84 22.2274C97.7524 22.1372 97.6462 22.0674 97.5289 22.0228C97.4116 21.9782 97.2859 21.96 97.1608 21.9694C96.9674 21.9467 96.7713 21.9683 96.5874 22.0326C96.4035 22.0969 96.2364 22.2022 96.0989 22.3406C95.9915 22.4484 95.9915 22.616 95.8602 22.7477ZM98.1154 23.9451C97.7455 24.005 97.3756 24.0529 97.0176 24.1247C96.7541 24.1604 96.4945 24.2206 96.2421 24.3043C96.1028 24.3508 95.9822 24.4412 95.8983 24.562C95.8145 24.6829 95.7718 24.8277 95.7767 24.9749C95.7693 25.1761 95.8376 25.3728 95.968 25.5259C96.0984 25.679 96.2814 25.7772 96.4807 25.8011C96.6901 25.8434 96.9063 25.8374 97.1131 25.7835C97.3198 25.7295 97.5116 25.6291 97.6739 25.4898C97.7916 25.3897 97.8888 25.2677 97.9602 25.1306C98.107 24.7623 98.1603 24.3631 98.1154 23.9691V23.9451Z" fill="#2E90FA"/>
<path d="M91.0398 24.3522H89.8466C89.8235 24.3571 89.8019 24.3672 89.7833 24.3817C89.7647 24.3962 89.7496 24.4148 89.7392 24.4361C89.5245 24.8073 89.3216 25.1904 89.1188 25.5736C88.9159 25.9568 88.8682 26.0526 88.725 26.292C88.703 26.3191 88.6759 26.3415 88.6451 26.358C88.6144 26.3744 88.5807 26.3846 88.5461 26.3878H87.8779L89.071 24.2564H88.9875C88.703 24.1263 88.4692 23.9055 88.3225 23.6284C88.1758 23.3512 88.1243 23.0332 88.1762 22.7238C88.1944 22.3764 88.3441 22.0491 88.5947 21.8087C88.8453 21.5684 89.1778 21.4331 89.5245 21.4305C90.2642 21.4305 91.0159 21.4305 91.7676 21.4305V26.4238H91.0995L91.0398 24.3522ZM91.0398 23.6218V22.0891H89.6199C89.5171 22.0959 89.4163 22.1202 89.3216 22.161C89.1532 22.2162 89.0117 22.3332 88.9254 22.4886C88.8391 22.644 88.8145 22.8263 88.8563 22.9992C88.8624 23.1644 88.9313 23.3211 89.0489 23.4369C89.1665 23.5527 89.3239 23.6189 89.4887 23.6218C90.0256 23.6458 90.5029 23.6458 91.0159 23.6458L91.0398 23.6218Z" fill="#2E90FA"/>
<path d="M111.073 21.2509C111.546 21.2457 112.007 21.4067 112.374 21.706C112.801 22.0751 113.084 22.5842 113.173 23.1428C113.305 23.7992 113.251 24.4793 113.018 25.1066C112.924 25.3731 112.775 25.6171 112.582 25.8232C112.389 26.0293 112.156 26.193 111.897 26.304C111.524 26.4771 111.106 26.5274 110.703 26.4477C110.357 26.3958 110.03 26.2564 109.753 26.0428C109.475 25.8291 109.256 25.5482 109.117 25.2263C108.813 24.4612 108.788 23.6135 109.045 22.8315C109.134 22.4902 109.313 22.1792 109.563 21.9307C109.812 21.6822 110.124 21.5054 110.465 21.4186C110.691 21.3467 110.882 21.3348 111.073 21.2509ZM112.529 23.8613C112.529 23.5979 112.457 23.3225 112.386 23.059C112.353 22.8731 112.282 22.6961 112.177 22.5394C112.073 22.3827 111.936 22.2497 111.777 22.149C111.592 22.0344 111.382 21.9668 111.166 21.952C110.949 21.9372 110.732 21.9757 110.533 22.0642C110.334 22.1527 110.16 22.2884 110.026 22.4597C109.891 22.631 109.8 22.8326 109.761 23.0471C109.555 23.717 109.611 24.4402 109.916 25.0707C110.008 25.2503 110.139 25.4063 110.301 25.5267C110.462 25.6471 110.649 25.7287 110.847 25.7652C111.007 25.7972 111.173 25.7957 111.333 25.7606C111.493 25.7256 111.644 25.6579 111.777 25.5616C111.956 25.4399 112.107 25.2806 112.219 25.0946C112.417 24.7307 112.523 24.3238 112.529 23.9092V23.8613Z" fill="#2E90FA"/>
<path d="M145.007 23.9212C145.033 24.6096 144.813 25.2846 144.387 25.8251C144.262 25.9808 144.108 26.1109 143.934 26.2082C143.508 26.4884 142.991 26.5955 142.49 26.5076C142.122 26.443 141.778 26.2799 141.494 26.0354C141.211 25.7909 140.998 25.4742 140.879 25.1186C140.634 24.4293 140.605 23.6815 140.795 22.9752C140.873 22.633 141.036 22.3158 141.267 22.0529C141.499 21.79 141.793 21.5898 142.122 21.4706C142.451 21.3514 142.805 21.3171 143.15 21.3707C143.496 21.4244 143.823 21.5644 144.101 21.7778C144.341 21.9703 144.54 22.2096 144.685 22.4812C144.831 22.7528 144.92 23.0512 144.948 23.3584C144.978 23.5447 144.998 23.7326 145.007 23.9212ZM144.28 23.9212C144.28 23.7655 144.28 23.5979 144.28 23.4302C144.231 23.0348 144.065 22.6634 143.802 22.3645C143.556 22.1481 143.24 22.0288 142.913 22.0288C142.586 22.0288 142.27 22.1481 142.024 22.3645C142.024 22.3645 141.941 22.4244 141.917 22.4723C141.658 22.8483 141.5 23.2849 141.458 23.7401C141.416 24.1952 141.492 24.6535 141.678 25.0707C141.758 25.2707 141.885 25.4478 142.05 25.5858C142.214 25.7238 142.411 25.8184 142.621 25.861C142.857 25.9215 143.106 25.9081 143.334 25.8224C143.562 25.7368 143.759 25.5831 143.898 25.382C144.194 24.9563 144.33 24.4382 144.28 23.9212Z" fill="#2E90FA"/>
<path d="M174.741 26.3878V24.3762C174.741 24.3762 174.682 24.2564 174.646 24.2564H172.462V26.3878H171.735C171.729 26.3281 171.729 26.268 171.735 26.2082V21.5742C171.735 21.4186 171.735 21.3587 171.926 21.3707C172.108 21.3829 172.292 21.3829 172.474 21.3707V23.526H174.741V21.3946H175.457V26.3878H174.741Z" fill="#2E90FA"/>
<path d="M154.457 26.3878H153.741V22.1131H151.474V26.3878H150.759V21.3946H154.457V26.3878Z" fill="#2E90FA"/>
<path d="M127.11 26.4238V25.6933H127.265C127.342 25.7016 127.419 25.6945 127.493 25.6725C127.568 25.6504 127.637 25.6138 127.696 25.5648C127.756 25.5158 127.806 25.4554 127.843 25.387C127.879 25.3186 127.902 25.2437 127.909 25.1665C127.984 24.7225 128.036 24.2748 128.064 23.8254C128.064 23.083 128.124 22.3286 128.148 21.5862C128.148 21.4305 128.148 21.3826 128.351 21.3826H131.167C131.274 21.3826 131.345 21.3827 131.345 21.5263V26.316C131.345 26.316 131.345 26.316 131.345 26.4238H130.594V22.1131H128.84C128.84 22.1131 128.84 22.1969 128.84 22.2328C128.84 23.0351 128.756 23.8493 128.709 24.6276C128.69 25.0429 128.589 25.4501 128.41 25.8251C128.356 25.9451 128.277 26.0521 128.178 26.1388C128.079 26.2256 127.963 26.2901 127.838 26.328C127.597 26.3729 127.354 26.4048 127.11 26.4238Z" fill="#2E90FA"/>
<path d="M83.7614 21.3826H86.9353V26.3878H86.2193V22.1131H84.6205C84.4892 22.1131 84.4534 22.1131 84.4415 22.2807C84.4415 23.0231 84.4415 23.7535 84.346 24.484C84.3382 24.9377 84.2409 25.3853 84.0597 25.8011C83.9756 25.9721 83.8468 26.117 83.6871 26.2203C83.5274 26.3236 83.3428 26.3815 83.1529 26.3878H82.7353V25.6814H82.8665C83.2603 25.6814 83.475 25.5137 83.5228 25.1186C83.6063 24.5438 83.654 23.9212 83.6898 23.4063C83.7256 22.8914 83.7375 22.0652 83.7614 21.3826Z" fill="#2E90FA"/>
<path d="M182.509 21.3826C182.366 21.5623 182.259 21.7299 182.127 21.8856C181.829 22.2687 181.519 22.6399 181.22 23.0111C180.922 23.3823 180.839 23.4781 180.672 23.7056C180.654 23.7343 180.644 23.7675 180.644 23.8014C180.644 23.8353 180.654 23.8685 180.672 23.8972C180.898 24.2205 181.149 24.5438 181.399 24.8671L182.533 26.3998H181.674C181.647 26.3959 181.622 26.3864 181.599 26.3719C181.577 26.3575 181.557 26.3384 181.543 26.316L180.135 24.4121C180.075 24.3472 179.995 24.3049 179.908 24.2924C179.741 24.2924 179.574 24.2924 179.395 24.2924V26.3998H178.643V26.2322C178.643 24.6875 178.643 23.1309 178.643 21.5862C178.643 21.4186 178.643 21.3826 178.846 21.3826H179.383V23.526C179.753 23.6338 179.968 23.526 180.194 23.1668C180.19 23.135 180.19 23.1028 180.194 23.071L181.388 21.4904C181.446 21.4263 181.528 21.3877 181.614 21.3826H182.509Z" fill="#2E90FA"/>
<path d="M133.29 23.2147C133.78 23.2147 134.245 23.2147 134.698 23.2147C135.074 23.2063 135.441 23.3291 135.736 23.5619C135.95 23.7386 136.111 23.97 136.204 24.2315C136.296 24.493 136.316 24.7747 136.261 25.0467C136.22 25.4192 136.042 25.7629 135.762 26.0108C135.482 26.2587 135.119 26.3931 134.746 26.3878H132.563V21.3826H133.195C133.314 21.3826 133.29 21.4784 133.29 21.5383V23.2147ZM133.29 25.6814H133.469C133.875 25.6814 134.281 25.6814 134.663 25.6814C134.818 25.6864 134.972 25.6476 135.107 25.5693C135.242 25.491 135.353 25.3763 135.426 25.2383C135.481 25.1226 135.51 24.9958 135.509 24.8676C135.508 24.7393 135.479 24.6128 135.423 24.4976C135.366 24.3825 135.285 24.2815 135.184 24.2024C135.084 24.1233 134.966 24.0681 134.841 24.0409C134.651 24.0167 134.459 24.0167 134.269 24.0409H133.266L133.29 25.6814Z" fill="#2E90FA"/>
<path d="M166.866 26.3998L167.535 25.2862C167.797 24.8552 168.048 24.4241 168.31 24.005C168.394 23.8852 168.31 23.8014 168.31 23.7176L167.618 22.592L166.95 21.4665V21.3826H167.714C167.714 21.3826 167.797 21.3827 167.821 21.4665L168.764 23.1788L168.919 23.4302L170.016 21.4545C170.029 21.434 170.047 21.4169 170.068 21.4044C170.088 21.3919 170.112 21.3845 170.136 21.3826H170.899L170.339 22.2927L169.444 23.7416C169.412 23.7874 169.396 23.8417 169.396 23.8972C169.396 23.9528 169.412 24.007 169.444 24.0529C169.921 24.8192 170.386 25.5975 170.887 26.4477H170.1C170.1 26.4477 170.005 26.4477 169.981 26.3399L169.026 24.7474L168.907 24.5438L168.537 25.1306C168.298 25.5377 168.06 25.9568 167.809 26.328C167.795 26.3532 167.774 26.3743 167.749 26.389C167.723 26.4037 167.695 26.4115 167.666 26.4118L166.866 26.3998Z" fill="#2E90FA"/>
<path d="M124.628 24.927C124.628 25.0467 124.628 25.1425 124.568 25.2383C124.494 25.494 124.362 25.7289 124.182 25.9243C124.002 26.1196 123.778 26.2702 123.53 26.3639C123.205 26.5103 122.846 26.5641 122.492 26.5196C122.12 26.4738 121.768 26.3269 121.474 26.0948C121.179 25.8626 120.954 25.554 120.822 25.2024C120.517 24.4127 120.517 23.5374 120.822 22.7477C120.922 22.4339 121.095 22.1485 121.327 21.9155C121.56 21.6824 121.844 21.5083 122.157 21.4076C122.469 21.3069 122.801 21.2825 123.125 21.3365C123.449 21.3904 123.756 21.5212 124.019 21.7179C124.205 21.8597 124.357 22.0402 124.467 22.2469C124.576 22.4537 124.639 22.6817 124.652 22.9153H123.948C123.875 22.7482 123.787 22.5879 123.685 22.4364C123.557 22.3092 123.404 22.2105 123.235 22.1465C123.067 22.0825 122.887 22.0547 122.707 22.0648C122.527 22.075 122.351 22.1229 122.191 22.2054C122.031 22.288 121.889 22.4034 121.776 22.5441C121.534 22.9242 121.391 23.3596 121.362 23.8098C121.333 24.26 121.418 24.7102 121.609 25.1186C121.733 25.3697 121.932 25.576 122.177 25.709C122.423 25.8419 122.704 25.8951 122.981 25.861C123.185 25.834 123.376 25.7517 123.536 25.6229C123.696 25.4941 123.818 25.3238 123.888 25.1306C123.888 25.0228 123.96 24.9629 124.079 24.9749L124.628 24.927Z" fill="#2E90FA"/>
<path d="M149.804 22.8794H149.148C149.148 22.8794 149.064 22.8794 149.04 22.7956C148.975 22.6006 148.86 22.4259 148.707 22.2885C148.554 22.151 148.369 22.0554 148.168 22.0108C147.968 21.9663 147.76 21.9744 147.563 22.0342C147.367 22.0941 147.189 22.2037 147.048 22.3526C146.741 22.6506 146.554 23.0511 146.523 23.4781C146.429 24.0507 146.521 24.6384 146.785 25.1545C146.86 25.2928 146.962 25.4148 147.084 25.5137C147.217 25.6445 147.38 25.7418 147.558 25.798C147.736 25.8541 147.925 25.8675 148.11 25.837C148.315 25.8027 148.508 25.715 148.669 25.5826C148.83 25.4503 148.954 25.2779 149.028 25.0827C149.03 25.0611 149.036 25.04 149.046 25.0208C149.056 25.0016 149.069 24.9847 149.086 24.9712C149.103 24.9577 149.123 24.9478 149.143 24.9423C149.164 24.9367 149.186 24.9356 149.207 24.939H149.792C149.8 25.0266 149.8 25.1148 149.792 25.2024C149.72 25.4763 149.582 25.7285 149.39 25.9371C149.199 26.1457 148.96 26.3045 148.694 26.3998C148.336 26.5484 147.941 26.5859 147.561 26.5076C147.218 26.4405 146.897 26.2864 146.63 26.0601C146.362 25.8338 146.157 25.5427 146.034 25.2144C145.75 24.5097 145.708 23.7304 145.914 22.9992C145.984 22.6477 146.142 22.32 146.374 22.0475C146.606 21.775 146.904 21.5667 147.239 21.4425C147.525 21.3408 147.829 21.301 148.131 21.3258C148.433 21.3506 148.727 21.4393 148.993 21.5862C149.216 21.7267 149.405 21.916 149.545 22.1398C149.686 22.3637 149.774 22.6165 149.804 22.8794Z" fill="#2E90FA"/>
<path d="M106.145 26.3878V22.1011H104.582V21.3946H108.436V22.1011H106.885V26.3878H106.145Z" fill="#2E90FA"/>
<path d="M160.065 26.3878H159.338V22.1011H157.774V21.3946H161.616V22.1011H160.423C160.03 22.1011 160.03 22.1011 160.03 22.4843V26.3878H160.065Z" fill="#2E90FA"/>
<path d="M137.276 21.3826H140.199V22.0891H138.003V26.3878H137.276V21.3826Z" fill="#2E90FA"/>
<path d="M177.426 21.3946V26.3878H176.722V21.3946H177.426Z" fill="#2E90FA"/>
<path d="M126.298 26.3878H125.594V21.3826H126.298V26.3878Z" fill="#2E90FA"/>
<path d="M116.574 21.3826H117.266V26.3878H116.574V21.3826Z" fill="#2E90FA"/>
</svg>
