<svg xmlns="http://www.w3.org/2000/svg" width="50" height="48" viewBox="0 0 50 48" fill="none">
  <path fill-rule="evenodd" clip-rule="evenodd" d="M20.0122 37.9268C19.9432 37.6804 19.8673 37.4273 19.7846 37.1741C19.7156 36.9552 19.6397 36.7362 19.5638 36.4899C19.5404 36.4154 19.5128 36.3423 19.481 36.2709L19.3223 35.8741C19.3223 35.7919 19.2533 35.703 19.2119 35.6209C19.1705 35.5388 19.1154 35.3677 19.0602 35.2377C19.005 35.1077 18.9843 35.0598 18.9429 34.9777C18.9015 34.8956 18.8394 34.7314 18.7773 34.6082C18.7152 34.4851 18.6945 34.4303 18.6531 34.3414L18.4875 33.9924L18.3427 33.7256L18.1702 33.3834L17.8321 32.8087L17.6804 32.5487L17.4803 32.2134C17.432 32.1313 17.3768 32.0492 17.3216 31.9671L17.1077 31.6318L16.9491 31.3992C16.8732 31.2828 16.7904 31.1734 16.7145 31.0639L16.5558 30.8381L16.3006 30.4891C16.2454 30.4275 16.1971 30.3523 16.1488 30.2907L15.8383 29.9007L15.7279 29.7159C15.5762 29.538 15.4313 29.3601 15.2795 29.1891L14.8518 28.7101L14.7 28.5596L14.3757 28.2175L14.1964 28.0396C14.0998 27.9369 13.9963 27.8343 13.8928 27.7385L13.6927 27.5537L13.3961 27.2732L13.1822 27.0816L12.8994 26.8011L12.6717 26.6163C12.5751 26.5274 12.4716 26.4453 12.3681 26.3632L12.1405 26.1784L11.83 25.9389L11.5955 25.7679L11.2781 25.5352C11.1953 25.4805 11.1194 25.4189 11.0366 25.371C10.9301 25.2903 10.8196 25.2149 10.7055 25.1452L10.4709 24.981L10.126 24.7689L9.89141 24.6184L9.2705 24.242L8.82206 23.9957L8.67028 23.9136C8.47021 23.8041 8.26324 23.7015 8.05627 23.5989L7.93899 23.5578L7.43537 23.3183L7.2077 23.2225L6.80756 23.0446L6.5454 22.9351L6.17285 22.7915L5.88999 22.682L5.63473 22.593C5.71752 22.9351 5.8072 23.2773 5.91069 23.6194C5.95208 23.7699 5.99348 23.8931 6.03487 24.0231C6.07627 24.1531 6.13836 24.3447 6.18665 24.5021C6.23494 24.6594 6.27634 24.7689 6.33153 24.8989C6.38672 25.0289 6.47641 25.2889 6.5454 25.4805L6.70407 25.8774L6.84895 26.2126L7.05592 26.6779C7.10421 26.7942 7.15941 26.9037 7.2077 27.0132L7.38707 27.369C7.4151 27.4348 7.44736 27.4988 7.48366 27.5606C7.55955 27.7043 7.61474 27.8206 7.68373 27.9438L7.95279 28.4227C8.04248 28.5869 8.13906 28.7443 8.22875 28.8948C8.47021 29.2917 8.73238 29.6954 9.01523 30.0923L9.29119 30.4823C9.33259 30.5507 9.38088 30.6123 9.42917 30.6807L9.75343 31.0981C9.85001 31.2281 9.9535 31.3513 10.0501 31.4676C10.1667 31.3827 10.2915 31.3093 10.4226 31.2486C10.7466 31.1288 11.0912 31.073 11.4368 31.0844H11.7679C12.1082 31.1085 12.4407 31.1968 12.7476 31.3444C13.0581 31.4873 13.3371 31.6896 13.5686 31.9397C13.8013 32.1855 13.984 32.4736 14.1067 32.7882C14.223 33.099 14.2815 33.4282 14.2792 33.7598C14.2801 34.0969 14.2169 34.4312 14.0929 34.7451C14.0239 34.9092 13.9408 35.0672 13.8445 35.2172L14.0239 35.3609L14.3757 35.614L14.6724 35.833L15.0587 36.093L15.1346 36.1478L15.2381 36.2162L15.79 36.5651L16.2247 36.8251C16.4799 36.9757 16.749 37.1262 17.0112 37.2631L17.3009 37.4204L18.0391 37.7831L18.4393 37.9678H18.4806L18.9498 38.1731L19.4396 38.3715L19.6742 38.4605L19.9846 38.5768L20.1157 38.6247L19.9915 38.1389L20.0122 37.9268Z" fill="#2E90FA"/>
  <path fill-rule="evenodd" clip-rule="evenodd" d="M27.0354 39.4868C27.0354 39.4184 27.0354 39.3431 27.0009 39.2747C27.0009 39.0558 26.9319 38.8436 26.8905 38.6247C26.4199 36.1253 25.6196 33.6982 24.5104 31.406L24.5587 31.4813L26.1937 29.8391C26.3833 29.6439 26.504 29.393 26.5376 29.1241C26.5712 28.8551 26.5159 28.5826 26.38 28.3475C26.0247 27.7653 25.6402 27.2013 25.2279 26.6574C25.0628 26.4359 24.8281 26.2753 24.5607 26.2009C24.2933 26.1266 24.0086 26.1427 23.7515 26.2469L21.868 26.979C21.7932 26.8656 21.7126 26.756 21.6266 26.6506L21.4403 26.3974C21.3575 26.2879 21.2747 26.1784 21.185 26.0758C21.0954 25.9732 21.054 25.9047 20.985 25.8226L20.7366 25.5147L21.9508 23.6194C22.102 23.3872 22.1706 23.1116 22.1456 22.8363C22.1206 22.5611 22.0034 22.302 21.8129 22.1004C21.3465 21.6025 20.8537 21.1297 20.3365 20.684C20.1278 20.5023 19.8643 20.3944 19.5872 20.377C19.31 20.3597 19.0349 20.434 18.8049 20.5882L17.0388 21.7856L16.9422 21.7035L16.6524 21.464L16.3903 21.2451L16.0936 21.0124L16.0039 20.944C16.1488 20.5882 16.5144 19.6645 16.7904 18.9529C16.8901 18.6947 16.9009 18.4111 16.821 18.1462C16.7411 17.8813 16.5751 17.6501 16.3489 17.4886C15.79 17.0918 15.2105 16.7223 14.6172 16.3802C14.3768 16.2435 14.0976 16.1895 13.8231 16.2267C13.5486 16.2638 13.2941 16.3899 13.0994 16.5854L11.5748 18.1181L11.3126 17.9813L10.9332 17.7897L10.6434 17.6528L10.2846 17.4818L10.0639 17.3997C10.1053 17.1191 10.2709 16.0312 10.3881 15.1896C10.4297 14.9169 10.3783 14.6382 10.2421 14.3977C10.1059 14.1573 9.89263 13.9688 9.63614 13.8622C9.00144 13.6022 8.35983 13.3695 7.70443 13.1779C7.4387 13.0967 7.15324 13.1058 6.8933 13.2037C6.63336 13.3016 6.4138 13.4828 6.26944 13.7185C5.76581 14.519 5.07591 15.6412 5.05522 15.6754C5.05522 16.2091 5.00002 16.7428 5.00002 17.2834C4.99852 18.327 5.06998 19.3696 5.21389 20.4035H5.28288L5.62783 20.513L6.02797 20.643L6.36602 20.7661L6.75927 20.903L7.09732 21.033L7.47676 21.1903C7.59404 21.2314 7.69753 21.2793 7.80791 21.3272L8.18046 21.4846L8.51161 21.6419L8.88415 21.813L9.20151 21.9704L9.56715 22.1551L9.88451 22.3262L10.2364 22.5178L10.5468 22.6957L10.8987 22.9009L11.2022 23.0857L11.5403 23.2978L12.175 23.722L12.4647 23.9273C12.5751 24.0026 12.6855 24.0778 12.789 24.1599L13.0718 24.372L13.3892 24.6184L13.6721 24.8373C13.7755 24.9194 13.8721 25.0084 13.9825 25.0905L14.2516 25.3231L14.5482 25.5831L14.8173 25.8226L15.107 26.0963C15.1967 26.1716 15.2795 26.2537 15.3623 26.3358L15.6521 26.6163L15.9004 26.8695L16.1764 27.1637L16.4109 27.4169L16.68 27.718L16.9146 27.9848L17.1698 28.2927L17.3975 28.5664L17.6459 28.888L17.8597 29.1617L18.1012 29.4901L18.3082 29.7707C18.3841 29.8801 18.4599 29.9965 18.5427 30.1059C18.6255 30.2154 18.6738 30.2975 18.7359 30.4002C18.798 30.5028 18.8877 30.626 18.9567 30.7423C19.0257 30.8586 19.0809 30.9407 19.1498 31.0365L19.3568 31.3923L19.5362 31.6865C19.6052 31.8097 19.6742 31.9329 19.7363 32.056C19.7984 32.1792 19.8535 32.2544 19.9018 32.3571C19.9501 32.4597 20.0398 32.6034 20.1019 32.7266C20.164 32.8497 20.2054 32.9318 20.2537 33.0345C20.302 33.1371 20.3848 33.2945 20.4469 33.4245C20.5089 33.5545 20.5434 33.6229 20.5848 33.7256C20.6262 33.8282 20.709 33.9924 20.7642 34.1293L20.9022 34.4303C20.9574 34.574 21.0126 34.7177 21.0747 34.8614L21.185 35.1488C21.254 35.3061 21.3092 35.4704 21.3644 35.6346C21.3985 35.7128 21.4284 35.7928 21.4541 35.8741C21.5461 36.1204 21.6289 36.3667 21.7025 36.613C21.7784 36.8662 21.8543 37.1194 21.9232 37.3725C21.9232 37.4546 21.9646 37.5299 21.9922 37.612C22.0198 37.6941 22.0819 37.9678 22.1233 38.1457C22.1647 38.3236 22.1716 38.3236 22.1923 38.4126C22.213 38.5015 22.2682 38.7615 22.3027 38.9394C22.3372 39.1173 22.3441 39.1105 22.3579 39.1926V39.3089L23.2271 39.5005L23.5445 39.5621H23.6066L24.0136 39.6374L24.3517 39.6853L24.7311 39.74L25.1106 39.7879L25.4969 39.8289C25.6349 39.8289 25.7591 39.8289 25.8764 39.8632H26.1937L27.1113 39.9795C27.1113 39.9795 27.1113 39.9453 27.1113 39.9247C27.0837 39.7742 27.0561 39.6305 27.0354 39.4868Z" fill="#2E90FA"/>
  <path fill-rule="evenodd" clip-rule="evenodd" d="M43.8482 19.3908C43.8482 19.2745 43.2411 18.2071 42.7651 17.386C42.6276 17.1457 42.413 16.9579 42.1554 16.8526C41.8979 16.7472 41.6122 16.7302 41.3439 16.8044C40.6846 16.9824 40.0352 17.1949 39.3984 17.4407C39.1342 17.5403 38.9119 17.7258 38.7678 17.9669C38.6236 18.208 38.5663 18.4905 38.605 18.7681C38.7016 19.6166 38.8396 20.7661 38.8672 21.0056C38.3704 21.2177 37.8737 21.4367 37.3908 21.6898L35.9213 20.0682C35.7355 19.8632 35.4864 19.7251 35.213 19.6755C34.9395 19.626 34.6573 19.6678 34.4104 19.7945C33.7964 20.1093 33.21 20.4787 32.6305 20.8209C32.398 20.9728 32.223 21.1971 32.1331 21.4585C32.0432 21.7198 32.0434 22.0034 32.1337 22.2646C32.4235 23.1062 32.8236 24.2626 32.865 24.4131C32.5684 24.6321 32.2717 24.8647 31.982 25.0973L30.2641 23.8452C30.0435 23.6771 29.7731 23.5859 29.4949 23.5859C29.2167 23.5859 28.9462 23.6771 28.7256 23.8452C28.1932 24.2741 27.6842 24.7309 27.201 25.2137C27.005 25.4078 26.8797 25.661 26.8447 25.9335C26.8097 26.206 26.8671 26.4823 27.0078 26.719L28.1599 28.6759C27.4205 29.5051 26.7295 30.3755 26.0902 31.2828C26.1316 31.3855 26.173 31.4949 26.2213 31.6044L26.4283 32.1108C26.5111 32.3092 26.587 32.5076 26.6628 32.706C26.7387 32.9045 26.7939 33.0413 26.856 33.2124C26.9181 33.3834 27.0009 33.6161 27.0699 33.8213C27.1389 34.0266 27.1872 34.1635 27.2493 34.3277L27.4493 34.9572L27.6011 35.4567C27.6701 35.6756 27.7253 35.8877 27.7874 36.1409C27.8495 36.3941 27.8771 36.4693 27.9254 36.6336C27.9736 36.7978 27.9736 36.8457 28.0012 36.9483C29.5466 33.8321 31.74 31.0759 34.4369 28.8611C37.1338 26.6463 40.2731 25.0231 43.6482 24.0984C43.82 23.0687 43.9191 22.0284 43.9448 20.9851C43.9448 20.7319 43.9448 20.4856 43.9448 20.2324V19.9929C43.9448 19.9929 43.8758 19.514 43.8482 19.3908Z" fill="#1570EF"/>
  <path fill-rule="evenodd" clip-rule="evenodd" d="M43.5861 25.6926L43.3446 25.7542C43.0893 25.8226 42.8341 25.8979 42.5857 25.98L41.8958 26.199L41.6681 26.2947L41.2404 26.4521C41.1526 26.4792 41.0672 26.5135 40.9851 26.5548L40.5988 26.7053L40.3297 26.8216C40.2056 26.8695 40.0883 26.9242 39.9641 26.9858C39.8399 27.0474 39.7847 27.0679 39.695 27.109L39.3432 27.2732L39.0741 27.4169L38.7292 27.588L38.4601 27.7385L38.1221 27.9232L37.8599 28.0738L37.5288 28.2722L37.2735 28.4296L36.9423 28.6417L36.7009 28.7991L36.3559 29.0317L36.1283 29.1891L35.7833 29.4491L35.5832 29.5928L35.19 29.9007L35.0451 30.0102L34.5139 30.4549L34.031 30.886L33.8792 31.0297L33.5342 31.3513L33.3549 31.5292L33.0444 31.8302L32.8581 32.0287C32.7615 32.1244 32.6719 32.2271 32.5822 32.3229L32.3821 32.535C32.2993 32.6376 32.2096 32.7334 32.1199 32.8292L31.9337 33.055L31.6784 33.3561L31.499 33.5819L31.2576 33.8898L31.0782 34.1224C31.0023 34.225 30.9195 34.3345 30.8505 34.4372L30.6781 34.6766L30.4504 35.0051L30.2917 35.2377C30.2158 35.354 30.1399 35.4635 30.0709 35.5798C30.0186 35.6549 29.9703 35.7325 29.9261 35.8125L29.6984 36.182L29.5742 36.3941L29.3259 36.8388L29.2362 36.9894C29.1327 37.1878 29.0223 37.3931 28.9257 37.5983L28.8636 37.7147C28.7877 37.8789 28.7049 38.0431 28.6291 38.2141C28.5532 38.3852 28.5601 38.3647 28.5256 38.4399C28.4911 38.5152 28.4083 38.7 28.3531 38.8368C28.2979 38.9736 28.2772 39.0079 28.2427 39.0968L28.0909 39.4663L27.9874 39.7468C27.953 39.8289 27.9254 39.9179 27.8909 40C28.2427 39.9179 28.5808 39.8289 28.9326 39.7263L29.8226 39.4526C29.9537 39.4047 30.0916 39.3637 30.2227 39.3089L30.8022 39.0968L31.2024 38.9394L31.5404 38.7957L32.0165 38.5905L32.3476 38.4399L32.7133 38.262H32.7478L32.9409 38.1662L33.3273 37.9678L33.8033 37.701C33.9758 37.612 34.1275 37.5162 34.2862 37.4273C34.6795 37.1878 35.0865 36.9278 35.4935 36.6541L35.8799 36.3735L36.08 36.2367L36.5077 35.9151L36.8802 35.6277C36.7963 35.5072 36.7203 35.3815 36.6526 35.2514C36.5054 34.9464 36.4165 34.6169 36.3904 34.2798V33.9514C36.4431 33.2702 36.7507 32.6332 37.2528 32.1655C37.506 31.9382 37.798 31.7575 38.1152 31.6318C38.7545 31.3871 39.4627 31.3871 40.1021 31.6318C40.2705 31.6987 40.4322 31.7812 40.585 31.8781L40.723 31.7002L40.9851 31.3513L41.199 31.057C41.2956 30.9339 41.3784 30.8039 41.4681 30.6739L41.5164 30.5986C41.5369 30.5628 41.56 30.5285 41.5854 30.496L41.9372 29.9486C42.0269 29.8117 42.1166 29.668 42.1994 29.5175C42.2822 29.367 42.5029 28.9975 42.6409 28.7375C42.6961 28.6417 42.7513 28.5459 42.7996 28.4501C42.9238 28.2106 43.0479 27.9643 43.1652 27.718C43.2825 27.4716 43.2963 27.4511 43.3515 27.3211L43.5585 26.849C43.6275 26.6848 43.6895 26.5274 43.7516 26.3632C43.7516 26.2879 43.8137 26.2126 43.8413 26.1305C43.8689 26.0484 43.9172 25.9184 43.9586 25.8226L44 25.6926H43.5861Z" fill="#1570EF"/>
  <path d="M29.3465 8.99726C28.9674 8.62632 28.5406 8.30653 28.0771 8.04617C28.0323 8.02125 27.9816 8.00834 27.9302 8.00869C27.8787 8.00904 27.8283 8.02265 27.7838 8.04819C27.7392 8.07372 27.7022 8.11029 27.6762 8.15432C27.6502 8.19835 27.6362 8.24833 27.6356 8.29934V12.5827C27.6305 12.7396 27.5659 12.8888 27.4546 13.0005C27.3433 13.1121 27.1936 13.178 27.0354 13.1848H23.9791C23.8209 13.1798 23.6704 13.1156 23.5579 13.0052C23.4453 12.8949 23.3789 12.7464 23.372 12.5895V8.28565C23.3683 8.23519 23.3522 8.1864 23.325 8.14361C23.2977 8.10082 23.2603 8.06534 23.216 8.04032C23.1716 8.01529 23.1218 8.00148 23.0708 8.00011C23.0198 7.99875 22.9692 8.00986 22.9236 8.03248C22.4512 8.30321 22.0134 8.62943 21.6197 9.0041C21.0804 9.54099 20.6616 10.1849 20.3908 10.8935C20.12 11.6021 20.0032 12.3595 20.0482 13.1161C20.0931 13.8726 20.2988 14.6111 20.6516 15.2833C21.0045 15.9555 21.4966 16.5461 22.0957 17.0165C22.421 17.2926 22.7832 17.5228 23.172 17.7007H27.8012C28.2034 17.5201 28.5812 17.2903 28.9257 17.0165C29.5241 16.5434 30.0144 15.9497 30.3643 15.2747C30.7142 14.5997 30.9157 13.8587 30.9555 13.1008C30.9952 12.3428 30.8724 11.5851 30.595 10.8778C30.3177 10.1704 29.8922 9.52944 29.3465 8.99726Z" fill="#2E90FA"/>
  <path d="M26.4697 18.6724H24.5242C24.246 18.6724 24.0205 18.896 24.0205 19.1718V21.6214C24.0205 21.8973 24.246 22.1209 24.5242 22.1209H26.4697C26.7478 22.1209 26.9733 21.8973 26.9733 21.6214V19.1718C26.9733 18.896 26.7478 18.6724 26.4697 18.6724Z" fill="#2E90FA"/>
</svg>